<svg id="futuremaman" xmlns="http://www.w3.org/2000/svg" width="97.678" height="82.37" viewBox="0 0 97.678 82.37">
  <g id="Groupe_272" data-name="Groupe 272" transform="translate(0 0)">
    <path id="Tracé_177" data-name="Tracé 177" d="M65.981,37.977l-.026.053.146.067.02-.047ZM45.922,33.316c.065.094.131.171.243.03Zm.156.242-.318.025C45.866,33.612,45.966,33.724,46.079,33.558Zm19.537,3.6c.166-.178.349-.248.446-.466C65.609,36.949,65.609,36.949,65.615,37.16ZM47.122,32l.14-.054c-.291-.252-.354-.289-.516-.3Zm17.821,6.523c.165-.074.128-.212.1-.345-.007-.027-.048-.068-.067-.065a.138.138,0,0,0-.1.066A.3.3,0,0,0,64.943,38.527ZM37.928,63.016a6.189,6.189,0,0,0-1.009,1.152A5.937,5.937,0,0,0,37.928,63.016Zm-4.621.032a7.422,7.422,0,0,0,1.959-2.469Zm24.124-8.031c-.016-.357-.035-.713-.047-1.071s-.012-.7-.022-1.043.051-.7.016-1.072c-.094.018-.154.026-.212.042a1.127,1.127,0,0,0-.136.059A14.972,14.972,0,0,0,57.431,55.017ZM17.8,74.945c.4.268.792.532,1.188.783a1.031,1.031,0,0,0,.324.11c.129.029.223-.022.261-.2-.35-.242-.707-.49-1.067-.734a1.07,1.07,0,0,0-.259-.132A.343.343,0,0,0,17.8,74.945ZM10.18,76.3a.582.582,0,0,0,.059-.173,5.672,5.672,0,0,0-.211-1.436c-.085-.27-.189-.3-.476-.177.041.3.08.611.127.918a2.282,2.282,0,0,0,.08.319A.877.877,0,0,0,10.18,76.3Zm12.782-2.729a4.536,4.536,0,0,0-1.39-.586,1.214,1.214,0,0,0-.314-.018c-.238.012-.286.069-.308.361.53.194,1.064.4,1.605.582C22.781,73.986,22.861,73.908,22.962,73.571ZM57.734,51.743a8.358,8.358,0,0,0-.016,2.085l1.159-2.312Zm-22.3,20.74c.219.394.41.483.756.322s.672-.358,1.007-.54a.209.209,0,0,0,.111-.252.448.448,0,0,0-.67-.321c-.347.2-.683.414-1.022.627A1.445,1.445,0,0,0,35.435,72.483ZM23.073,68.3c.347.154.641.3.944.414a4.636,4.636,0,0,0,.893.386l.224-.607c-.362-.2-.7-.383-1.047-.565a3.583,3.583,0,0,0-.36-.169.245.245,0,0,0-.313.063C23.307,67.967,23.207,68.115,23.073,68.3ZM48.394,39.286c.166.106.3.191.434.278a4.409,4.409,0,0,0,1.788.718c.175.025.348.06.521.091a3.933,3.933,0,0,1,1.924.856.855.855,0,0,0,.122.075.455.455,0,0,0-.138-.232,5.381,5.381,0,0,0-1.511-1A12.866,12.866,0,0,0,48.394,39.286Zm10.98,8.33.018.028c.232-.1.458-.221.7-.3.577-.2,1.157-.379,1.74-.556a3.2,3.2,0,0,0,1.393-.86c.208-.216.394-.456.59-.685l-.042-.059c-.178.09-.364.166-.533.271A22.842,22.842,0,0,1,61,46.639c-.47.224-.913.512-1.366.776A2.575,2.575,0,0,0,59.374,47.616ZM57.942,36.722l-.064-.017A28.258,28.258,0,0,0,56.446,42c.363,0,.365,0,.421-.317.006-.036.014-.072.022-.108a31.64,31.64,0,0,1,.9-3.339,1.148,1.148,0,0,0,.049-.43,5.291,5.291,0,0,1,.037-.71C57.889,36.971,57.92,36.847,57.942,36.722ZM25.887,73.066c.092.119.147.2.212.272a.51.51,0,0,0,.713.118,1.892,1.892,0,0,0,.222-.147q.512-.389,1.02-.783c.07-.054.136-.112.218-.181a1.746,1.746,0,0,0-.138-.244c-.318-.394-.524-.444-.926-.141C26.762,72.3,26.345,72.68,25.887,73.066Zm22.65-33.934c.326.047.6.094.884.126a7.814,7.814,0,0,1,2.289.641,5.3,5.3,0,0,1,.887.539c.243.172.461.384.724.608-.041-.083-.06-.13-.085-.174a4.521,4.521,0,0,0-1.086-1.305,2.917,2.917,0,0,0-2.5-.692C49.29,38.946,48.932,39.041,48.537,39.133ZM27.464,69.252c-.273-.684-.684-.737-1.1-.4a7.62,7.62,0,0,0-.736.67.891.891,0,0,0-.251.754c.053.4.216.494.529.27A13.668,13.668,0,0,0,27.464,69.252ZM51.972,28.587v1.688c.022-.018.057-.033.071-.06a9.6,9.6,0,0,0,.513-.992,3.043,3.043,0,0,0,.222-1.724c-.057-.288-.1-.579-.159-.867-.029-.146-.072-.288-.124-.489a7.553,7.553,0,0,0-.772,2.216c-.1.628.129,1.239.032,1.913.051-.062.069-.074.071-.088C51.878,29.624,51.929,29.066,51.972,28.587ZM29.624,74.422a.828.828,0,0,0,.576-.234c.093-.1.2-.18.292-.28q.32-.347.63-.7a.338.338,0,0,0,.064-.382.586.586,0,0,0-.819-.305,13.163,13.163,0,0,0-1.232.846c-.3.236-.3.393-.075.716a1.228,1.228,0,0,0,.155.186A.536.536,0,0,0,29.624,74.422ZM63.693,45.031c-.389.029-.8.042-1.213.1a4.452,4.452,0,0,0-.951.214,4.9,4.9,0,0,0-2.365,2.224s.007.014.011.02.016.009.021.007a.59.59,0,0,0,.092-.053A8.917,8.917,0,0,1,61.1,46.472c.475-.216.939-.461,1.4-.715C62.905,45.529,63.3,45.271,63.693,45.031Zm-38.9,7.3a.489.489,0,0,0,.261.5.5.5,0,0,0,.436.014c.372-.115.743-.232,1.107-.371a2.432,2.432,0,0,0,.509-.288.357.357,0,0,0,.128-.461c-.064-.161-.118-.327-.185-.487s-.143-.219-.309-.151q-.836.342-1.663.709A.477.477,0,0,0,24.793,52.335Zm43.215-9.867a1.117,1.117,0,0,0-.119.037,1.416,1.416,0,0,1-1.348-.057.478.478,0,0,0-.63.084.579.579,0,0,1-.682.157.46.46,0,0,0-.646.165.942.942,0,0,1-.092.1,1.364,1.364,0,0,1-.7.422c-.211.042-.423.075-.643.113a.515.515,0,0,0,.409.148,1.211,1.211,0,0,0,.97-.478.566.566,0,0,1,.41-.274.982.982,0,0,1,.365.037.683.683,0,0,0,.56-.072c.027-.015.056-.025.137-.062a.416.416,0,0,1-.359.238,1.836,1.836,0,0,1-.417-.039.5.5,0,0,0-.537.144,1.52,1.52,0,0,1-.724.541.71.71,0,0,0,.133.051,4.3,4.3,0,0,0,1.524-.1,11.008,11.008,0,0,1,1.081-.257,2.5,2.5,0,0,0,1.089-.468,1.223,1.223,0,0,0,.15-.157,1.676,1.676,0,0,1-1.449-.1A1.652,1.652,0,0,0,68.007,42.467ZM24.967,51.661c-.443-.281-.884-.568-1.332-.84-.3-.185-.458-.143-.677.147-.033.043-.062.09-.091.136-.294.468-.261.744.2,1.035.5.315,1.018.583,1.531.867a1.761,1.761,0,0,0,.278.092,3.235,3.235,0,0,1-.134-.313c-.116-.391-.2-.778.2-1.065C24.95,51.71,24.954,51.688,24.967,51.661Zm33.7,1.235.044.047a.733.733,0,0,0,.073-.032c.533-.3,1.059-.622,1.6-.911a8.215,8.215,0,0,0,2.1-1.472,4.364,4.364,0,0,1,.623-.508,4.126,4.126,0,0,1,1.328-.529c.263-.072.524-.15.785-.226a.128.128,0,0,0-.115-.043c-.4.053-.8.114-1.207.158a4.233,4.233,0,0,0-2.5,1.077c-.659.613-1.324,1.217-2.024,1.78C59.125,52.438,58.9,52.675,58.671,52.9ZM71.464,34.867c-.028.036-.038.043-.038.05a.148.148,0,0,0,.008.052,1.052,1.052,0,0,1-.091.949c-.092.157-.183.315-.29.461a.865.865,0,0,0-.11.928.908.908,0,0,1,.042.647c-.1.305-.2.609-.3.91a1.541,1.541,0,0,1-.847.935,7.035,7.035,0,0,1-.734.234.807.807,0,0,0,.5.037,3.3,3.3,0,0,0,.878-.317,1.782,1.782,0,0,0,1.182-1.581,9.524,9.524,0,0,1,.146-1.091c.033-.2.106-.389.151-.585a1.7,1.7,0,0,0-.125-1.179.912.912,0,0,0-.12-.143,1.349,1.349,0,0,1-.26.908A1.337,1.337,0,0,0,71.464,34.867Zm-3.277-13.8-1.881-1.209-1.382,2.8A12.27,12.27,0,0,0,68.187,21.07Zm-5.607-3.861c-.211-.192-.4-.373-.6-.54a3.558,3.558,0,0,0-.6-.509,36.609,36.609,0,0,1-.35,6.719,8.155,8.155,0,0,0,.519-1.178,16.616,16.616,0,0,0,.408-1.684A17.032,17.032,0,0,1,62.581,17.209ZM65.3,49.1l-.011-.056a1.216,1.216,0,0,0-.155-.023c-.626-.011-1.252-.046-1.877-.022a4.681,4.681,0,0,0-1.927.429,4.57,4.57,0,0,0-2,1.743c-.282.476-.52.981-.777,1.474-.008.015,0,.04,0,.1a11.9,11.9,0,0,1,1.812-1.478A4.688,4.688,0,0,0,61.1,50.6a3.831,3.831,0,0,1,2.7-1.347C64.3,49.221,64.8,49.156,65.3,49.1ZM61.188,40.25c-.01,0-.018-.011-.026-.011-.044,0-.087.008-.13.016a2.03,2.03,0,0,1-1.405-.237,3.364,3.364,0,0,1-1.494-1.349.508.508,0,0,0-.07-.083,11.782,11.782,0,0,0-.7,3.286c.007,0,.015.013.021.013a20,20,0,0,0,3.345-.637.217.217,0,0,0,.129-.115C60.974,40.847,61.076,40.557,61.188,40.25Zm-5.614,3.294c-.014.033-.029.05-.027.064a7.983,7.983,0,0,1,.008,1.68,11.539,11.539,0,0,0,.039,2.067A4.078,4.078,0,0,0,56.847,49.9c.08.075.169.139.254.209a.594.594,0,0,0-.041-.261c-.132-.448-.3-.889-.385-1.346-.1-.494-.131-1-.177-1.5a8.537,8.537,0,0,0-.43-2.127c-.11-.3-.2-.617-.3-.926a6.569,6.569,0,0,1,.944,2.322c.057.409.114.819.155,1.23a11.77,11.77,0,0,0,.369,2.2,1.621,1.621,0,0,0,.072.172,14.6,14.6,0,0,1,.018-1.692,8,8,0,0,0-.079-1.979A4.5,4.5,0,0,0,55.574,43.544Zm-.723-5.064.044-.011a6.6,6.6,0,0,1,.042-.73c.114-.7.224-1.4.379-2.086a12.613,12.613,0,0,0,.3-2.761,6.149,6.149,0,0,0-.151-1.532,14.009,14.009,0,0,0-.966-2.59c-.057-.12-.121-.237-.181-.356a.192.192,0,0,0-.01.142A7,7,0,0,1,54.487,30c.046,1.39-.053,2.775-.122,4.161a12.878,12.878,0,0,0,.34,3.8C54.748,38.138,54.8,38.308,54.851,38.48Zm-.02.574c-.118-.344-.24-.666-.339-1a12.735,12.735,0,0,1-.418-4.34c.051-1.047.107-2.094.143-3.141a8.779,8.779,0,0,0-.053-1.79,2.674,2.674,0,0,0-.161-.7,10.12,10.12,0,0,1-.134,1.115c-.172.75-.38,1.492-.58,2.235A9.765,9.765,0,0,0,53,35.5a6.2,6.2,0,0,0,1.754,3.508A.361.361,0,0,0,54.831,39.053Zm-3.281-9,.042-.008c0-.095.006-.19,0-.284a9.485,9.485,0,0,1-.085-1.124,5.2,5.2,0,0,1,.753-2.359,1.224,1.224,0,0,0,.169-.795,3.51,3.51,0,0,0-.387-1.336,1.316,1.316,0,0,0-.2-.29.583.583,0,0,0-.952.077c-.108.157-.217.313-.335.462a6.03,6.03,0,0,0-.765,1.381,2.09,2.09,0,0,0-.195.936c.02.4.043.807.078,1.21.029.326.078.649.12.992.1-.038.178-.073.261-.1s.187-.052.28-.078A.567.567,0,0,1,51,29c.09.147.167.3.247.456C51.348,29.655,51.448,29.854,51.55,30.052ZM61.957,21l.048.019c.271-.406.551-.806.812-1.219.627-.99,1.242-1.987,1.867-2.978a8.979,8.979,0,0,1,2.572-2.7,10.813,10.813,0,0,0,1.725-1.413c.046-.047.087-.1.131-.147a12.081,12.081,0,0,1-2.049.962c-.3.124-.609.244-.906.385A7.54,7.54,0,0,0,64.4,15.02a6.2,6.2,0,0,0-1.967,3.354c-.133.571-.214,1.155-.318,1.733C62.06,20.4,62.009,20.7,61.957,21Zm-1.444,7.062.037.025c.042-.04.087-.077.126-.119a9.966,9.966,0,0,1,1.786-1.509c.793-.517,1.593-1.021,2.38-1.548a18.422,18.422,0,0,0,2.127-1.64,14.99,14.99,0,0,0,2.211-2.705,1.928,1.928,0,0,0,.119-.233.412.412,0,0,0-.161.132,6.207,6.207,0,0,1-2.247,1.711c-.7.323-1.411.629-2.113.952a7.248,7.248,0,0,0-2.726,2.219,12.7,12.7,0,0,0-1.333,2.283ZM69.2,12.692l-.032-.024c-.06.061-.121.121-.18.183-.156.163-.3.34-.469.486-.481.418-.96.838-1.46,1.23a11.738,11.738,0,0,0-2.5,2.934q-1,1.529-1.986,3.061c-.116.179-.237.354-.355.532a.4.4,0,0,0,.211-.105c.214-.176.42-.366.644-.528.716-.52,1.445-1.021,2.158-1.546a8.538,8.538,0,0,0,2.253-2.456,14.793,14.793,0,0,0,1.383-2.908C68.967,13.26,69.088,12.978,69.2,12.692ZM55.764,12.1c.006.053,0,.074.01.084.063.077.127.153.192.228A9.8,9.8,0,0,1,57.3,14.3a12.456,12.456,0,0,1,1.213,3.777,15.317,15.317,0,0,0,1.16,4c.078.171.17.334.255.5a.238.238,0,0,0,.031-.169,9.265,9.265,0,0,1,.022-1.9c.053-.512.127-1.022.171-1.535a5.78,5.78,0,0,0-.081-1.867A6.641,6.641,0,0,0,57.9,13.531a17.013,17.013,0,0,0-1.782-1.237C56.01,12.224,55.893,12.17,55.764,12.1Zm3.89,10.472a.764.764,0,0,0-.02-.117,27.823,27.823,0,0,1-1.189-3.83c-.231-.9-.445-1.8-.708-2.687a10.811,10.811,0,0,0-2.17-3.853A.761.761,0,0,0,55.459,12c.144.357.294.671.4,1a10.061,10.061,0,0,1,.434,2.519,17.246,17.246,0,0,0,.236,2.525,6.452,6.452,0,0,0,2.511,4.048C59.238,22.24,59.43,22.4,59.653,22.571Zm-1.322,6.688c.042-.178.073-.3.1-.423a7.223,7.223,0,0,0-.269-4.121,9.378,9.378,0,0,0-1.032-1.95,10.5,10.5,0,0,0-1.971-2.292c-.669-.556-1.356-1.087-2.026-1.642a5.085,5.085,0,0,1-1.286-1.375c-.008-.014-.031-.019-.047-.028a4.629,4.629,0,0,0,.365.921,22.419,22.419,0,0,0,2.622,3.734A20.561,20.561,0,0,1,56.5,24.39,12.76,12.76,0,0,1,58.082,28.1C58.17,28.467,58.24,28.834,58.332,29.259Zm11.051-8.75-.054-.027c-.036.062-.072.123-.107.185a11.592,11.592,0,0,1-3.353,3.78c-1.011.723-2.048,1.405-3.086,2.084a10.837,10.837,0,0,0-2.41,2.136,1.71,1.71,0,0,0-.108.163,5.1,5.1,0,0,1,1.188-.5c.544-.156,1.091-.3,1.636-.45a9.1,9.1,0,0,0,1.837-.694,7.8,7.8,0,0,0,2.625-2.27,7.81,7.81,0,0,0,1.324-2.527C69.054,21.766,69.214,21.136,69.383,20.508Zm-4.071-1.316-.8.549c-.545.375-1.1.731-1.632,1.129A4.906,4.906,0,0,0,61.159,23.3c-.3.9-.548,1.825-.805,2.744-.269.961-.519,1.927-.781,2.89-.052.191-.119.378-.178.567l.067.038c.2-.357.487-.641.655-1.018.3-.667.576-1.345.9-2A8.041,8.041,0,0,1,63.1,23.834a1.075,1.075,0,0,0,.263-.3c.2-.36.377-.728.556-1.1.384-.787.763-1.577,1.145-2.365.035-.073.079-.142.12-.212a17.619,17.619,0,0,1-1.293,3.369c.2-.092.336-.151.415-.322.439-.954.891-1.9,1.331-2.856a4.428,4.428,0,0,0,.167-.517ZM56.078,42.076c.087-.457.159-.872.245-1.285a16.761,16.761,0,0,1,1.556-4.41.913.913,0,0,0,.111-.447c0-.239,0-.479,0-.718a.912.912,0,0,1,.624-.9,2.738,2.738,0,0,1,.645-.131A.266.266,0,0,0,59.522,34c.17-.413.358-.819.523-1.234q.814-2.052,1.615-4.109a1.055,1.055,0,0,0,.033-.166c-.207.058-.388.1-.562.16a2.758,2.758,0,0,0-1.724,1.358c-.113.229-.249.445-.361.674-.5,1.023-.894,2.1-1.308,3.158s-.815,2.134-1.2,3.208c-.212.583-.42,1.172-.573,1.773a15.911,15.911,0,0,0-.4,2.89c-.009.132,0,.266,0,.428Zm10.378-3.736c.089.032.179.068.27.1a2.508,2.508,0,0,1,1.133.734c.154.177.292.369.447.545a.4.4,0,0,0,.208.144,2.087,2.087,0,0,0,1.493-.342,1.4,1.4,0,0,0,.581-.8,3.378,3.378,0,0,1,.173-.578.96.96,0,0,0-.006-.873.887.887,0,0,1,.088-.936c.131-.2.255-.4.378-.6a.884.884,0,0,0,.107-.637.446.446,0,0,0-.448-.424,2.085,2.085,0,0,0-.577.043,5.035,5.035,0,0,1-1.283.158c-.194,0-.388.012-.582.028a1.467,1.467,0,0,0-.725.239,7.676,7.676,0,0,0-1.453,1.316c.163.17.15.247-.019.364a5.245,5.245,0,0,0-.453.368c-.022.02-.014.078-.023.142a1.4,1.4,0,0,0,.681-.242c.057-.041.1-.12.161-.136a.243.243,0,0,1,.206.043.145.145,0,0,1-.036.216c-.049.035-.117.086-.163.074-.243-.064-.4.134-.612.184a.734.734,0,0,0,.405-.007.834.834,0,0,1,.359,0,.2.2,0,0,1,.1.166.19.19,0,0,1-.133.133,1.257,1.257,0,0,1-.327-.066c-.048-.013-.091-.064-.137-.063-.154,0-.309.017-.52.032a1.486,1.486,0,0,0,.471.255C66.5,37.969,66.543,38.044,66.456,38.339Zm-7.151-3.517c-.314.114-.663.146-.872.475a1.227,1.227,0,0,0,.351.477,1.543,1.543,0,0,1,.387,1.422c-.066.352-.119.707-.162,1.062a1.745,1.745,0,0,0,1,1.747,1.724,1.724,0,0,0,1.573-.182c.486-.3.978-.585,1.465-.88.111-.067.215-.149.321-.223-.153-.247-.092-.384.166-.443A.54.54,0,0,0,63.9,37.7c-.17.134-.331.271-.5.392a.678.678,0,0,1-.257.1c-.033.006-.1-.049-.114-.09a.2.2,0,0,1,.04-.146c.066-.092.164-.084.265-.081a.353.353,0,0,0,.357-.354c-.22.081-.439.167-.661.242a.688.688,0,0,1-.233.032.2.2,0,0,1-.2-.184.205.205,0,0,1,.156-.226.367.367,0,0,1,.354.039c.051.033.1.07.166.117l.464-.32c-.263-.061-.492-.11-.718-.168a.327.327,0,0,1-.159-.087.188.188,0,0,1-.027-.148.118.118,0,0,1,.1-.064c.1.027.23.044.281.116.141.2.321.175.515.149-.216-.105-.334-.375-.612-.377a.213.213,0,0,1-.142-.112.241.241,0,0,1-.021-.194.183.183,0,0,1,.179-.05.783.783,0,0,1,.248.228.688.688,0,0,0,.538.357,1.693,1.693,0,0,0-.125-.147c-.2-.18-.409-.351-.6-.539a3.13,3.13,0,0,0-.9-.568c-.386-.178-.772-.36-1.141-.571a4.608,4.608,0,0,0-1.459-.626,1.77,1.77,0,0,0-1.062.12c-.234.106-.289.238-.242.571A.892.892,0,0,1,59.305,34.822ZM47.033,36.644a3.887,3.887,0,0,0,2.211-.8A3.774,3.774,0,0,0,50.3,34.85c.169-.279.323-.57.506-.84a3.18,3.18,0,0,0,.561-1.917c-.01-.357.04-.716.046-1.074a2.244,2.244,0,0,0-.042-.736,10.518,10.518,0,0,0-.549-1.252.393.393,0,0,0-.543-.182.951.951,0,0,0-.421.321,2.8,2.8,0,0,0-.541,2.2,6.3,6.3,0,0,1,.067.877.822.822,0,0,1-.26.644,1.8,1.8,0,0,0-.551.788.657.657,0,0,1-.514.472,1.352,1.352,0,0,0-.829.442,1.687,1.687,0,0,1-1.536.48c-.183-.026-.362-.083-.545-.109a.893.893,0,0,0-.948.33c-.129.181-.152.31,0,.461a1.938,1.938,0,0,0,.515.374A5.508,5.508,0,0,0,47.033,36.644Zm4.546-19.286c0,.23,0,.4,0,.576a12.656,12.656,0,0,0,.468,3.594,9.6,9.6,0,0,0,.929,2.335,14.688,14.688,0,0,0,2.682,3.25,13.855,13.855,0,0,1,1.558,1.611,3.713,3.713,0,0,1,.75,1.412,1.927,1.927,0,0,0,.069.2,5.827,5.827,0,0,0-.081-1.447,13.2,13.2,0,0,0-2.391-5.38c-.586-.794-1.207-1.56-1.808-2.342a16.4,16.4,0,0,1-1.706-2.655C51.875,18.16,51.751,17.785,51.579,17.358ZM64.11,38.034l-.644.818c-.174.22-.367.427-.519.662a4.991,4.991,0,0,0-.787,1.614,1.7,1.7,0,0,0,.321,1.577,2.379,2.379,0,0,1,.214.28.546.546,0,0,0,.447.255,2.107,2.107,0,0,0,.472-.026,1.606,1.606,0,0,0,.931-.593.523.523,0,0,1,.669-.152.5.5,0,0,0,.628-.12.615.615,0,0,1,.736-.122,2.684,2.684,0,0,0,.288.137,1.445,1.445,0,0,0,.513.092,1.607,1.607,0,0,0,1.173-.667.8.8,0,0,0,.148-.622,2.824,2.824,0,0,0-.332-.9A3.508,3.508,0,0,0,66.1,38.38a1.3,1.3,0,0,1,.1.257c.01.049-.032.149-.066.158a.2.2,0,0,1-.179-.052.841.841,0,0,1-.126-.321.653.653,0,0,0-.345-.477.928.928,0,0,0,.115.517.689.689,0,0,1,.071.2c.012.086-.009.176-.113.18s-.143-.066-.151-.159a.271.271,0,0,1,.015-.134c.092-.2.006-.35-.121-.526-.047.057-.1.095-.116.144a.327.327,0,0,0,.088.327.422.422,0,0,1,.068.415c-.019.091-.08.187-.18.163-.062-.014-.122-.092-.158-.157a.6.6,0,0,1-.042-.186c-.089.009-.2.048-.225.016a.621.621,0,0,1-.053-.252c0-.015.014-.033.02-.05.079-.244.079-.244-.2-.354.022.125.043.226.057.328a.9.9,0,0,1,.018.236c-.011.087-.064.162-.164.131a.149.149,0,0,1-.089-.221,1.621,1.621,0,0,0,.1-.19.582.582,0,0,0,.015-.267c-.013-.052-.1-.085-.191-.16,0,.242-.159.4-.041.624.032.06-.046.208-.105.289a.227.227,0,0,1-.2.055c-.091-.024-.1-.125-.071-.208a.506.506,0,0,1,.1-.191A.818.818,0,0,0,64.11,38.034Zm2-1.833c.3-.491.6-.966.879-1.455a1.894,1.894,0,0,0,.205-1.488,5.036,5.036,0,0,0-.332-.835,1.716,1.716,0,0,0-1.318-1.032.886.886,0,0,1-.606-.356.287.287,0,0,0-.421-.09,2.108,2.108,0,0,0-.275.211.287.287,0,0,1-.389.02c-.34-.225-.361-.222-.627.089l-.053.062a2.565,2.565,0,0,1-1.157.884.829.829,0,0,0-.144.07,1.09,1.09,0,0,0-.534,1.459,2.768,2.768,0,0,0,.771,1.1c.453.407.916.8,1.353,1.183.048-.039.109-.128.172-.129.12,0,.134.128.154.224.01.05-.019.108-.018.162a.318.318,0,0,0,.348.3c-.142-.2-.111-.457-.262-.655a.388.388,0,0,1,.017-.4c.067-.143.211-.141.289,0a.308.308,0,0,1,0,.341c-.19.24-.042.429.063.624.022.04.092.052.167.091a1.12,1.12,0,0,0-.057-.573.229.229,0,0,1,.086-.307.185.185,0,0,1,.164.019c.094.076.065.179.018.274-.012.024-.033.044-.043.069a.535.535,0,0,0,.082.513c.074-.333.3-.55.267-.867a.23.23,0,0,1,.012-.081.182.182,0,0,1,.243-.143.172.172,0,0,1,.1.264.858.858,0,0,1-.174.195c-.036.035-.1.051-.118.091-.07.184-.128.373-.194.571l.383.031c.068-.221.138-.447.208-.672a.394.394,0,0,1,.041-.1c.051-.076.122-.119.2-.061s.06.148.017.222c-.021.036-.071.051-.1.084a.649.649,0,0,0-.122.16,2.209,2.209,0,0,0-.079.263c-.061.2-.061.2.135.347a.835.835,0,0,0,.221-.452C65.728,36.149,65.814,36.1,66.113,36.2ZM44.554,34.342c-.444-.059-.847-.1-1.245-.168-.591-.1-1.179-.224-1.768-.341a1.551,1.551,0,0,0-1.16.268,4.447,4.447,0,0,0-.394.278,2.1,2.1,0,0,1-.652.356,1.167,1.167,0,0,0-.45.27,1.426,1.426,0,0,0-.4,1.046,2.674,2.674,0,0,0,.646,1.791,1.546,1.546,0,0,1,.363.694,1.175,1.175,0,0,0,1.364.914,3.539,3.539,0,0,0,1.111-.432c.4-.247.79-.52,1.171-.8a5.889,5.889,0,0,1,2.791-1.177c.217-.027.432-.076.648-.115a.294.294,0,0,0-.177-.086,6.547,6.547,0,0,1-1.838-.59,1.12,1.12,0,0,1-.349-.243.735.735,0,0,1-.2-.345,1.15,1.15,0,0,1,.4-1.2C44.452,34.425,44.492,34.392,44.554,34.342Zm2.335-2.062.02-.067a2.328,2.328,0,0,0-.251-.136c-.181-.072-.37-.124-.547-.2a1.252,1.252,0,0,1-.355-.225.129.129,0,0,1,.1-.224.52.52,0,0,1,.325.149c.21.285.55.327.807.522a.725.725,0,0,0-.175-.189,4.441,4.441,0,0,1-.989-1.031,3.3,3.3,0,0,0-1.085-1.032,4.137,4.137,0,0,0-1.443-.67,8.9,8.9,0,0,1-1.416-.328.98.98,0,0,0-1.194.327,2.11,2.11,0,0,1-.92.627,2.753,2.753,0,0,0-.448.232.548.548,0,0,0-.26.455c-.006.119-.006.238,0,.357.014.376.043.752.046,1.128a1.325,1.325,0,0,0,.887,1.3,3.12,3.12,0,0,0,.565.138,28.47,28.47,0,0,1,3.016.576,3.5,3.5,0,0,0,1.883.083c.158-.045.334-.023.47-.151a2.188,2.188,0,0,0-.3.039c-.071.01-.163.008-.143-.1.01-.051.086-.1.14-.128.019-.012.062.025.095.031.078.014.156.022.234.033l0-.053a1.3,1.3,0,0,0-.614-.022.577.577,0,0,1-.326-.051.15.15,0,0,1-.059-.13c.009-.041.068-.1.1-.1a1.371,1.371,0,0,1,.306.056.7.7,0,0,1,.139.068l.057-.3a3.333,3.333,0,0,1-.411-.116c-.047-.019-.066-.11-.1-.168a.552.552,0,0,1,.172-.092.242.242,0,0,1,.173.056,2.451,2.451,0,0,0,.83.334c.013.005.032-.009.054-.015v-.241a.6.6,0,0,1-.2.059A1.108,1.108,0,0,1,45.763,33c-.036-.016-.064-.109-.057-.161a.145.145,0,0,1,.116-.087,1.513,1.513,0,0,1,.324.09,2.567,2.567,0,0,1,.256.13c.062-.127.039-.2-.071-.233-.194-.057-.39-.11-.586-.164a1.428,1.428,0,0,1-.226-.062c-.081-.038-.174-.1-.115-.207.029-.05.132-.063.2-.074a.224.224,0,0,1,.122.044c.208.117.412.241.622.353.16.086.262.038.377-.168a.4.4,0,0,0-.311-.086.739.739,0,0,1-.366-.1.176.176,0,0,1-.066-.156.166.166,0,0,1,.141-.089,1,1,0,0,1,.336.132A.525.525,0,0,0,46.889,32.28ZM57.6,3.083l-.042,0c0,.073,0,.147.013.218a9.4,9.4,0,0,1,.08,1.625c-.009.781-.025,1.564.007,2.345a8.039,8.039,0,0,0,1.722,4.742,12.471,12.471,0,0,1,1.429,2.118c.009.019.04.027.1.065-.145-1.1-.308-2.162-.471-3.224a23.923,23.923,0,0,1,.76,3.318c.182-.757.351-1.476.528-2.194a6.206,6.206,0,0,0,.159-1.256A9.5,9.5,0,0,0,61.4,7.865a5.287,5.287,0,0,0-.619-1.337,12.255,12.255,0,0,0-1.755-2.2A11,11,0,0,1,57.8,2.954c-.011-.015-.035-.02-.082-.046L58.684,5.7l-.066.028c-.18-.435-.369-.866-.537-1.306S57.761,3.53,57.6,3.083ZM48.173,31.5l.05-.032c-.1-.326.071-.652-.032-.98a.265.265,0,0,1,.036-.184c.029-.049.093-.11.136-.105a.224.224,0,0,1,.16.11.4.4,0,0,1-.022.444c-.172.162-.126.345-.123.53a.414.414,0,0,0,.058.138c.043-.034.112-.059.126-.1.094-.286.191-.574.259-.867a2.265,2.265,0,0,1,.553-1.143.691.691,0,0,0,.2-.642c-.014-.119-.028-.238-.048-.355a6.236,6.236,0,0,1-.126-1.893,1.241,1.241,0,0,0-.125-.746,4.25,4.25,0,0,0-1.221-1.5,1.379,1.379,0,0,0-1.01-.336.833.833,0,0,1-.6-.172c-.079-.058-.164-.108-.248-.159a1.259,1.259,0,0,0-1.764.435c-.295.576-.583,1.158-.823,1.76a2.6,2.6,0,0,0-.091,1.78,3.374,3.374,0,0,0,.913,1.464,7.9,7.9,0,0,1,1.634,1.941,2.48,2.48,0,0,0,.26.336c.232-.1.373-.087.447.089.107.255.356.318.518.493.021.023.092,0,.176-.009l-.276-.4a.912.912,0,0,0-.351-.357.625.625,0,0,1-.216-.266.179.179,0,0,1,.043-.163.172.172,0,0,1,.166-.008.441.441,0,0,1,.173.2,6.517,6.517,0,0,0,.472.825c.057.121.143.108.254.046-.108-.2-.171-.407-.377-.521a.368.368,0,0,1-.141-.215.214.214,0,0,1,.068-.183.211.211,0,0,1,.188,0,.307.307,0,0,1,.139.3.642.642,0,0,0,.223.445.689.689,0,0,0-.035-.244c-.06-.211-.128-.42-.181-.632a.18.18,0,1,1,.339-.122.422.422,0,0,1,0,.488c-.1.128,0,.249.039.362C48.009,31.422,48.109,31.456,48.173,31.5Zm21.065-9.63c-.035.118-.061.2-.087.29-.1.315-.186.634-.293.945A8.026,8.026,0,0,1,67.5,25.432a7.476,7.476,0,0,1-2.572,2.078,10.912,10.912,0,0,1-2.441.8.386.386,0,0,0-.31.252c-.125.3-.262.6-.39.9q-.964,2.286-1.924,4.573a1.35,1.35,0,0,0-.046.179,3.559,3.559,0,0,1,.49.179c.376.2.738.431,1.113.635.48.261.968.509,1.452.762l.032-.053c-.179-.139-.354-.283-.537-.415a3.205,3.205,0,0,1-.881-.865,3.282,3.282,0,0,1-.363-.7,1.274,1.274,0,0,1,.792-1.723,2.7,2.7,0,0,0,1.074-.773c.1-.113.2-.231.315-.334a.367.367,0,0,1,.486-.048.96.96,0,0,1,.129.1.169.169,0,0,0,.259-.007,1.2,1.2,0,0,1,.118-.111.526.526,0,0,1,.816.079.666.666,0,0,0,.478.259,1.868,1.868,0,0,1,1.345.886,4.968,4.968,0,0,1,.309.578,2.32,2.32,0,0,1-.1,2.169c-.138.255-.308.493-.463.739-.059.094-.117.19-.176.284A3.136,3.136,0,0,0,67,35.461a2.455,2.455,0,0,1,1.094-.7,3.912,3.912,0,0,1,.788-.083,5.139,5.139,0,0,0,1.411-.187,1.492,1.492,0,0,1,1.894,1.442,2.952,2.952,0,0,1-.129.979,2.892,2.892,0,0,0-.14.9c.071-.026.121-.041.17-.061.639-.265,1.283-.518,1.915-.8.745-.334,1.492-.667,2.214-1.049,1.055-.558,2.107-1.118,3.207-1.575.218-.091.432-.191.728-.322a1.785,1.785,0,0,1-.184-.108,13.073,13.073,0,0,1-2.267-2.46c-.833-1.129-1.637-2.28-2.447-3.427a24.438,24.438,0,0,0-2.374-2.886c-1.014-1.051-2.141-1.97-3.228-2.934C69.527,22.084,69.389,21.99,69.237,21.873ZM25.53,67.739l.077-.109c.413-.584.82-1.173,1.241-1.751.314-.432.669-.834.963-1.28.566-.856,1.088-1.742,1.653-2.6.645-.977,1.318-1.935,1.979-2.9.333-.487.693-.956.995-1.463.582-.976,1.141-1.968,1.693-2.964.384-.692.742-1.4,1.109-2.1.154-.3.3-.6.478-.952-.172.02-.291.029-.408.049s-.259.058-.389.079a7.384,7.384,0,0,0-2.711.966,14.057,14.057,0,0,1-1.543.85,7.121,7.121,0,0,1-2.984.644,4.078,4.078,0,0,1-2.517-.779.281.281,0,0,0-.34-.017,3,3,0,0,1-1.992.225,13.835,13.835,0,0,1-3.349-1.185,1.73,1.73,0,0,0-.917-.189,6.39,6.39,0,0,1-1.478-.045c-.111-.017-.225-.022-.333-.032a4.55,4.55,0,0,1-1.51,1.386c-.265.165-.531.33-.786.511a3.4,3.4,0,0,0-.829.763c-.135.186-.132.218,0,.411.267.389.546.769.8,1.168.207.33.374.687.573,1.023a5.475,5.475,0,0,0,1.337,1.617,19.447,19.447,0,0,1,2.515,2.32c.158.173.326.337.491.5a15.958,15.958,0,0,1,1.683,1.753,4.973,4.973,0,0,0,1.508,1.324c.414.245.829.492,1.223.77A5.015,5.015,0,0,1,25.53,67.739ZM36.19,51.064l.452-.687a1.406,1.406,0,0,1-.2.8c-.056.094-.116.185-.169.281-.714,1.281-1.437,2.557-2.137,3.846a48.975,48.975,0,0,1-3.193,5.01Q29.882,61.8,28.89,63.34c-.5.779-1,1.562-1.56,2.3q-.72.936-1.41,1.9a5.21,5.21,0,0,0-.69,1.425,1.23,1.23,0,0,0,.021.986,1.99,1.99,0,0,1,.7-.963,3.051,3.051,0,0,1,.55-.427.639.639,0,0,1,.935.2c.064.081.124.167.206.277.054-.071.089-.125.132-.171q.994-1.053,1.989-2.1c.358-.381.72-.76,1.065-1.154.768-.877,1.521-1.767,2.29-2.642A24.421,24.421,0,0,0,35.849,59.3a1.033,1.033,0,0,1,.125-.141c.022.048.046.076.041.094a6.777,6.777,0,0,1-.376,1.174,8.2,8.2,0,0,1-1.255,1.84c-.457.486-.93.957-1.377,1.453q-1.179,1.308-2.334,2.64c-.948,1.1-1.991,2.089-3.029,3.088a6.431,6.431,0,0,0-1.42,1.945,9.5,9.5,0,0,0-.368.945.62.62,0,0,0,.022.535c.245-.227.466-.452.707-.65a9.04,9.04,0,0,1,.82-.6.461.461,0,0,1,.587.073.98.98,0,0,1,.378.582l1.064-.878c.207-.171.419-.337.62-.516.242-.214.47-.445.712-.658.29-.256.588-.5.883-.75.507-.429.991-.894,1.528-1.278a7.318,7.318,0,0,0,1.347-1.318c.728-.875,1.4-1.8,2.105-2.7a5.548,5.548,0,0,1,1.892-1.771c.056-.026.1-.073.157-.1a.786.786,0,0,1,.13-.043,2.5,2.5,0,0,1-.288.325c-.347.4-.684.818-1.031,1.224s-.715.84-1.087,1.245-.789.818-1.176,1.234-.764.843-1.144,1.265c-.054.06-.1.126-.162.182-.161.156-.32.315-.49.459s-.386.291-.572.446q-.878.735-1.749,1.478a8.5,8.5,0,0,0-1.4,1.424,5.272,5.272,0,0,0-.835,1.5.6.6,0,0,0-.032.4c.06-.037.088-.1.131-.141a4.509,4.509,0,0,1,1.346-.963c.4-.187.682-.032.978.314a.417.417,0,0,1,.06.419l-.057.155c.681-.573,1.329-1.169,1.979-1.764.351-.322.7-.652,1.058-.958.838-.705,1.707-1.371,2.523-2.1.782-.7,1.516-1.462,2.265-2.2A21.244,21.244,0,0,1,42,63.671a6.025,6.025,0,0,1,.721-.4.219.219,0,0,1,.265,0c-.034.03-.055.065-.081.07-.294.063-.421.3-.55.546-.343.664-.7,1.318-1.054,1.979a6.348,6.348,0,0,1-1.633,1.967c-1.167.954-2.308,1.941-3.444,2.935a4.429,4.429,0,0,0-.649.793.984.984,0,0,0-.174.656c.341-.214.662-.423.99-.617a1.952,1.952,0,0,1,.414-.177.375.375,0,0,1,.448.15c.1.153.186.324.292.513.37-.189.772-.394,1.173-.6a1.424,1.424,0,0,0,.131-.093c.644-.435,1.287-.871,1.933-1.3a6.5,6.5,0,0,0,1.8-1.523c.3-.419.6-.841.9-1.262.549-.767,1.084-1.546,1.651-2.3a29.68,29.68,0,0,0,2.476-3.778c.536-.994,1.11-1.967,1.7-2.928a13.837,13.837,0,0,0,1.642-3.6,4.384,4.384,0,0,1,1-1.763.869.869,0,0,1,.123-.1c-.147.353-.361.653-.482,1.007a19.971,19.971,0,0,1,5.83-2.337c.009-.074.018-.136.022-.2,0-.014-.016-.03-.029-.053a.745.745,0,0,0-.149,0,10.783,10.783,0,0,0-2.085.608c-.768.325-1.527.673-2.291,1.009a.943.943,0,0,1-.176.04l-.016-.059a15.865,15.865,0,0,1,1.471-.851,6.725,6.725,0,0,1,1.613-.612c.55-.123,1.107-.21,1.665-.313a.327.327,0,0,0-.083-.4c-.155-.151-.307-.305-.473-.441a4.161,4.161,0,0,1-1.5-2.613,8.554,8.554,0,0,1-.03-2.312,7.69,7.69,0,0,0,.081-1.707,1.316,1.316,0,0,0-.166-.636l-4.022.3a10.316,10.316,0,0,1,1.5-.3c.895-.1,1.792-.184,2.689-.241,1.244-.08,2.473-.271,3.7-.46.312-.048.625-.09.938-.135a13.278,13.278,0,0,1-2.277.573c-.782.1-1.564.2-2.365.3a3.773,3.773,0,0,0,.679.763,3.942,3.942,0,0,1,1.316,2.178,6.157,6.157,0,0,1,.133,1.508c-.02.708-.044,1.417-.06,2.126a2.715,2.715,0,0,0,.042.374.636.636,0,0,0,.1-.26c.142-.645.266-1.295.431-1.933a19.17,19.17,0,0,1,1.539-3.982c.246-.478.509-.946.756-1.424a1.278,1.278,0,0,0,.065-.305c.2-.112.2-.113.262-.352-.228.045-.452.094-.677.133-1.018.177-2.032.39-3.056.517-1.208.149-2.426.222-3.639.329a16.233,16.233,0,0,0-2.409.343c-.455.111-.905.251-1.366.323-.645.1-1.3.153-1.946.222-.421.045-.844.075-1.264.125-.8.094-1.6.171-2.39.3a22.68,22.68,0,0,0-3.179.838,21.254,21.254,0,0,0-3.711,1.528q-1.089.6-2.182,1.185-1.176.632-2.357,1.256a7.643,7.643,0,0,1-1.715.715A11.259,11.259,0,0,0,29.4,50c-.717.284-1.424.6-2.134.9-.054.023-.105.052-.15.074.1.22.189.418.267.621a.566.566,0,0,1-.245.8,2.668,2.668,0,0,1-.6.286c-.475.157-.958.29-1.457.438a2.273,2.273,0,0,0,.8.474,5.7,5.7,0,0,0,2.692.23,5.85,5.85,0,0,0,2.1-.625c.349-.2.7-.394,1.042-.6a9.19,9.19,0,0,1,3.247-1.117c.33-.057.655-.145.98-.227.1-.025.21-.054.245-.183Zm6.376-11.739-.006-.006c0,.106.075.078.133.079a4.018,4.018,0,0,0,1.9-.52,8.65,8.65,0,0,0,1.77-1.341.651.651,0,0,0,.068-.106l-2.083.72a17.426,17.426,0,0,1,2.172-.959,2.976,2.976,0,0,0-.341.037,6.005,6.005,0,0,0-2.853,1.224,6.255,6.255,0,0,1-1.446.9c-.012.005-.018.028-.038.059a.543.543,0,0,0,.1.005C42.151,39.391,42.358,39.357,42.565,39.325ZM58.3,35.833l-.094-.023c-.008.091-.014.18-.024.269-.04.347-.064.7-.128,1.039a1.86,1.86,0,0,0-.021.738,2.57,2.57,0,0,0,.619,1.2,5.569,5.569,0,0,1,.12-2.156c0,.239,0,.478-.03.715a3.993,3.993,0,0,0-.019,1.018.584.584,0,0,0,.168.386c-.012-.067-.016-.112-.028-.154a1.662,1.662,0,0,1-.043-.764c.068-.37.116-.745.187-1.115a1.091,1.091,0,0,0-.117-.746,3.8,3.8,0,0,0-.344-.452c-.11-.143-.216-.289-.325-.434l-.047.023.118.466ZM46.172,34.561c-.128.017-.256.044-.385.048-.274.008-.547,0-.821.008a.822.822,0,0,0-.564.216,2.2,2.2,0,0,1,1.3.022.789.789,0,0,0,.078.015,1.543,1.543,0,0,0,1.284-.37,1.6,1.6,0,0,1,.267-.225,1.831,1.831,0,0,1,.546-.257.608.608,0,0,0,.527-.469,1.435,1.435,0,0,1,.477-.744.669.669,0,0,0,.255-.525,4.978,4.978,0,0,0-.034-.713,3.04,3.04,0,0,1,.314-1.948,1.269,1.269,0,0,0,.054-.123.142.142,0,0,0-.1.067,2.8,2.8,0,0,0-.432,2.071,1.124,1.124,0,0,1-.1.9,4.089,4.089,0,0,1-.4.427c.07-.092.146-.179.208-.276a1.222,1.222,0,0,0,.208-.374,1.487,1.487,0,0,0-.087-.856c-.022.009-.033.01-.035.015a2.345,2.345,0,0,0-.109.25,3.152,3.152,0,0,1-.854,1.244,7.591,7.591,0,0,1-1.436,1.077,1.693,1.693,0,0,1-.724.244,1.759,1.759,0,0,0-.74.2ZM.2,41.933c-.015.377-.048.744-.042,1.11A8.675,8.675,0,0,0,1,46.443c.42.942.9,1.856,1.328,2.792.309.67.588,1.356.877,2.037.436,1.026.839,2.068,1.31,3.076A26.267,26.267,0,0,1,6.54,60.6c.118.623.275,1.237.4,1.857.159.764.3,1.533.465,2.3.189.87.406,1.734.593,2.6q.2.915.345,1.842c.153.946.419,1.862.655,2.787.145.569.268,1.144.4,1.717.029.124.055.248.083.377L9.8,74.1l.008.037-.3.14a.416.416,0,0,0,.1.028c.36-.041.478.01.57.366.1.38.146.774.211,1.163.017.1.016.2.025.314.136-.013.168-.129.216-.219a3.936,3.936,0,0,0,.41-1.529,6.984,6.984,0,0,0-.114-1.648,12.687,12.687,0,0,1-.139-1.289,12.452,12.452,0,0,0-.295-2.073c-.037-.17-.084-.34-.106-.512A6.224,6.224,0,0,0,9.8,67.2c-.331-.763-.679-1.517-1.017-2.276-.038-.086-.061-.18-.09-.27l.059-.029a1.235,1.235,0,0,1,.113.165q.575,1.2,1.144,2.4c.261.553.521,1.107.77,1.666A4.919,4.919,0,0,0,12.253,70.7c1.111.893,2.2,1.813,3.3,2.72.124.1.248.208.381.3.489.33.981.655,1.472.98.073.048.15.089.213.125.029-.01.041-.01.045-.017.26-.359.552-.326.91-.1.294.186.573.4.859.6.049.034.1.062.171.105a1.475,1.475,0,0,0-.077-.911,3.6,3.6,0,0,0-.414-.732c-.245-.325-.525-.622-.8-.925a4.647,4.647,0,0,0-1.326-.946q-1.551-.836-3.1-1.675a2.728,2.728,0,0,1-.569-.441,6.677,6.677,0,0,1-1.271-2.049c-.548-1.124-1.06-2.266-1.586-3.4a.254.254,0,0,1-.018-.193c.149.265.308.525.445.8.434.864.855,1.735,1.291,2.6.255.5.507,1.013.8,1.49a2.84,2.84,0,0,0,1.071,1.039c1.186.632,2.365,1.277,3.546,1.92.211.115.422.232.625.36a9.176,9.176,0,0,0,2.158.813c.107.035.217.06.327.09a.638.638,0,0,0,.038-.087c.09-.373.218-.479.581-.429a2.28,2.28,0,0,1,.56.153c.351.146.693.313,1.067.485a1.95,1.95,0,0,0-.266-.723,3.113,3.113,0,0,0-.7-.854,5.956,5.956,0,0,0-1.144-.791c-.655-.339-1.306-.687-1.946-1.055a3.211,3.211,0,0,1-.628-.5,19.6,19.6,0,0,0-2-1.677,3.232,3.232,0,0,1-1.049-1.291c-.647-1.462-1.288-2.927-1.94-4.388-.171-.383-.366-.755-.563-1.125a.984.984,0,0,0-.247-.28c-.77-.631-1.551-1.248-2.314-1.887A6.061,6.061,0,0,1,8.691,57.1c-.022-.04-.043-.081-.062-.122,0,0,.007-.014.014-.027a.234.234,0,0,1,.059.042,12.57,12.57,0,0,0,2.278,2.175c.991.8,1.987,1.593,2.962,2.413.906.762,1.776,1.572,2.685,2.331.86.719,1.743,1.41,2.629,2.1.595.46,1.2.907,1.821,1.329a12.246,12.246,0,0,0,1.87.92c.09-.172.166-.334.256-.488a.457.457,0,0,1,.6-.249,1.707,1.707,0,0,1,.341.147c.358.2.712.4,1.076.606a.541.541,0,0,0-.04-.535A3.926,3.926,0,0,0,24.133,66.4a7.1,7.1,0,0,0-1.431-.989,5.582,5.582,0,0,1-1.4-1.074c-.9-.913-1.8-1.82-2.691-2.737-.453-.465-.876-.961-1.336-1.418a4.577,4.577,0,0,0-.837-.67,5.031,5.031,0,0,1-1.9-2.167,9.909,9.909,0,0,0-1.048-1.755,2.549,2.549,0,0,1-.512-1.139c-.022-.125-.024-.253-.039-.418.178.1.147.3.276.4a2.5,2.5,0,0,1,1.2-.81,5.557,5.557,0,0,0,1.947-1.4,1.085,1.085,0,0,0,.066-.086c0-.006,0-.018.007-.051l-.675-.224.015-.06a16.346,16.346,0,0,0,2.661.221l-.054-.143c.179-.09.365.174.556-.014a5.5,5.5,0,0,0,1.61.779,11.427,11.427,0,0,0,2.384.722,3.311,3.311,0,0,0,1.773-.172c-.149-.061-.243-.1-.338-.138a6.083,6.083,0,0,1-1.481-.785,1.394,1.394,0,0,1-.219-.2.73.73,0,0,1-.105-.935,1.263,1.263,0,0,1,.627-.653c-.161-.12-.307-.234-.458-.343-.451-.323-.9-.646-1.355-.963a3.1,3.1,0,0,0-1.256-.484c-1-.178-2-.338-3-.537a12.608,12.608,0,0,1-1.375-.394c-.825-.265-1.647-.544-2.469-.818a.829.829,0,0,1-.251-.131c.285-.062.541.09.833.055-.2-.108-.391-.224-.593-.322a20.019,20.019,0,0,0-3.588-1.316,16.716,16.716,0,0,1-3.065-1.121c-.079-.039-.155-.086-.234-.13.04-.108.118-.074.178-.058.427.113.856.221,1.279.35,1.041.318,2.083.632,3.116.975.621.206,1.226.464,1.838.7.082.032.161.071.267.119a27.648,27.648,0,0,1,7.345-11.008,1.569,1.569,0,0,0-.129-.127,10.429,10.429,0,0,1-3.248-4.24,9.015,9.015,0,0,1-.761-3.471,10.286,10.286,0,0,1,.254-2.3,9.206,9.206,0,0,1,.951-2.594,15.5,15.5,0,0,1,.92-1.515,12.162,12.162,0,0,0,1.325-2.383.516.516,0,0,1,.142-.21,1.787,1.787,0,0,1-.061.3c-.184.477-.348.966-.572,1.423-.438.892-.926,1.758-1.366,2.649a10.281,10.281,0,0,0-1.058,3.365,7.752,7.752,0,0,0,.447,3.792A12.485,12.485,0,0,0,18.7,32.474,11.533,11.533,0,0,0,20.38,34.3c.139.126.282.248.449.394a11.367,11.367,0,0,1,2.873-1.9,1.79,1.79,0,0,1-.137.125c-.5.374-1.02.729-1.507,1.124a24.181,24.181,0,0,0-2.674,2.591,32.928,32.928,0,0,0-2.808,3.556A25.153,25.153,0,0,0,14.4,44a14.589,14.589,0,0,0-.808,2.215,1.041,1.041,0,0,0-.016.122c.059.038.116.079.176.113.425.244.848.493,1.278.726.179.1.377.154.562.238a10.07,10.07,0,0,0,2.8.778c.49.067.98.133,1.472.178a4.232,4.232,0,0,1,2.2.937c.983.749,1.977,1.482,2.967,2.222a.374.374,0,0,0,.069.037c.513-.208,1.008-.4,1.5-.607.892-.374,1.78-.757,2.673-1.13.507-.213,1.014-.429,1.529-.617a18.226,18.226,0,0,0,2.255-1.087c1.557-.826,3.107-1.667,4.681-2.456a23.535,23.535,0,0,1,4.429-1.648,21.38,21.38,0,0,1,3.249-.631c.631-.069,1.266-.108,1.9-.147a14.823,14.823,0,0,0,2.542-.354,25.856,25.856,0,0,1,4.031-.6c.042,0,.083-.013.152-.024a1.283,1.283,0,0,0-.409-.473c-.4-.28-.81-.559-1.231-.809a3.845,3.845,0,0,0-1.546-.446A4.374,4.374,0,0,1,49.166,40c-.115-.066-.225-.145-.339-.214q-.492-.295-.987-.585c-.079-.046-.16-.089-.24-.133L47.615,39c.163-.015.326-.023.488-.048a10.462,10.462,0,0,0,1.2-.209,3.213,3.213,0,0,1,3.518,1.178,6.218,6.218,0,0,1,.855,1.357.671.671,0,0,0,.178.243c-.073-.261-.141-.524-.218-.784a11.549,11.549,0,0,0-2.568-4.612.6.6,0,0,0-.427-.234.809.809,0,0,1-.392-.151.5.5,0,0,0-.738.1,2.745,2.745,0,0,1-.548.432,3.089,3.089,0,0,1-.687.348A4.425,4.425,0,0,0,46.536,37.7a10.088,10.088,0,0,1-1.126.957,5.3,5.3,0,0,1-2.881.971c-.609.027-1.217.041-1.826.058a1.519,1.519,0,0,1-1.133-.449.876.876,0,0,1-.3-.565,1.14,1.14,0,0,0-.258-.625,4.2,4.2,0,0,1-.724-1.43c-.013-.042-.03-.083-.051-.142a9.033,9.033,0,0,1-4.13-.5,12.655,12.655,0,0,0,4.074.181c.009-.091.018-.177.029-.29a12.1,12.1,0,0,1-8.225-2.1,11.205,11.205,0,0,1-2.606-2.443c.122,0,.195.092.278.159.485.383.963.778,1.453,1.153A13.4,13.4,0,0,0,31.37,34a12.71,12.71,0,0,0,3.372,1.108,10.756,10.756,0,0,0,2.925.139c.105-.01.212-.008.318-.015a.672.672,0,0,0,.6-.307,1.232,1.232,0,0,1,.721-.482,3.648,3.648,0,0,0,.571-.274c.2-.107.4-.224.606-.336.052-.029.1-.055.212-.112-.19-.04-.323-.067-.456-.1a1.773,1.773,0,0,1-.889-.453,1.6,1.6,0,0,1-.487-1.208,4.273,4.273,0,0,0-.06-1.043,1.329,1.329,0,0,1-.016-.22,1.023,1.023,0,0,1,.612-1.058.744.744,0,0,1,.1-.041,2.778,2.778,0,0,0,1.2-.768.979.979,0,0,1,1.058-.261c.592.184,1.19.327,1.791.47a4.311,4.311,0,0,1,.776.346.689.689,0,0,0,.262.088c-.1-.095-.187-.2-.288-.284a3.5,3.5,0,0,1-1.052-1.654,3.032,3.032,0,0,1,.223-2.193c.2-.441.447-.859.627-1.308a1.555,1.555,0,0,1,2.3-.712,1.2,1.2,0,0,0,.794.234,1.56,1.56,0,0,1,.987.352,3.753,3.753,0,0,1,1.341,1.735.386.386,0,0,0,.058.075c.088-.171.161-.336.254-.488.231-.38.47-.755.709-1.13.063-.1.141-.189.206-.287a.769.769,0,0,1,1.25-.1,2.437,2.437,0,0,1,.543,1.09,2.209,2.209,0,0,1,.079.544,6.319,6.319,0,0,0,.281,1.625c.047.187.1.372.144.56a3.014,3.014,0,0,1-.347,2.1,10.611,10.611,0,0,1-.831,1.243,1.245,1.245,0,0,0-.251.819c.011.266-.008.533-.014.8a2.958,2.958,0,0,1-.7,1.723c-.092.123-.193.238-.3.375.1.145.19.289.29.425a.849.849,0,0,1,.2.556.28.28,0,0,0,.108.236A9.951,9.951,0,0,1,53,38.354a10.673,10.673,0,0,1,.831,1.937c.172.55.292,1.118.435,1.678.022.087.043.175.069.281l.761-.058c.006-.073.01-.134.016-.2.048-.485.087-.971.149-1.453a1.073,1.073,0,0,0-.078-.612,3.066,3.066,0,0,0-.772-1.067,5.2,5.2,0,0,1-1.633-3.02,9.664,9.664,0,0,1,.309-4.685c.22-.728.423-1.462.621-2.2a4.045,4.045,0,0,0,.071-1.644.409.409,0,0,1,.022-.224l.323.549a17.289,17.289,0,0,1,1.157,2.23,8.556,8.556,0,0,1,.589,3.969,16.727,16.727,0,0,1-.352,2.175c-.115.539-.229,1.078-.325,1.621a3.65,3.65,0,0,0,.081,1.8.549.549,0,0,0,.13.224c.045-.172.093-.343.135-.516a24.764,24.764,0,0,1,.853-2.727q.511-1.392,1.023-2.782c.1-.266.2-.53.307-.793a3.666,3.666,0,0,0-.488-3.715,10.948,10.948,0,0,0-1.666-1.77,15.3,15.3,0,0,1-2.45-2.736,9.4,9.4,0,0,1-1.251-2.783,13.467,13.467,0,0,1-.454-4.4,9.1,9.1,0,0,1,.048-.916c.066.131.125.266.2.393s.169.237.241.363a3.657,3.657,0,0,0,.983,1.069c.758.587,1.516,1.174,2.28,1.753a8.3,8.3,0,0,1,1.69,1.776,13.22,13.22,0,0,1,1.324,2.16,7.237,7.237,0,0,1,.671,2.734,8.346,8.346,0,0,1-.444,2.787,1.258,1.258,0,0,0-.056.267c-.03.477-.055.954-.08,1.432,0,.025,0,.05.013.142.1-.239.17-.422.242-.606a31.913,31.913,0,0,0,1.13-3.5c.228-.878.435-1.763.646-2.646A5.53,5.53,0,0,0,60.411,24a.491.491,0,0,0-.057-.255c-.073-.146-.176-.276-.248-.423a2.112,2.112,0,0,0-.687-.751c-.374-.277-.756-.544-1.11-.847a5.835,5.835,0,0,1-1.651-2.46,9.826,9.826,0,0,1-.542-3.192,12.758,12.758,0,0,0-.4-3.03,4.579,4.579,0,0,0-.539-1.314.378.378,0,0,1-.017-.106,1.757,1.757,0,0,1,.23.09c.626.359,1.261.7,1.873,1.085a6.513,6.513,0,0,1,2.784,3.559,6.768,6.768,0,0,1,.276,2.886c-.081.805-.176,1.61-.227,2.417a6.679,6.679,0,0,0,.071,1.1,1.418,1.418,0,0,0,.32.735c.029-.105.057-.184.071-.265.2-1.215.359-2.435.441-3.666.079-1.185.082-2.371.05-3.558a.6.6,0,0,0-.19-.433c-.3-.308-.6-.624-.9-.94a.554.554,0,0,1-.142-.268l1.166,1.047a2.113,2.113,0,0,0-.158-.986,9.139,9.139,0,0,0-1.208-1.706,8.869,8.869,0,0,1-1.222-1.7,8.4,8.4,0,0,1-.987-3.771c-.008-.819,0-1.64.057-2.456A9.107,9.107,0,0,0,57.32,2.49a2.067,2.067,0,0,1-.043-.532.709.709,0,0,1,.123.119,9.348,9.348,0,0,0,1.538,1.853,12.387,12.387,0,0,1,1.45,1.606A8.407,8.407,0,0,1,61.916,8.9a7.606,7.606,0,0,1,.142,2.767c-.086.543-.247,1.073-.37,1.61-.126.555-.262,1.107-.361,1.667a2.729,2.729,0,0,0,.022.686.307.307,0,0,0,.091.19c.4.347.806.686,1.211,1.026.011.01.032.007.065.013.072-.149.142-.306.222-.456a6.043,6.043,0,0,1,2.533-2.509,11.872,11.872,0,0,1,1.787-.757A8.042,8.042,0,0,0,69.7,11.851a1.329,1.329,0,0,1,.138-.082c0,.056.006.095-.008.117a8.081,8.081,0,0,0-.878,2.151,10.652,10.652,0,0,1-1.159,2.5,8.614,8.614,0,0,1-2.059,2.312c-.04.031-.075.069-.135.126l2.841,1.891a7.187,7.187,0,0,0,1.066-1.052,7.524,7.524,0,0,1-.2,1.757c.283.217.565.422.834.642a34.31,34.31,0,0,1,2.8,2.49,22.678,22.678,0,0,1,2.072,2.431c.709.961,1.391,1.945,2.086,2.917a19.241,19.241,0,0,0,2.551,3.051,6.464,6.464,0,0,0,.856.592.4.4,0,0,0,.38.022,7.7,7.7,0,0,1,2.4-.5c.856-.032,1.712-.04,2.568-.056a.679.679,0,0,1,.288.055l-1.15.131a19.557,19.557,0,0,0-3.208.528,20.622,20.622,0,0,0-3.747,1.5c-.76.389-1.543.731-2.3,1.134a29.473,29.473,0,0,1-3.4,1.532c-.347.132-.576.276-.612.692a1.073,1.073,0,0,1-.361.63,2.863,2.863,0,0,1-1.524.833,2.147,2.147,0,0,1-1.07-.087c-.074-.023-.147-.049-.266-.089.056.126.1.21.132.3.072.187.15.373.207.565a1.7,1.7,0,0,1-.273,1.465A2.581,2.581,0,0,1,66.692,43.6a5.249,5.249,0,0,0-.8.176,4.561,4.561,0,0,1-1.6.173c-.272-.02-.545-.046-.815-.085a1.054,1.054,0,0,1-.693-.42c-.173-.221-.344-.445-.526-.656a1.757,1.757,0,0,1-.4-1.057c-.007-.088-.016-.177-.026-.276-.228.093-.442.173-.648.267-.051.023-.086.09-.12.142a18.865,18.865,0,0,0-2.1,4.167c-.257.734-.466,1.485-.694,2.23-.026.086-.038.177-.068.321a1.546,1.546,0,0,0,.15-.156c.442-.644.9-1.278,1.316-1.937a3.574,3.574,0,0,1,1.474-1.3,3.421,3.421,0,0,1,1.544-.325,7.593,7.593,0,0,0,1.608-.067c.015,0,.033.009.049.014s.011.042,0,.052c-.348.451-.683.914-1.051,1.345a2.448,2.448,0,0,1-1.083.72c-.544.186-1.092.362-1.645.518a6.392,6.392,0,0,0-1.582.687,2.036,2.036,0,0,0-1.01,1.535c-.053.383-.114.764-.163,1.147-.025.2-.032.4-.05.633.368-.072.711-.147,1.057-.2a.483.483,0,0,0,.342-.256,4.633,4.633,0,0,1,2.982-2.109,9.366,9.366,0,0,1,2.951-.027c.348.037.7.068,1.068.1a.426.426,0,0,1-.255.2c-.476.193-.951.389-1.435.56a4.711,4.711,0,0,0-1.285.569c-.112.083-.216.176-.324.264l.019.053c.091-.006.182-.008.273-.018,1.079-.123,2.16-.232,3.236-.377.927-.125,1.849-.287,2.772-.443,1.045-.176,2.09-.355,3.132-.547.946-.174,1.891-.354,2.832-.556q1.827-.392,3.645-.827c.661-.158,1.31-.376,1.97-.541.848-.212,1.7-.39,2.554-.6,1.142-.279,2.287-.545,3.419-.864,1.567-.441,3.138-.856,4.728-1.2.768-.165,1.535-.346,2.29-.566a8.267,8.267,0,0,0,2.028-.933,2.814,2.814,0,0,0,1.336-2.17c.091-.731.17-1.462.252-2.194.025-.219.044-.439.064-.659a6.7,6.7,0,0,0-.289-2.451,24.263,24.263,0,0,0-.837-2.413,18.852,18.852,0,0,0-1.083-2.179c-.435-.769-.856-1.547-1.31-2.3-.463-.772-.948-1.53-1.441-2.282q-1.837-2.8-3.691-5.6c-.225-.34-.455-.677-.682-1.015l.037-.039c.065.073.132.143.194.218A35.4,35.4,0,0,1,90.4,22.968c.934,1.408,1.873,2.812,2.795,4.228a35.754,35.754,0,0,1,1.856,3.184c.487.949.993,1.89,1.426,2.866a14.434,14.434,0,0,1,1,2.67,6.873,6.873,0,0,1,.142,2.49c-.111.792-.181,1.59-.273,2.386a4.631,4.631,0,0,1-.457,1.49,3.048,3.048,0,0,1-1.343,1.288,10.555,10.555,0,0,1-2.983,1.1c-1.1.242-2.194.475-3.285.739-.781.189-1.553.416-2.326.642-1.4.41-2.822.736-4.246,1.048q-3.236.71-6.441,1.558c-1.4.369-2.816.686-4.247.915-1.3.207-2.6.428-3.9.615-1.214.175-2.434.31-3.651.465-.578.074-1.155.153-1.732.231a.9.9,0,0,0-.494.231,8.875,8.875,0,0,1-1.9,1.194c-.412.21-.818.433-1.214.674a4.5,4.5,0,0,0-1.2,1.114.983.983,0,0,0-.213.717,20.481,20.481,0,0,0,.913,4.893c.3.875.635,1.736.981,2.592.315.78.665,1.544,1,2.317a5.2,5.2,0,0,1,.294.832,2.961,2.961,0,0,1-.165-.247,30.478,30.478,0,0,1-1.53-3.183c-.3-.756-.605-1.512-.875-2.28a26.694,26.694,0,0,1-.984-3.52c-.248-1.224-.478-2.453-.714-3.68-.031-.16-.049-.322-.078-.515-.419.139-.817.252-1.2.4-.874.345-1.747.694-2.608,1.071a9.869,9.869,0,0,0-1.071.6.853.853,0,0,0-.4.556,11,11,0,0,1-1.14,2.811q-1.221,2.166-2.468,4.315a36.189,36.189,0,0,1-2.789,4.056c-.533.685-1.032,1.4-1.538,2.107A7.7,7.7,0,0,1,42.3,69.222a4.825,4.825,0,0,1-.509.4c-.8.549-1.61,1.1-2.421,1.635-.91.6-1.911,1.031-2.845,1.588a2.362,2.362,0,0,1-.5.179.463.463,0,0,1-.506-.148,1.018,1.018,0,0,1-.3-.821,2.012,2.012,0,0,1,.711-1.345c.719-.665,1.459-1.308,2.2-1.945.525-.45,1.07-.874,1.606-1.31a5.83,5.83,0,0,0,1.306-1.619c.271-.462.492-.956.733-1.437a.3.3,0,0,0,.021-.189c-.135.087-.275.169-.405.264a18.131,18.131,0,0,0-2.451,2.23q-.687.728-1.37,1.46a14.443,14.443,0,0,1-2.312,1.971,18.347,18.347,0,0,0-1.981,1.61c-.768.718-1.589,1.376-2.389,2.057-.205.175-.414.346-.629.506a1.546,1.546,0,0,1-.35.192.7.7,0,0,1-.771-.125,1.2,1.2,0,0,1-.441-1.242,4.71,4.71,0,0,1,.621-1.35,1.256,1.256,0,0,0-.133.086c-.511.423-1.018.853-1.534,1.271-.2.163-.421.3-.635.449a.877.877,0,0,1-1.362-.649,1.5,1.5,0,0,1,.041-.84,5.835,5.835,0,0,1,.862-1.638c.032-.043.062-.089.109-.158-.136,0-.2.094-.28.147a5.083,5.083,0,0,1-.513.337.434.434,0,0,1-.635-.284,2.65,2.65,0,0,0-.147-.32,1.89,1.89,0,0,1-.208-.861c-1.116-.461-2.232-.911-3.319-1.436a10.671,10.671,0,0,1-1.808-1.194c-1.081-.827-2.163-1.655-3.219-2.517-.889-.725-1.741-1.5-2.609-2.252-.067-.058-.136-.113-.228-.19a.7.7,0,0,0,.057.388c.258.7.513,1.41.789,2.106s.581,1.381.865,2.075a2.6,2.6,0,0,0,.9,1.169,29.6,29.6,0,0,1,2.384,1.972,4.848,4.848,0,0,0,1.027.67,14.286,14.286,0,0,1,2.3,1.422,4.124,4.124,0,0,1,1.025,1.216,1.352,1.352,0,0,1,.172.77c-.023.372-.214.623-.591.576a2.1,2.1,0,0,1-.566-.121c-.982-.421-2.009-.691-3.021-1.015a1.62,1.62,0,0,0-.4-.093c.138.156.275.313.415.468a3.007,3.007,0,0,1,.75,1.314,2.277,2.277,0,0,1,.034.932c-.075.433-.378.616-.76.437a5.018,5.018,0,0,1-.613-.38c-.821-.538-1.65-1.065-2.458-1.625-.424-.295-.81-.651-1.214-.977-.886-.716-1.769-1.435-2.661-2.143a4.254,4.254,0,0,1-1.322-1.48,1.044,1.044,0,0,0-.112-.156c.1.786.2,1.56.309,2.334.1.7.219,1.4.3,2.1a3.867,3.867,0,0,1-.019.906,1.027,1.027,0,0,0,.1.556,11.511,11.511,0,0,0,1.561,2.585A15.867,15.867,0,0,0,16,80.651,20.165,20.165,0,0,0,22.076,83.7c.625.195,1.263.342,1.895.512a.443.443,0,0,1,.231.121c-.475-.093-.954-.169-1.425-.284a21.72,21.72,0,0,1-4.791-1.732A16.424,16.424,0,0,1,13.242,78.7,12.158,12.158,0,0,1,11.2,75.663c-.023-.049-.049-.1-.091-.18-.055.1-.1.176-.139.252a1.67,1.67,0,0,1-.5.633.39.39,0,0,1-.59-.061,1.364,1.364,0,0,1-.367-.779c-.056-.317-.09-.637-.14-.955a22.7,22.7,0,0,0-.6-2.66c-.328-1.167-.546-2.36-.763-3.554-.173-.948-.436-1.877-.651-2.816-.138-.6-.26-1.2-.392-1.8-.15-.681-.306-1.361-.454-2.043-.176-.807-.337-1.619-.524-2.423A24.291,24.291,0,0,0,4.13,54.117c-.6-1.232-1.095-2.512-1.621-3.779-.269-.649-.59-1.275-.9-1.906A16.6,16.6,0,0,1,.195,44.784a6.284,6.284,0,0,1-.125-2.437c.018-.108.047-.215.076-.321A.4.4,0,0,1,.2,41.933Z" transform="translate(0 -1.958)" fill="#231f20"/>
    <path id="Tracé_178" data-name="Tracé 178" d="M4852.544,7430.11c.551-.309,1.089-.592,1.611-.9a28.09,28.09,0,0,0,5.313-4.114,32.953,32.953,0,0,0,4.033-4.8,31.109,31.109,0,0,0,2.334-3.979,27.654,27.654,0,0,0,1.724-4.314c.064-.218.156-.3.266-.268s.146.15.085.368a25.858,25.858,0,0,1-1.389,3.784,29.4,29.4,0,0,1-2.354,4.2q-.775,1.143-1.637,2.226c-.567.711-1.164,1.4-1.785,2.069a26.641,26.641,0,0,1-3.848,3.4,18.629,18.629,0,0,1-4.052,2.268c-.081.032-.163.058-.245.085C4852.593,7430.128,4852.582,7430.12,4852.544,7430.11Z" transform="translate(-4813.882 -7351.305)" fill="#231f20"/>
    <path id="Tracé_179" data-name="Tracé 179" d="M1465.355,8554.676a25.855,25.855,0,0,0,4.371,4.706,29.658,29.658,0,0,0,5.5,3.34.64.64,0,0,1-.161.032.715.715,0,0,1-.187-.052,18.869,18.869,0,0,1-3.826-1.863,21.178,21.178,0,0,1-3.3-2.737,14.375,14.375,0,0,1-2.248-2.9c-.09-.155-.155-.325-.232-.486Z" transform="translate(-1450.403 -8482.659)" fill="#231f20"/>
    <path id="Tracé_180" data-name="Tracé 180" d="M5758.491,7679.923c.132.078.08.183.052.287a16.976,16.976,0,0,1-1.351,3.547,21.7,21.7,0,0,1-2.556,3.875,20.043,20.043,0,0,1-2.3,2.3c.08-.093.156-.19.239-.28a24.907,24.907,0,0,0,2.815-3.492,24.113,24.113,0,0,0,2.037-3.773c.3-.721.554-1.458.833-2.188C5758.306,7680.086,5758.323,7679.941,5758.491,7679.923Z" transform="translate(-5705.498 -7616.783)" fill="#231f20"/>
    <path id="Tracé_181" data-name="Tracé 181" d="M9166.439,2944.389c-.09-.04-.186-.075-.274-.12a6.963,6.963,0,0,1-1.794-1.389,20.9,20.9,0,0,1-2.173-2.8c-.589-.847-1.191-1.685-1.787-2.527a.506.506,0,0,1-.111-.277c.225.253.467.493.675.76.673.865,1.335,1.739,2,2.612a19.507,19.507,0,0,0,2.339,2.661c.3.278.643.518.963.777.08.063.153.133.23.2C9166.482,2944.321,9166.462,2944.355,9166.439,2944.389Z" transform="translate(-9085.705 -2912.378)" fill="#231f20"/>
    <path id="Tracé_182" data-name="Tracé 182" d="M10696.352,2193.36a71.6,71.6,0,0,1,4.551,6.464,14.3,14.3,0,0,1-1.27-1.526c-.4-.524-.8-1.051-1.19-1.588s-.768-1.1-1.147-1.659C10696.595,2194.031,10696.34,2193.573,10696.352,2193.36Z" transform="translate(-10610.322 -2174.745)" fill="#231f20"/>
    <path id="Tracé_183" data-name="Tracé 183" d="M1711.476,4561.18a43.752,43.752,0,0,0-2.941,5.746c-.008.017-.057.017-.1.028-.113-.123-.038-.25-.008-.366a10.722,10.722,0,0,1,.9-2.326,21.364,21.364,0,0,1,1.911-2.94c.051-.067.112-.128.168-.192Z" transform="translate(-1691.042 -4522.35)" fill="#231f20"/>
    <path id="Tracé_184" data-name="Tracé 184" d="M6812.24,5938.172q.9,3.543,1.777,6.974c-.239-.239-.27-.326-1.217-3.366A9.938,9.938,0,0,1,6812.24,5938.172Z" transform="translate(-6756.216 -5887.803)" fill="#231f20"/>
    <path id="Tracé_185" data-name="Tracé 185" d="M2165.408,3318.219a21.227,21.227,0,0,0,3.744,4.28l-.047.087c-.064,0-.139.022-.19,0a3.084,3.084,0,0,1-.531-.311,10.124,10.124,0,0,1-2.832-3.478c-.083-.172-.145-.355-.217-.533Z" transform="translate(-2147.613 -3289.926)" fill="#231f20"/>
    <path id="Tracé_186" data-name="Tracé 186" d="M55.576,4741.962a1.09,1.09,0,0,1,.152.2.419.419,0,0,1,.011.192,7.207,7.207,0,0,0,.425,2.846,14,14,0,0,0,.93,2.252c.146.276.258.569.391.868-.04,0-.068,0-.073-.005a16.184,16.184,0,0,1-1.333-2.527,11.654,11.654,0,0,1-.685-2.538,7.952,7.952,0,0,1-.027-.876A.471.471,0,0,1,55.576,4741.962Z" transform="translate(-54.805 -4701.69)" fill="#231f20"/>
    <path id="Tracé_187" data-name="Tracé 187" d="M11676.2,3735.284c-.018-.006-.045-.005-.055-.018a.17.17,0,0,1-.044-.085,31.7,31.7,0,0,0-.895-3.548.447.447,0,0,1,.014-.13A5.787,5.787,0,0,1,11676.2,3735.284Z" transform="translate(-11579.241 -3699.646)" fill="#231f20"/>
    <path id="Tracé_188" data-name="Tracé 188" d="M995.055,6715.922a25.769,25.769,0,0,1,1.493,3.52c-.089-.166-.174-.335-.266-.5-.374-.672-.758-1.339-1.121-2.017a3.93,3.93,0,0,1-.265-.69A.227.227,0,0,1,995.055,6715.922Z" transform="translate(-984.784 -6658.542)" fill="#231f20"/>
    <path id="Tracé_189" data-name="Tracé 189" d="M2532.687,9369.607a1.612,1.612,0,0,1-.294.022,7.765,7.765,0,0,1-2.519-.829c-.016-.007-.023-.032-.055-.085a1.843,1.843,0,0,1,.248.025q1.183.3,2.365.6C2532.543,9369.371,2532.677,9369.378,2532.687,9369.607Z" transform="translate(-2509.074 -9288.439)" fill="#231f20"/>
    <path id="Tracé_190" data-name="Tracé 190" d="M2504.535,5875.191a2.273,2.273,0,0,1-1.149.01,15.192,15.192,0,0,1-2.533-.806.275.275,0,0,1-.122-.1A18.969,18.969,0,0,0,2504.535,5875.191Z" transform="translate(-2480.263 -5823.86)" fill="#231f20"/>
    <path id="Tracé_191" data-name="Tracé 191" d="M2651.231,7350.132a10.008,10.008,0,0,1,3.053,2c-.332-.226-.657-.464-1-.676s-.713-.411-1.072-.612A3.961,3.961,0,0,1,2651.231,7350.132Z" transform="translate(-2629.499 -7287.145)" fill="#231f20"/>
    <path id="Tracé_192" data-name="Tracé 192" d="M857.66,6889.621q-.451-.782-.9-1.565a.732.732,0,0,1-.033-.092c-.046-.11-.059-.229.067-.278.146-.057.18.087.219.179.237.546.467,1.094.7,1.642a.251.251,0,0,1,0,.09C857.695,6889.6,857.678,6889.613,857.66,6889.621Z" transform="translate(-848.002 -6828.643)" fill="#231f20"/>
    <path id="Tracé_193" data-name="Tracé 193" d="M6274.01,7942.054c.017.067.06.142.043.2a4.651,4.651,0,0,1-.673,1.533,16.461,16.461,0,0,1,.523-1.74Z" transform="translate(-6221.712 -7876.247)" fill="#231f20"/>
    <path id="Tracé_194" data-name="Tracé 194" d="M2437.187,3607.689a1.042,1.042,0,0,1-.256,0,2.669,2.669,0,0,1-1.2-1.062c.241.169.484.337.724.508A2.228,2.228,0,0,1,2437.187,3607.689Z" transform="translate(-2415.705 -3575.67)" fill="#231f20"/>
    <path id="Tracé_195" data-name="Tracé 195" d="M6374.893,7258.29c-.024-.162-.049-.259-.052-.358-.006-.182-.006-.364,0-.545,0-.054.042-.139.079-.147s.109.04.164.067a.136.136,0,0,1,.036.053A.987.987,0,0,1,6374.893,7258.29Z" transform="translate(-6322.298 -7194.933)" fill="#231f20"/>
    <path id="Tracé_196" data-name="Tracé 196" d="M1791.656,4960.434a.668.668,0,0,1-.046-.2,1.986,1.986,0,0,1,.464-.983,10.437,10.437,0,0,1-.316,1.181Z" transform="translate(-1773.429 -4916.693)" fill="#231f20"/>
    <path id="Tracé_197" data-name="Tracé 197" d="M2409.148,5484.129a1.161,1.161,0,0,1-.663.957C2408.731,5484.752,2408.774,5484.371,2409.148,5484.129Z" transform="translate(-2388.648 -5437.042)" fill="#231f20"/>
    <path id="Tracé_198" data-name="Tracé 198" d="M1443.406,5166.2a1.025,1.025,0,0,1-.918-.4A1.174,1.174,0,0,1,1443.406,5166.2Z" transform="translate(-1427.851 -5121.399)" fill="#231f20"/>
    <path id="Tracé_199" data-name="Tracé 199" d="M10693.382,2260.166a1.393,1.393,0,0,1-.58-.876A1.393,1.393,0,0,1,10693.382,2260.166Z" transform="translate(-10606.81 -2239.898)" fill="#231f20"/>
    <path id="Tracé_200" data-name="Tracé 200" d="M1821.977,5864.036a1.9,1.9,0,0,1-1,.673l.936-.747C1821.937,5863.986,1821.957,5864.011,1821.977,5864.036Z" transform="translate(-1802.503 -5813.594)" fill="#231f20"/>
    <path id="Tracé_201" data-name="Tracé 201" d="M287.808,5424.921a3.972,3.972,0,0,1,.241.364c.021.039-.02.11-.032.167-.055-.017-.134-.017-.16-.054a.651.651,0,0,1-.128-.441Z" transform="translate(-284.805 -5378.306)" fill="#231f20"/>
    <path id="Tracé_202" data-name="Tracé 202" d="M6795.272,5851.713a1.123,1.123,0,0,1,.09.312c0,.051-.08.1-.123.146a.78.78,0,0,1-.123-.231C6795.108,5851.895,6795.185,5851.834,6795.272,5851.713Z" transform="translate(-6739.104 -5801.422)" fill="#231f20"/>
    <path id="Tracé_203" data-name="Tracé 203" d="M11759.151,4151.993a2.529,2.529,0,0,1,0-.333.142.142,0,0,1,.1-.095.137.137,0,0,1,.1.089.306.306,0,0,1-.1.355Z" transform="translate(-11662.33 -4115.89)" fill="#231f20"/>
    <path id="Tracé_204" data-name="Tracé 204" d="M2469.929,5511.379a.54.54,0,0,1-.239.47C2469.653,5511.606,2469.661,5511.589,2469.929,5511.379Z" transform="translate(-2449.317 -5464.015)" fill="#231f20"/>
    <path id="Tracé_205" data-name="Tracé 205" d="M2780.227,7642.34l-.271.419C2779.965,7642.54,2779.965,7642.54,2780.227,7642.34Z" transform="translate(-2757.043 -7576.65)" fill="#231f20"/>
    <path id="Tracé_206" data-name="Tracé 206" d="M2488.448,8223.18l.1-.34.084.021-.078.347Z" transform="translate(-2467.934 -8154.191)" fill="#231f20"/>
    <path id="Tracé_207" data-name="Tracé 207" d="M2129.76,8417.967c-.061.183-.082.321-.256.392C2129.463,8418.154,2129.564,8418.066,2129.76,8417.967Z" transform="translate(-2107.886 -8347.338)" fill="#231f20"/>
    <path id="Tracé_208" data-name="Tracé 208" d="M9793.467,3644.211l.319.075C9793.6,3644.438,9793.523,3644.381,9793.467,3644.211Z" transform="translate(-9716.601 -3612.881)" fill="#231f20"/>
    <path id="Tracé_209" data-name="Tracé 209" d="M2907.554,5954.588c-.064.134-.146.153-.243.047Z" transform="translate(-2883.346 -5903.38)" fill="#231f20"/>
    <path id="Tracé_210" data-name="Tracé 210" d="M1029.917,7233.881c.007.06.014.12.02.18l-.067.013-.048-.186Z" transform="translate(-1019.372 -7171.677)" fill="#231f20"/>
    <path id="Tracé_211" data-name="Tracé 211" d="M2988.414,7583.964l.151.159-.045.049-.168-.144Z" transform="translate(-2963.719 -7518.75)" fill="#231f20"/>
    <path id="Tracé_212" data-name="Tracé 212" d="M5965.422,6054.105c.021-.046.04-.095.064-.14a19.152,19.152,0,0,0,1.451-3.576,5.323,5.323,0,0,1,.222-.61c.027-.063.117-.1.178-.15.029.074.1.156.081.221-.06.285-.132.569-.22.847a11.779,11.779,0,0,1-1.541,3.175c-.062.089-.125.175-.187.263Z" transform="translate(-5916.418 -5998.046)" fill="#231f20"/>
    <path id="Tracé_213" data-name="Tracé 213" d="M4191.351,5777.255a17.163,17.163,0,0,1-2.264,3.9C4189.75,5779.8,4190.581,5778.545,4191.351,5777.255Z" transform="translate(-4154.693 -5727.935)" fill="#231f20"/>
    <path id="Tracé_214" data-name="Tracé 214" d="M3302.079,5944.422a5.634,5.634,0,0,1-3.847.76.5.5,0,0,1,.385-.115,12.068,12.068,0,0,0,2.413-.33c.293-.079.581-.173.871-.261Z" transform="translate(-3271.239 -5893.367)" fill="#231f20"/>
    <path id="Tracé_215" data-name="Tracé 215" d="M4596.462,7632.165a21.155,21.155,0,0,1,2.948-2.367.977.977,0,0,1-.135.21c-.368.3-.734.61-1.114.9C4597.6,7631.334,4597.029,7631.747,4596.462,7632.165Z" transform="translate(-4558.775 -7564.459)" fill="#231f20"/>
    <path id="Tracé_216" data-name="Tracé 216" d="M3075.729,7551.692a4.947,4.947,0,0,1,1.514-2.645A12.241,12.241,0,0,0,3075.729,7551.692Z" transform="translate(-3050.438 -7484.435)" fill="#231f20"/>
    <path id="Tracé_217" data-name="Tracé 217" d="M3708.7,5566.823c.023-.525.047-1.049.07-1.568.156.15.206.328.183.783a2.4,2.4,0,0,1-.154.8Z" transform="translate(-3678.126 -5517.528)" fill="#231f20"/>
    <path id="Tracé_218" data-name="Tracé 218" d="M4323.046,6708.771a2.015,2.015,0,0,1-.473,1.286l-.069-.027.465-1.274Z" transform="translate(-4286.895 -6651.188)" fill="#231f20"/>
    <path id="Tracé_219" data-name="Tracé 219" d="M3975.452,7561.8l-.7-.923A1.18,1.18,0,0,1,3975.452,7561.8Z" transform="translate(-3942.022 -7495.954)" fill="#231f20"/>
    <path id="Tracé_220" data-name="Tracé 220" d="M4291.539,5704.96a2.033,2.033,0,0,1-.994.2c.359-.131.64-.329.992-.2Z" transform="translate(-4255.229 -5655.87)" fill="#231f20"/>
    <path id="Tracé_221" data-name="Tracé 221" d="M3117.437,5962.172l.775.346A.728.728,0,0,1,3117.437,5962.172Z" transform="translate(-3091.766 -5910.921)" fill="#231f20"/>
    <path id="Tracé_222" data-name="Tracé 222" d="M4034.345,7584.839l.367.46c-.247-.027-.287-.071-.418-.417Z" transform="translate(-4001.051 -7519.649)" fill="#231f20"/>
    <path id="Tracé_223" data-name="Tracé 223" d="M3405.86,8095.691l-.39-.435a.566.566,0,0,1,.457.371Z" transform="translate(-3377.41 -8027.902)" fill="#231f20"/>
    <path id="Tracé_224" data-name="Tracé 224" d="M6312.3,5942.54c.173-.263.173-.263.4-.286C6312.621,5942.5,6312.538,5942.563,6312.3,5942.54Z" transform="translate(-6260.281 -5891.169)" fill="#231f20"/>
    <path id="Tracé_225" data-name="Tracé 225" d="M4535.471,8084.631c.116.142.308.237.223.5l-.273-.454Z" transform="translate(-4498.039 -8017.385)" fill="#231f20"/>
    <path id="Tracé_226" data-name="Tracé 226" d="M5033.963,7772.841c.137.167.231.281.355.433C5034.046,7773.218,5034.013,7773.177,5033.963,7772.841Z" transform="translate(-4992.478 -7708.758)" fill="#231f20"/>
    <path id="Tracé_227" data-name="Tracé 227" d="M3790.677,8176.271l-.333-.473C3790.605,8175.895,3790.664,8175.968,3790.677,8176.271Z" transform="translate(-3759.106 -8107.626)" fill="#231f20"/>
    <path id="Tracé_228" data-name="Tracé 228" d="M3675.4,5578.879a.555.555,0,0,1,.041.577A.657.657,0,0,1,3675.4,5578.879Z" transform="translate(-3645.054 -5530.944)" fill="#231f20"/>
    <path id="Tracé_229" data-name="Tracé 229" d="M3334.074,7742.13a.267.267,0,0,1,.279.25c-.021.017-.042.031-.062.047C3334.218,7742.329,3334.146,7742.229,3334.074,7742.13Z" transform="translate(-3306.593 -7678.359)" fill="#231f20"/>
    <path id="Tracé_230" data-name="Tracé 230" d="M5058.671,7770.589c.186.072.24.147.222.292C5058.729,7770.865,5058.718,7770.759,5058.671,7770.589Z" transform="translate(-5016.971 -7706.53)" fill="#231f20"/>
    <path id="Tracé_231" data-name="Tracé 231" d="M4909.754,7574.157c.068-.084.138-.168.226-.276.013.2.013.2-.17.324Z" transform="translate(-4869.282 -7508.768)" fill="#231f20"/>
    <path id="Tracé_232" data-name="Tracé 232" d="M4363.045,6778.849c.042-.083.083-.168.151-.3.091.206.03.288-.082.348Z" transform="translate(-4327.078 -6720.275)" fill="#231f20"/>
    <path id="Tracé_233" data-name="Tracé 233" d="M4139.688,6221.292l-.11.185-.054-.028.086-.194Z" transform="translate(-4105.398 -6167.764)" fill="#231f20"/>
    <path id="Tracé_234" data-name="Tracé 234" d="M5290.247,2869.577a1.425,1.425,0,0,1,.057.25,2.6,2.6,0,0,0,1.079,2.062,7.282,7.282,0,0,1,1.635,1.884c.052.083.1.169.144.255a.919.919,0,0,1,.037.166c-.236-.3-.43-.548-.619-.8a8.752,8.752,0,0,0-1.273-1.3,3.074,3.074,0,0,1-1.134-1.811A.95.95,0,0,1,5290.247,2869.577Z" transform="translate(-5246.773 -2845.124)" fill="#231f20"/>
    <path id="Tracé_235" data-name="Tracé 235" d="M5352.5,2530.457c.142-.328.269-.664.43-.982a1.14,1.14,0,0,1,.886-.734.945.945,0,0,1,.657.127,1.968,1.968,0,0,0,1.254.367.461.461,0,0,1,.218.058,1.868,1.868,0,0,1-1.316-.135,2.067,2.067,0,0,0-.23-.121.912.912,0,0,0-1.031.151,1.885,1.885,0,0,0-.37.448c-.168.276-.309.569-.462.854Z" transform="translate(-5308.663 -2507.062)" fill="#231f20"/>
    <path id="Tracé_236" data-name="Tracé 236" d="M5682.754,2972.727c.641.551,1.384,2.449,1.16,2.986a.709.709,0,0,1-.122-.172c-.062-.207-.109-.418-.168-.626a11.187,11.187,0,0,0-.79-2.02C5682.806,2972.84,5682.781,2972.783,5682.754,2972.727Z" transform="translate(-5635.999 -2947.311)" fill="#231f20"/>
    <path id="Tracé_237" data-name="Tracé 237" d="M5808.592,2621.738l-1.045-1.236A2.036,2.036,0,0,1,5808.592,2621.738Z" transform="translate(-5759.75 -2598.023)" fill="#231f20"/>
    <path id="Tracé_238" data-name="Tracé 238" d="M5821.671,3125.661a1.1,1.1,0,0,1,.105,1.124A4.7,4.7,0,0,1,5821.671,3125.661Z" transform="translate(-5773.681 -3098.84)" fill="#231f20"/>
    <path id="Tracé_239" data-name="Tracé 239" d="M5721.379,3199.139c-.063-.148-.126-.295-.209-.486.237.137.264.19.276.462Z" transform="translate(-5674.014 -3171.172)" fill="#231f20"/>
    <path id="Tracé_240" data-name="Tracé 240" d="M5300.8,2787.19c.041-.126.082-.253.122-.379A.24.24,0,0,1,5300.8,2787.19Z" transform="translate(-5257.096 -2762.865)" fill="#231f20"/>
    <path id="Tracé_241" data-name="Tracé 241" d="M7217.142,708.149q-.36-1.051-.72-2.1A6.137,6.137,0,0,1,7217.142,708.149Z" transform="translate(-7156.992 -698.902)" fill="#231f20"/>
    <path id="Tracé_242" data-name="Tracé 242" d="M4779.46,3170.449c-.334-.084-.675-.152-1-.256a.956.956,0,0,1-.705-1.182c.014-.074.035-.148.055-.22a1.2,1.2,0,0,0-.076-.885c-.2-.43-.091-.689.354-.864a2.518,2.518,0,0,1,.276-.1.971.971,0,0,0,.726-.633.885.885,0,0,1,.653-.537,1.172,1.172,0,0,1,.917.091c-.077-.01-.153-.017-.228-.03a1.277,1.277,0,0,0-.791.119.784.784,0,0,0-.439.456,1.014,1.014,0,0,1-.686.641,4.555,4.555,0,0,0-.486.185.337.337,0,0,0-.173.533,1.491,1.491,0,0,1,.105,1.161.838.838,0,0,0,.608,1.145c.3.116.611.21.918.314C4779.478,3170.41,4779.469,3170.43,4779.46,3170.449Z" transform="translate(-4738.468 -3138.751)" fill="#231f20"/>
    <path id="Tracé_243" data-name="Tracé 243" d="M5136.04,3192.315c-.254-.177-.5-.364-.765-.531a12.623,12.623,0,0,0-1.085-.65,2.516,2.516,0,0,0-1.195-.263,3.017,3.017,0,0,1-.573-.057,2.779,2.779,0,0,1,2.083.318c.47.289.914.618,1.367.933a2.025,2.025,0,0,1,.21.194Z" transform="translate(-5090.402 -3163.385)" fill="#231f20"/>
    <path id="Tracé_244" data-name="Tracé 244" d="M5230.8,3456.8l2.554.7c-.1.072-.155.138-.2.136a2.208,2.208,0,0,1-.482-.056,7.036,7.036,0,0,1-1.723-.668A1.461,1.461,0,0,1,5230.8,3456.8Z" transform="translate(-5187.875 -3427.123)" fill="#231f20"/>
    <path id="Tracé_245" data-name="Tracé 245" d="M5130.769,3648.682l2.833.536a1.417,1.417,0,0,1-.238.064,3.761,3.761,0,0,1-1.285-.141c-.445-.125-.884-.265-1.325-.4Z" transform="translate(-5088.679 -3617.339)" fill="#231f20"/>
    <path id="Tracé_246" data-name="Tracé 246" d="M5332.629,3554.632l1.159.125C5333.612,3555,5333.049,3554.95,5332.629,3554.632Z" transform="translate(-5288.751 -3524.08)" fill="#231f20"/>
    <path id="Tracé_247" data-name="Tracé 247" d="M5396.444,3466.175a1.075,1.075,0,0,1-.9-.3l.91.216C5396.452,3466.118,5396.448,3466.146,5396.444,3466.175Z" transform="translate(-5351.128 -3436.086)" fill="#231f20"/>
    <path id="Tracé_248" data-name="Tracé 248" d="M5519.017,3368.053l.169.145-.041.054-.183-.127Z" transform="translate(-5473.469 -3339.1)" fill="#231f20"/>
    <path id="Tracé_249" data-name="Tracé 249" d="M4712.567,3762.088c-.26.208-.509.434-.785.619a3.772,3.772,0,0,1-.642.309,1.006,1.006,0,0,0-.75,1.052,2.187,2.187,0,0,1-.038.453,1.246,1.246,0,0,0,.552,1.328,1.713,1.713,0,0,1,.778,1.186.771.771,0,0,0,.682.683c.061.011.12.035.212.063a.827.827,0,0,1-1.058-.616c-.027-.094-.049-.189-.077-.282a1.5,1.5,0,0,0-.533-.8c-.095-.071-.184-.152-.274-.229a1.376,1.376,0,0,1-.459-1.32,4.968,4.968,0,0,0,.052-.614.99.99,0,0,1,.444-.825.661.661,0,0,1,.166-.1,7.255,7.255,0,0,0,1.583-.886.842.842,0,0,1,.119-.054Z" transform="translate(-4671.498 -3730.069)" fill="#231f20"/>
    <path id="Tracé_250" data-name="Tracé 250" d="M5044.8,3960.795c-.019.143-.137.17-.234.2a3.621,3.621,0,0,1-.792.171c-.547.014-1.095-.022-1.643-.037v-.067q1.3-.161,2.6-.318C5044.749,3960.736,5044.776,3960.775,5044.8,3960.795Z" transform="translate(-5000.765 -3926.702)" fill="#231f20"/>
    <path id="Tracé_251" data-name="Tracé 251" d="M5233.422,3979.421l1.15-.543C5234.533,3979.225,5233.919,3979.516,5233.422,3979.421Z" transform="translate(-5190.359 -3944.695)" fill="#231f20"/>
    <path id="Tracé_252" data-name="Tracé 252" d="M4996.031,3735.24l-1.736-.131a3.231,3.231,0,0,1,1.732.064C4996.028,3735.2,4996.03,3735.218,4996.031,3735.24Z" transform="translate(-4953.248 -3702.894)" fill="#231f20"/>
    <path id="Tracé_253" data-name="Tracé 253" d="M5204.5,3918.612a.725.725,0,0,1-.958.144A3.924,3.924,0,0,1,5204.5,3918.612Z" transform="translate(-5160.711 -3884.927)" fill="#231f20"/>
    <path id="Tracé_254" data-name="Tracé 254" d="M5330.11,4000.5a.555.555,0,0,1-.522.444A1.363,1.363,0,0,1,5330.11,4000.5Z" transform="translate(-5285.681 -3966.122)" fill="#231f20"/>
    <path id="Tracé_255" data-name="Tracé 255" d="M7449.547,3472.095a.961.961,0,0,1,.332-1.354,4.524,4.524,0,0,1,.538-.3c.174-.088.364-.149.53-.248a4.913,4.913,0,0,0,.464-.346,1.449,1.449,0,0,1-.741.653c-.168.077-.341.144-.5.233A1.111,1.111,0,0,0,7449.547,3472.095Z" transform="translate(-7388.208 -3440.133)" fill="#231f20"/>
    <path id="Tracé_256" data-name="Tracé 256" d="M8041.1,3512.132a3.2,3.2,0,0,0-.8-2.312A2.3,2.3,0,0,1,8041.1,3512.132Z" transform="translate(-7974.105 -3479.769)" fill="#231f20"/>
    <path id="Tracé_257" data-name="Tracé 257" d="M7699.127,3395.289c-.154.115-.3.213-.439.328a.6.6,0,0,1-.825.027,3.656,3.656,0,0,0-.355-.2c.122-.106.241-.044.363.035.378.247.478.239.818-.061C7698.894,3395.239,7698.894,3395.239,7699.127,3395.289Z" transform="translate(-7634.228 -3366.092)" fill="#231f20"/>
    <path id="Tracé_258" data-name="Tracé 258" d="M7846.672,3721.252a3,3,0,0,1,.068,1.648h-.068Z" transform="translate(-7781.982 -3689.349)" fill="#231f20"/>
    <path id="Tracé_259" data-name="Tracé 259" d="M7895.348,3768.011a1.452,1.452,0,0,1-.173.964A1.228,1.228,0,0,1,7895.348,3768.011Z" transform="translate(-7830.053 -3735.665)" fill="#231f20"/>
    <path id="Tracé_260" data-name="Tracé 260" d="M7909.611,3441.55c-.29-.066-.609-.018-.855-.226C7909.043,3441.4,7909.37,3441.318,7909.611,3441.55Z" transform="translate(-7843.643 -3411.742)" fill="#231f20"/>
    <path id="Tracé_261" data-name="Tracé 261" d="M7770.942,3781.383c.042.216.083.431.135.705-.187-.172-.229-.344-.209-.7Z" transform="translate(-7706.805 -3748.906)" fill="#231f20"/>
    <path id="Tracé_262" data-name="Tracé 262" d="M7944.345,3830.373a.585.585,0,0,1-.232.529A.534.534,0,0,1,7944.345,3830.373Z" transform="translate(-7878.625 -3797.465)" fill="#231f20"/>
    <path id="Tracé_263" data-name="Tracé 263" d="M7730.232,3820.511l.225.424C7730.206,3820.79,7730.2,3820.781,7730.232,3820.511Z" transform="translate(-7666.499 -3787.681)" fill="#231f20"/>
    <path id="Tracé_264" data-name="Tracé 264" d="M8098.839,3780.775c.033-.066.067-.133.124-.247.063.168.031.24-.057.292Z" transform="translate(-8032.069 -3748.033)" fill="#231f20"/>
    <path id="Tracé_265" data-name="Tracé 265" d="M8080.213,4290.129a1.366,1.366,0,0,1,1.073.715,10.631,10.631,0,0,0,.954,1.469.932.932,0,0,1,.164.861,1.055,1.055,0,0,1-.1.158,1.584,1.584,0,0,1-.026-.235,1.469,1.469,0,0,0-.286-.979,14.7,14.7,0,0,0-.909-1.267A6.555,6.555,0,0,0,8080.213,4290.129Z" transform="translate(-8013.869 -4253.458)" fill="#231f20"/>
    <path id="Tracé_266" data-name="Tracé 266" d="M7559.575,4385.17a3.4,3.4,0,0,1-.436.889,2.629,2.629,0,0,0-.378,2.015.568.568,0,0,1-.018.125,1.389,1.389,0,0,1-.207-.891,2.839,2.839,0,0,1,.628-1.6C7559.313,4385.538,7559.439,4385.349,7559.575,4385.17Z" transform="translate(-7496.319 -4347.673)" fill="#231f20"/>
    <path id="Tracé_267" data-name="Tracé 267" d="M7891.5,4344.7a13.631,13.631,0,0,1-.287-1.858A3.17,3.17,0,0,1,7891.5,4344.7Z" transform="translate(-7826.176 -4305.617)" fill="#231f20"/>
    <path id="Tracé_268" data-name="Tracé 268" d="M7942.881,4351.712c.313.08.533.595.483,1.118A10.508,10.508,0,0,1,7942.881,4351.712Z" transform="translate(-7877.44 -4314.363)" fill="#231f20"/>
    <path id="Tracé_269" data-name="Tracé 269" d="M7839.962,4356v1.031a1.646,1.646,0,0,1-.076-1.031Z" transform="translate(-7775.203 -4318.612)" fill="#231f20"/>
    <path id="Tracé_270" data-name="Tracé 270" d="M7990.34,4333.5l-.417-.586c.2-.048.254.1.324.2a3.392,3.392,0,0,1,.174.332C7990.394,4333.464,7990.367,4333.481,7990.34,4333.5Z" transform="translate(-7924.095 -4295.679)" fill="#231f20"/>
    <path id="Tracé_271" data-name="Tracé 271" d="M7781.318,4348.228l-.155.563a.515.515,0,0,1,.08-.58Z" transform="translate(-7716.963 -4310.855)" fill="#231f20"/>
    <path id="Tracé_272" data-name="Tracé 272" d="M7610.607,4730.3l.406.363c-.319.03-.361-.17-.464-.3Z" transform="translate(-7547.843 -4689.639)" fill="#231f20"/>
    <path id="Tracé_273" data-name="Tracé 273" d="M6126.271,3163.344a2.454,2.454,0,0,1,.6,1.626l-.068.024c-.08-.272-.146-.55-.243-.815s-.229-.532-.345-.8Z" transform="translate(-6075.756 -3136.227)" fill="#231f20"/>
    <path id="Tracé_274" data-name="Tracé 274" d="M5963.263,3698.362a2.941,2.941,0,0,1,1.017,1.017c-.126-.038-.2-.038-.241-.076-.28-.293-.551-.595-.825-.893Z" transform="translate(-5914.137 -3666.617)" fill="#231f20"/>
    <path id="Tracé_275" data-name="Tracé 275" d="M6040,3670.024a.88.88,0,0,1,.512.821A1.68,1.68,0,0,1,6040,3670.024Z" transform="translate(-5990.243 -3638.511)" fill="#231f20"/>
    <path id="Tracé_276" data-name="Tracé 276" d="M5924.449,3811.045a.732.732,0,0,1-.818-.258A1.915,1.915,0,0,1,5924.449,3811.045Z" transform="translate(-5874.857 -3778.032)" fill="#231f20"/>
    <path id="Tracé_277" data-name="Tracé 277" d="M5892.071,3883.024c-.212.2-.326.2-.608,0Z" transform="translate(-5842.934 -3849.639)" fill="#231f20"/>
    <path id="Tracé_278" data-name="Tracé 278" d="M6101.134,3628.357a.522.522,0,0,1,.061.594c-.05-.193-.1-.386-.146-.579Z" transform="translate(-6050.754 -3597.188)" fill="#231f20"/>
    <path id="Tracé_279" data-name="Tracé 279" d="M6134.218,3248.145q-.044-.177-.088-.353l.062-.019c.04.124.078.247.117.37Z" transform="translate(-6083.56 -3219.865)" fill="#231f20"/>
    <path id="Tracé_280" data-name="Tracé 280" d="M7311.171,4302.869a4.072,4.072,0,0,0,1.7-.683,5.677,5.677,0,0,1,.981-.39c-.611.345-1.219.7-1.835,1.032A.876.876,0,0,1,7311.171,4302.869Z" transform="translate(-7251.195 -4264.879)" fill="#231f20"/>
    <path id="Tracé_281" data-name="Tracé 281" d="M7376.165,4065.345l-2.118-.127A2.653,2.653,0,0,1,7376.165,4065.345Z" transform="translate(-7313.486 -4030.112)" fill="#231f20"/>
    <path id="Tracé_282" data-name="Tracé 282" d="M7321.339,3851.328l1.4.59A2.813,2.813,0,0,1,7321.339,3851.328Z" transform="translate(-7261.126 -3818.243)" fill="#231f20"/>
    <path id="Tracé_283" data-name="Tracé 283" d="M7452.881,4131.371a1.414,1.414,0,0,1,1.017.018A1.851,1.851,0,0,1,7452.881,4131.371Z" transform="translate(-7391.54 -4095.766)" fill="#231f20"/>
    <path id="Tracé_284" data-name="Tracé 284" d="M7467.038,4028.265a6.068,6.068,0,0,1-1.032-.14A1.006,1.006,0,0,1,7467.038,4028.265Z" transform="translate(-7404.559 -3993.411)" fill="#231f20"/>
    <path id="Tracé_285" data-name="Tracé 285" d="M7515.8,4170.746a.6.6,0,0,1,.549-.186A.734.734,0,0,1,7515.8,4170.746Z" transform="translate(-7453.883 -4134.695)" fill="#231f20"/>
    <path id="Tracé_286" data-name="Tracé 286" d="M7519.713,3980.858a.7.7,0,0,1-.5-.24A.5.5,0,0,1,7519.713,3980.858Z" transform="translate(-7457.264 -3946.398)" fill="#231f20"/>
    <path id="Tracé_287" data-name="Tracé 287" d="M7553.674,3939.223l.364.179C7553.832,3939.4,7553.832,3939.4,7553.674,3939.223Z" transform="translate(-7491.424 -3905.357)" fill="#231f20"/>
    <path id="Tracé_288" data-name="Tracé 288" d="M8170.672,3826.369a.95.95,0,0,1-.153-.012,1.489,1.489,0,0,0-.895.058,3.181,3.181,0,0,1-1.47.176c-.043,0-.087,0-.129-.007a1.806,1.806,0,0,0-1.578.508.423.423,0,0,1-.191.1,1.684,1.684,0,0,1,1.321-.779,4.372,4.372,0,0,1,.552.021,3.172,3.172,0,0,0,1.5-.169,1.259,1.259,0,0,1,.859-.06,1.494,1.494,0,0,1,.192.094C8170.679,3826.324,8170.675,3826.347,8170.672,3826.369Z" transform="translate(-8099.504 -3793.315)" fill="#231f20"/>
    <path id="Tracé_289" data-name="Tracé 289" d="M8144.214,4089.4a3.7,3.7,0,0,1,2.324-.113A17.782,17.782,0,0,0,8144.214,4089.4Z" transform="translate(-8077.355 -4054.003)" fill="#231f20"/>
    <path id="Tracé_290" data-name="Tracé 290" d="M8130.63,4038.78a1,1,0,0,1,1.071-.381Z" transform="translate(-8063.718 -4003.675)" fill="#231f20"/>
    <path id="Tracé_291" data-name="Tracé 291" d="M8158.683,4148.671l-.883-.247A.744.744,0,0,1,8158.683,4148.671Z" transform="translate(-8090.639 -4112.704)" fill="#231f20"/>
    <path id="Tracé_292" data-name="Tracé 292" d="M8140.33,4192.751l-.615-.413C8140.055,4192.317,8140.285,4192.46,8140.33,4192.751Z" transform="translate(-8072.668 -4156.309)" fill="#231f20"/>
    <path id="Tracé_293" data-name="Tracé 293" d="M8122.632,3996.312l.458-.238.035.062-.44.266Z" transform="translate(-8055.71 -3961.728)" fill="#231f20"/>
    <path id="Tracé_294" data-name="Tracé 294" d="M6033.877,2690.419c-.063-.514-.135-1.028-.185-1.543a2.578,2.578,0,0,1,.634-1.921,2.031,2.031,0,0,1,.457-.436,1.251,1.251,0,0,1-.1.15,3.417,3.417,0,0,0-.777,2.849c.042.3.031.6.044.9Z" transform="translate(-5984.028 -2663.593)" fill="#231f20"/>
    <path id="Tracé_295" data-name="Tracé 295" d="M6157.271,2876.965c.06.345.112.621.152.9a2.288,2.288,0,0,1-.06,1.058,1.918,1.918,0,0,1-.114.233c-.087-.143-.079-.142-.03-.687a6.515,6.515,0,0,0,0-.744A1.734,1.734,0,0,1,6157.271,2876.965Z" transform="translate(-6106.432 -2852.329)" fill="#231f20"/>
    <path id="Tracé_296" data-name="Tracé 296" d="M6184.672,2568.177c.135-.485.5-.6.846-.308.117.1.251.191.25.391-.1-.075-.192-.154-.292-.226-.282-.206-.389-.2-.66.019C6184.765,2568.094,6184.719,2568.136,6184.672,2568.177Z" transform="translate(-6133.776 -2545.657)" fill="#231f20"/>
    <path id="Tracé_297" data-name="Tracé 297" d="M6121.213,3015c.023-.229.046-.459.07-.708A.488.488,0,0,1,6121.213,3015Z" transform="translate(-6070.751 -2988.409)" fill="#231f20"/>
    <path id="Tracé_298" data-name="Tracé 298" d="M8622.4,4020.068a1.078,1.078,0,0,1-.045-1.169C8622.155,4019.3,8622.416,4019.677,8622.4,4020.068Z" transform="translate(-8551.122 -3984.411)" fill="#231f20"/>
    <path id="Tracé_299" data-name="Tracé 299" d="M8544.008,4280.322c.1-.164.215-.321.3-.492s.133-.334.215-.494A1.338,1.338,0,0,1,8544.008,4280.322Z" transform="translate(-8473.616 -4242.6)" fill="#231f20"/>
    <path id="Tracé_300" data-name="Tracé 300" d="M5160.719,4325.616l.225-.2c.012.02.025.041.038.06l-.27.128Z" transform="translate(-5118.176 -4288.234)" fill="#231f20"/>
    <path id="Tracé_301" data-name="Tracé 301" d="M6308.25,2882.044c-.187.574-.374,1.148-.543,1.668A3.663,3.663,0,0,1,6308.25,2882.044Z" transform="translate(-6255.741 -2857.34)" fill="#231f20"/>
    <path id="Tracé_302" data-name="Tracé 302" d="M7068.339,3938.881l.18.143-.053.047-.119-.2Z" transform="translate(-7010.068 -3905.011)" fill="#231f20"/>
    <path id="Tracé_303" data-name="Tracé 303" d="M5599.3,3688.086a.849.849,0,0,1-.2.137,5.234,5.234,0,0,0-1.228.626,1.337,1.337,0,0,1-.737.289c.354-.2.7-.426,1.063-.6S5598.927,3688.234,5599.3,3688.086Z" transform="translate(-5551.167 -3656.432)" fill="#231f20"/>
    <path id="Tracé_304" data-name="Tracé 304" d="M5809.919,3604.444c-.12.213-.228.435-.366.635a1.223,1.223,0,0,1-.3.224c.175-.247.349-.5.527-.74A.814.814,0,0,1,5809.919,3604.444Z" transform="translate(-5761.409 -3573.497)" fill="#231f20"/>
  </g>
</svg>
