<svg id="lafemme" xmlns="http://www.w3.org/2000/svg" width="97.7" height="90.782" viewBox="0 0 97.7 90.782">
  <g id="Groupe_182" data-name="Groupe 182" transform="translate(0 0)">
    <g id="Groupe_181" data-name="Groupe 181">
      <path id="Tracé_132" data-name="Tracé 132" d="M14.646,43.753c-.048-.058-.065-.094-.093-.108s-.054.011-.082.018c.009.033.009.081.03.1S14.569,43.758,14.646,43.753Zm2.19-.859-.044.016.036.14.071-.019Zm-1.2-.587c-.073-.025-.108-.05-.135-.043s-.056.044-.083.068c.024.024.053.071.072.067A.593.593,0,0,0,15.64,42.306Zm-1.512,1.772-.084-.1-.1.082c.027.025.05.063.081.071S14.084,44.1,14.128,44.078Zm1.389-1.13c0,.1.045.156.148.128A.085.085,0,0,0,15.7,43C15.669,42.9,15.6,42.9,15.517,42.948Zm-.735,1.64c.027-.161-.008-.25-.182-.274C14.587,44.461,14.585,44.575,14.782,44.588Zm-.756-2.047c.314.013.316.011.231-.22ZM16.9,43.926c.252-.144.252-.164.034-.328Zm-2.63-.723-.187-.144a.7.7,0,0,0-.1.156c-.006.018.061.09.086.086A.84.84,0,0,0,14.267,43.2Zm.708-.245c-.106-.072-.167-.147-.22-.141a.223.223,0,0,0-.163.132.136.136,0,0,0,.167.154C14.82,43.092,14.873,43.029,14.975,42.957Zm.006-.974c-.038-.024-.1-.1-.168-.1-.132,0-.177.121-.19.228s.078.15.178.149C14.916,42.26,14.99,42.165,14.981,41.982Zm.178,1.716c-.049.152-.048.292.105.366a.229.229,0,0,0,.207-.05.235.235,0,0,0,.046-.21C15.447,43.652,15.313,43.635,15.159,43.7Zm13.434,4.173a3.214,3.214,0,0,0,.88.116l-.327-.3.028-.059c.2.018.364.163.613.2l-.541-.768ZM83.358,58.523l-.084-.029a7.053,7.053,0,0,1-1.738,2.744l.6.117c.189-.266.371-.519.55-.774a.906.906,0,0,0,.138-.223q.188-.573.357-1.153C83.251,58.981,83.3,58.751,83.358,58.523ZM29.832,19.1l.053-.037c-.133-.378-.276-.754-.4-1.137a1.319,1.319,0,0,0-.343-.557,2.709,2.709,0,0,1-.813-1.492c-.066-.419-.105-.842-.155-1.263a2.528,2.528,0,0,0-.545-1.216c0,.134-.006.21,0,.285.056.653.117,1.306.172,1.96a5.1,5.1,0,0,0,.464,1.685A4.562,4.562,0,0,0,29.832,19.1ZM73.786,52.734l.033-.029a.969.969,0,0,0-.065-.155A6.5,6.5,0,0,0,72.181,50.8q-.374-.283-.733-.587A8.029,8.029,0,0,1,69.74,48.1a2.142,2.142,0,0,0-.163-.214l-.054.035c.123.319.234.642.371.955A6.4,6.4,0,0,0,72.316,51.8c.383.245.774.477,1.159.719C73.583,52.582,73.683,52.661,73.786,52.734ZM9.821,35.986l.036.068c.137-.028.277-.048.411-.086a2.315,2.315,0,0,0,1.093-.614.771.771,0,0,1,1.119-.045,1.2,1.2,0,0,1,.223.2,1.329,1.329,0,0,0,.94.491,1.875,1.875,0,0,1,.977.376,2.336,2.336,0,0,0,.229.132c-.471-.865-.673-1-1.3-1.219A3.361,3.361,0,0,1,12.5,34.7a1.146,1.146,0,0,0-.255-.162.978.978,0,0,0-1.306.252,4.559,4.559,0,0,0-.285.392,2.21,2.21,0,0,1-.61.625C9.97,35.862,9.9,35.927,9.821,35.986ZM22.755,49.361c-.234-.218-.436-.433-.666-.61a.97.97,0,0,0-.486-.221,5.348,5.348,0,0,0-.992.046,4.707,4.707,0,0,1-1.626.005,8.624,8.624,0,0,1-.847-.283,3.186,3.186,0,0,0,1.381.979,5.381,5.381,0,0,0,2.085.312A3.008,3.008,0,0,0,22.755,49.361Zm9.974-31.14-.038.039q.333.55.667,1.1a1.805,1.805,0,0,0,1.444.929,1.781,1.781,0,0,1,.79.288c.145.091.286.19.434.276a1.285,1.285,0,0,0,1.186.163,4.186,4.186,0,0,1,1.182-.38,1.261,1.261,0,0,0-.52-.269,8.087,8.087,0,0,0-1.522-.26,3.854,3.854,0,0,1-1.836-.568c-.515-.335-1-.72-1.492-1.084C32.924,18.381,32.828,18.3,32.73,18.221ZM68.782,55.191c.018.046.036.091.056.136.248.542.486,1.089.746,1.625A9.973,9.973,0,0,0,70.817,59.1a6.461,6.461,0,0,0,1.036,1.015.819.819,0,0,0,.627.116.549.549,0,0,0-.057-.108,5.581,5.581,0,0,1-.881-1.3c-.332-.624-.671-1.246-1.046-1.843A6.546,6.546,0,0,0,68.782,55.191ZM25.708,45.341a4.367,4.367,0,0,0,2.129,2.273l.367-.474c-.1-.264-.44-.293-.476-.629l.661.41.433-.495A3.76,3.76,0,0,0,25.7,44.879a.771.771,0,0,0,.064.067l1.4,1.156a.273.273,0,0,1,.139.278ZM79.757,60.93c.377.068.735.121,1.087.2a.34.34,0,0,0,.353-.1c.232-.239.473-.471.691-.723a8.411,8.411,0,0,0,1.349-2.322c.081-.2.185-.386.3-.627-.451.265-.858.486-1.246.734A6.566,6.566,0,0,0,80.2,59.953,3.382,3.382,0,0,0,79.757,60.93ZM37.689,23.589l.006.055a1.071,1.071,0,0,0,.137.049,4.162,4.162,0,0,0,1.358.05,4.13,4.13,0,0,1,1.531.116,2.706,2.706,0,0,0,2.258-.374,7.319,7.319,0,0,0,1.64-1.6.5.5,0,0,0,.143-.43c-.08.087-.139.155-.2.217a3.342,3.342,0,0,1-1.109.768,3.138,3.138,0,0,1-1.814.153,2.068,2.068,0,0,0-1.19.114,12.022,12.022,0,0,1-2,.709C38.2,23.466,37.943,23.53,37.689,23.589ZM22.769,37.32c-.13.158-.241.313-.374.447s-.3.264-.455.4a1.3,1.3,0,0,0-.443,1.226,4.386,4.386,0,0,1,.073.875A3.566,3.566,0,0,1,20.4,42.937a3.046,3.046,0,0,0,1.005-.473,4.111,4.111,0,0,0,1.159-1.225,2.848,2.848,0,0,0,.5-1.777c-.015-.259-.1-.514-.133-.774C22.872,38.241,22.825,37.791,22.769,37.32Zm46.258,8.938-.053.051c.073.117.144.236.221.35.3.453.606.907.919,1.354.284.406.556.823.877,1.2.367.427.783.813,1.18,1.215s.786.783,1.17,1.184c.207.216.393.452.589.68a.587.587,0,0,0-.044-.267c-.121-.344-.245-.685-.363-1.03a6.513,6.513,0,0,0-1.9-2.906c-.512-.44-1.068-.831-1.618-1.224C69.692,46.638,69.353,46.457,69.027,46.257ZM22.574,65.734l.09.033c.076-.132.15-.267.229-.4.276-.458.573-.906.828-1.376a3.423,3.423,0,0,0,.45-2.215c-.027-.17-.047-.341-.064-.512-.031-.316-.037-.324-.387-.367l-.234.826-.039-.011v-1a1.182,1.182,0,0,0-.133-.085,1.469,1.469,0,0,0-.16-.056,8.972,8.972,0,0,0-1.009,2.442,5.608,5.608,0,0,0,.125,2.574c.359-.729.414-1.552.787-2.269A9.761,9.761,0,0,1,22.574,65.734Zm7-25.13c-.063-.033-.079-.049-.095-.048-.505.023-1.01.055-1.515.072a3.812,3.812,0,0,0-2.122.725c-.346.246-.708.47-1.068.7-.168.106-.348.194-.566.313.481-.09.906-.173,1.334-.248A7.511,7.511,0,0,1,26.8,41.92a12.31,12.31,0,0,1-2.6.815,2.289,2.289,0,0,0,.434.111,6.557,6.557,0,0,0,2.113.072,3.9,3.9,0,0,0,2.784-1.905.329.329,0,0,0,.023-.089c-.226.1-.447.187-.653.3-.362.2-.406.219-.63.2ZM17.126,58.067l.2-.252c.249-.317.507-.627.742-.954a5.094,5.094,0,0,0,.473-.769,3.09,3.09,0,0,0,.078-2.08c-.05-.223-.113-.444-.174-.683a.987.987,0,0,0-.352.511,1.441,1.441,0,0,1-1.71.8.853.853,0,0,0-.552-.007A11.014,11.014,0,0,0,17.126,58.067Zm-7.033-6.579.081.047c-.547.905-1.04,1.842-1.64,2.72.356-.2.7-.419,1.034-.64A4.611,4.611,0,0,0,11.1,52.087a3.524,3.524,0,0,0,.486-.964,5.561,5.561,0,0,1,.523-1.514c.019-.034,0-.088,0-.176l-1.538,1.689-.051-.042A8,8,0,0,1,11.6,49.519a.818.818,0,0,0-.232.067c-.411.17-.816.357-1.235.5a1.234,1.234,0,0,0-.524.336A4.871,4.871,0,0,0,8.65,52.4c-.178.568-.324,1.147-.482,1.721a1.067,1.067,0,0,0-.02.149l.057.023Zm68.2-1.583.081.034c.181-.24.377-.47.538-.723a6.839,6.839,0,0,0,.534-1.079,4.858,4.858,0,0,0,.272-2.674c-.091-.568-.175-1.137-.279-1.7-.048-.261-.138-.515-.209-.772a2.77,2.77,0,0,0-.187.66,14.851,14.851,0,0,1-.237,1.94c-.016.052.019.118.018.177,0,.168-.015.336-.023.5l-.062,0c-.039-.454-.106-.908-.108-1.362s.064-.906.1-1.359l-.069-.015c-.079.191-.166.378-.234.573A7.412,7.412,0,0,0,78,45.551a10.916,10.916,0,0,0-.076,1.782,11.583,11.583,0,0,1-.21,2.657c-.017.081-.018.166-.028.269.05-.027.074-.032.082-.046a7.346,7.346,0,0,0,.855-2.663c.011-.106-.007-.239.132-.315A5.586,5.586,0,0,1,78.293,49.9ZM5.83,29.784l-.049.037a.465.465,0,0,0,.023.144c.135.259.271.518.416.772A3.367,3.367,0,0,0,7.74,32.171a4.591,4.591,0,0,0,1.666.419c.524.032,1.049.039,1.574.058.1,0,.2.013.3.021l.266.024c-.983-.585-2.069-.921-3.055-1.469.41.074.813.157,1.208.266s.774.243,1.161.366a10.755,10.755,0,0,0-.957-1.021A4.47,4.47,0,0,0,7.679,29.8c-.445-.094-.892-.175-1.338-.263-.1-.021-.209-.044-.313-.066a6.534,6.534,0,0,0,1.318,1.215A3.553,3.553,0,0,1,5.83,29.784Zm.942,9.725.042-.022c-.008-.037-.015-.074-.024-.11-.08-.322-.185-.641-.234-.967A6.428,6.428,0,0,0,5.836,36.2a2.229,2.229,0,0,0-.8-.888c-.28-.162-.555-.334-.847-.472-.342-.162-.7-.292-1.05-.435l-.046.058c.093.123.191.242.279.369s.164.257.245.385l-.042.027-.779-.783a.265.265,0,0,0-.006.187c.133.423.264.847.405,1.268a7.014,7.014,0,0,0,.522,1.32A6.8,6.8,0,0,0,6.2,39.545c.012.007.033,0,.074,0l-.112-.178C5.937,39,5.7,38.65,5.493,38.279c-.376-.678-.734-1.367-1.1-2.052-.037-.07-.073-.14-.109-.21l.061-.038a8.309,8.309,0,0,1,.529.654c.462.7.9,1.412,1.36,2.116C6.4,39.009,6.592,39.256,6.771,39.508Zm27.631.146a8.359,8.359,0,0,0,1.375-1.414,22.179,22.179,0,0,0,1.384-2.061A19.7,19.7,0,0,0,38.577,32.9a8.459,8.459,0,0,1,1.046-2.146c.055-.079.1-.162.155-.243a.587.587,0,0,0-.268.136c-.427.387-.857.772-1.274,1.169a7.166,7.166,0,0,0-1.469,1.958,19.75,19.75,0,0,0-1.061,2.61c-.181.535-.39,1.061-.6,1.585-.162.4-.349.792-.519,1.19C34.517,39.322,34.463,39.489,34.4,39.654Zm6.01-9.546a4.7,4.7,0,0,0-.944,1.329c-.256.467-.424.981-.657,1.462a22.85,22.85,0,0,0-1.049,2.712,7.233,7.233,0,0,1-.837,1.809c-.162.237-.318.477-.476.716A8.571,8.571,0,0,0,38.2,36.52a2.936,2.936,0,0,1-.3.611A7.8,7.8,0,0,1,36.4,38.717c-.537.444-1.051.917-1.573,1.38a1.274,1.274,0,0,0-.134.179c.5-.242.949-.482,1.415-.673A6.094,6.094,0,0,0,37.182,39a4.708,4.708,0,0,0,1.4-1.534,4.127,4.127,0,0,0,.437-1.219c.143-.65.234-1.313.325-1.974a16.818,16.818,0,0,1,.714-3.223C40.162,30.752,40.278,30.463,40.412,30.108ZM73.9,60.391a.558.558,0,0,0-.018-.1.385.385,0,0,0-.048-.077,4.168,4.168,0,0,1-.792-1.654,8.378,8.378,0,0,0-1.228-2.652,5.548,5.548,0,0,0-2.491-2.051c-.56-.233-1.127-.45-1.691-.672a1.411,1.411,0,0,0-.172-.04.516.516,0,0,0,.045.113,13.48,13.48,0,0,0,1.5,1.621,12.514,12.514,0,0,1,1.553,1.564A10.394,10.394,0,0,1,71.7,58.339a7.329,7.329,0,0,0,1.075,1.787c.066.071.146.165.23.178C73.293,60.349,73.586,60.363,73.9,60.391ZM27.185,19.576l-.064.011.22,1.284-.064.014c-.184-.5-.345-1.012-.481-1.537a.253.253,0,0,0-.058.132c-.025.251-.063.5-.065.755,0,.636-.03,1.277.025,1.909a8.961,8.961,0,0,0,1.227,3.55,13.113,13.113,0,0,1,1.029,2.091,6.764,6.764,0,0,0,.31.671c-.159-.942-.356-1.87-.577-2.792-.181-.756-.393-1.505-.588-2.259a1.559,1.559,0,0,1-.025-.239,16.4,16.4,0,0,1,1.482,4.444.343.343,0,0,0,.059-.158c.031-.312.056-.624.089-.935A6.853,6.853,0,0,0,29,22.75a15.633,15.633,0,0,0-.952-1.617A9.451,9.451,0,0,1,27.185,19.576ZM23.066,53.218c.182.187.375.365.545.563a3.581,3.581,0,0,0,1.7,1.068,5.714,5.714,0,0,0,3.025.111l.891-.2a4.952,4.952,0,0,0-.743-.3,2.447,2.447,0,0,1-.78-.363,12.191,12.191,0,0,1,1.971.4.472.472,0,0,0-.056-.1c-.458-.413-.908-.835-1.378-1.234a4.15,4.15,0,0,0-2.01-1.005,3.293,3.293,0,0,0-1.5.029,8.289,8.289,0,0,1-1.28.231,7.591,7.591,0,0,1-.869.006,1.969,1.969,0,0,0,.244.155c.364.15.723.314,1.1.436a21.72,21.72,0,0,0,2.29.7,5.209,5.209,0,0,1,.552.164.515.515,0,0,1,.122.084l-.026.062A23.492,23.492,0,0,1,23.066,53.218Zm53.12-15.254a17.064,17.064,0,0,1-.5,1.845,4.153,4.153,0,0,1,.056-.7c.035-.23.091-.457.12-.687s.172-.429.123-.713c-.169.284-.322.521-.456.769A11.825,11.825,0,0,0,74.4,41.151a7.931,7.931,0,0,0-.259,1.673,8.829,8.829,0,0,0,.139,1.993,5.616,5.616,0,0,0,.412,1.322,14.03,14.03,0,0,1,.784-4.929c-.07.772-.165,1.541-.258,2.31-.075.621-.161,1.241-.217,1.864a7.315,7.315,0,0,0,.02.86.431.431,0,0,0,.155-.188q.394-.871.783-1.744a7.641,7.641,0,0,0,.682-3.96c-.084-.791-.273-1.57-.416-2.354C76.228,37.991,76.214,37.986,76.186,37.964ZM14.039,75.577c-1.262-.357-2.54-.645-3.788-1.049,1.14.126,2.277.256,3.4.492-.371-.306-.752-.586-1.125-.877A6.1,6.1,0,0,0,7.933,72.9c-.523.058-1.047.1-1.57.151-.064.006-.128.007-.192.01.864.5,1.833.7,2.721,1.1-.386-.066-.769-.143-1.146-.242A9.326,9.326,0,0,0,6.6,73.681a9.083,9.083,0,0,0,3.657,1.96A8.79,8.79,0,0,0,14.039,75.577Zm.436-15.784a2.421,2.421,0,0,1,1.384.309l.266-.453c-.4-.307-.768-.584-1.127-.878a6.509,6.509,0,0,0-2.088-1.152,7.689,7.689,0,0,0-1.676-.267,7.24,7.24,0,0,0-1.732.018c.579.251,1.134.462,1.662.727a10.542,10.542,0,0,1,1.586.8l-.033.075L9.33,57.761c.126.146.279.331.44.509.182.2.365.4.557.594a6.606,6.606,0,0,0,1.126.9,3.9,3.9,0,0,0,.6.346,10.011,10.011,0,0,0,1.194.425,6.473,6.473,0,0,0,2.074.218c.291-.018.29-.026.349-.37Zm3.049-26.854c.268-.179.535-.36.8-.538.32-.213.661-.4.958-.64a4.916,4.916,0,0,0,1.55-2.274c.172-.5.265-1.031.4-1.584L20.6,27.6c-.208.295-.392.572-.592.836a2.129,2.129,0,0,1-.681.716,6.688,6.688,0,0,1,1-1.721l-.4-.224c-.386.329-.742.642-1.109.942a5.168,5.168,0,0,0-1.313,1.534,6.726,6.726,0,0,0-.769,2.784c-.017.257-.025.515-.036.773l.045.014L18.89,29.9A22.046,22.046,0,0,1,17.523,32.939ZM17,24.013c.118.149.194.256.282.354a14.257,14.257,0,0,0,2,1.817A9.313,9.313,0,0,0,22.834,27.9c.768.18,1.547.312,2.32.465l.705.137.021-.061A26.786,26.786,0,0,1,20.393,25.8a19.128,19.128,0,0,1,2.594,1.034c.855.4,1.7.836,2.578,1.179a.9.9,0,0,0-.188-.2c-.355-.284-.717-.561-1.069-.849a17.709,17.709,0,0,0-2.762-1.922,7.461,7.461,0,0,0-2.093-.783c-.734-.147-1.471-.283-2.206-.422a.625.625,0,0,0-.145.02,17.211,17.211,0,0,1,1.431.957l-.037.059Zm66.3,29.3-.037-.055c.42-.3.831-.623,1.264-.908s.909-.555,1.364-.83c-.4,0-.789.055-1.178.086a6.024,6.024,0,0,0-1.575.308,5.355,5.355,0,0,0-1.714.957A5.461,5.461,0,0,0,79.807,55.1c-.1.27-.208.537-.311.806.325-.24.6-.506.9-.746s.6-.446.907-.663a2.243,2.243,0,0,1,1.04-.519c-.157.141-.278.259-.409.365-.6.482-1.2.958-1.8,1.442-.129.1-.237.235-.4.4.114-.019.153-.021.19-.032.636-.205,1.277-.395,1.9-.622a6.039,6.039,0,0,0,2.437-1.549,13.4,13.4,0,0,0,1.45-2.056c.007-.011-.007-.035-.018-.081ZM31.346,16.816a3.349,3.349,0,0,1-.253-1.291,7.535,7.535,0,0,0-.066-.935,4.077,4.077,0,0,0-.682-1.829,16.4,16.4,0,0,0-1.12-1.311,1.749,1.749,0,0,0-.788-.494c-.288-.081-.473,0-.517.291a4.639,4.639,0,0,1-.359,1.057.373.373,0,0,0,.007.372c.2.315.389.635.594.946a2.2,2.2,0,0,1,.377.949c.047.381.072.765.12,1.146a2.3,2.3,0,0,0,.607,1.322c.255-.35.658-.252.992-.35l-.448-1.165.084-.065a1.7,1.7,0,0,0,.079.157c.173.273.359.538.52.817A.869.869,0,0,0,31.346,16.816ZM11.4,22.177l-.04.018c.018.115.031.231.056.345.032.148.087.292.108.44.038.267.064.537.081.806a2.088,2.088,0,0,1-.053.373,12.478,12.478,0,0,0-.545-1.775c-.1.345-.2.639-.279.935a7.679,7.679,0,0,0-.273,2.008,4.8,4.8,0,0,0,1.133,2.945,12.64,12.64,0,0,0,1.738,1.686c.008-.036.021-.058.014-.071-.035-.072-.073-.144-.114-.213a12.05,12.05,0,0,1-1.262-2.816,4.215,4.215,0,0,1-.2-1.581,1.624,1.624,0,0,1,.067-.232,12.866,12.866,0,0,0,1.893,4.425c.017-.428.05-.862.049-1.3,0-.464-.025-.928-.059-1.39a6.938,6.938,0,0,0-.436-1.634,4.172,4.172,0,0,0-.426-.967c-.373-.576-.794-1.12-1.2-1.676C11.574,22.395,11.486,22.287,11.4,22.177Zm7.632,49.267-.063.022-.69-2.911a6.922,6.922,0,0,0-.453,1.783,10.281,10.281,0,0,0,.267,3.609c.222.807.482,1.6.728,2.4.049.161.109.318.167.484a.373.373,0,0,0,.288-.41c-.026-.988-.029-1.976-.136-2.961a1.388,1.388,0,0,1,.027-.669,9.024,9.024,0,0,1,.469,3.5c.229-.179.4-.314.464-.516.152-.513.3-1.031.4-1.556a5.122,5.122,0,0,0-.038-1.84,7.3,7.3,0,0,0-.923-2.606c-.3-.482-.582-.97-.875-1.454-.011-.018-.045-.021-.1-.043A23.057,23.057,0,0,1,19.032,71.444Zm4.4-13.083-.047.039c-.515-.569-1.023-1.144-1.547-1.7a12.209,12.209,0,0,1-1.367-1.9,7.081,7.081,0,0,0,4.352,6.21c-.071-.117-.137-.218-.194-.323-.174-.319-.347-.639-.514-.962-.03-.059-.106-.142.012-.2a16.957,16.957,0,0,0,1.034,1.483,1.118,1.118,0,0,0-.029-.279c-.116-.585-.228-1.171-.351-1.755a7.636,7.636,0,0,0-.609-1.837,5.572,5.572,0,0,0-1.694-1.993,14.13,14.13,0,0,1-1.685-1.29c-.109-.11-.221-.219-.362-.358a1.068,1.068,0,0,0,.026.156,8.591,8.591,0,0,0,1.121,2.106c.488.669.986,1.33,1.473,2C23.188,57.949,23.3,58.159,23.429,58.361ZM21.255,14.716l-.071.037a11.39,11.39,0,0,0-.689-1.171c.005.259.049.505.072.753.059.662.108,1.324.163,1.986.024.292.052.584.084.875.045.4.075.806.147,1.2a11.518,11.518,0,0,0,1.118,3.229,11.908,11.908,0,0,0,1.309,1.888.893.893,0,0,0,.167.131,1.466,1.466,0,0,0-.15-.381,11.606,11.606,0,0,1-.866-2.677c-.22-.955-.38-1.925-.566-2.888a7.543,7.543,0,0,0-.287-1.423c-.007-.018.031-.054.058-.1.048.131.079.238.126.338a8.2,8.2,0,0,1,.522,1.675c.259,1.144.5,2.294.753,3.439.077.344.188.68.292,1.017a.871.871,0,0,0,.116.193c0-.815-.018-1.624,0-2.431a12.885,12.885,0,0,0-.078-2.326A5.222,5.222,0,0,0,22.7,16a14.2,14.2,0,0,0-1.646-2.1c-.042-.044-.091-.081-.178-.157Zm14.092,36.94c-.155.128-.261.2-.352.293-.294.292-.583.591-.873.887a8.855,8.855,0,0,0-1.282,1.648A12.041,12.041,0,0,0,31.649,57.3a12.526,12.526,0,0,0-.519,4.945c.05.448.13.893.2,1.339l.071.012a31.056,31.056,0,0,0,2.014-4.356A32.021,32.021,0,0,0,35.348,51.656Zm3.832-30.209c.337-.152.622-.308.925-.408a1.349,1.349,0,0,1,.992.014,1.178,1.178,0,0,1-.225.076,2.065,2.065,0,0,0-1.085.425,3.267,3.267,0,0,1-.569.344.833.833,0,0,0-.4.351,2.8,2.8,0,0,1-.757.777c-.06.047-.116.1-.174.148a5.235,5.235,0,0,0,2.036-.663,2.678,2.678,0,0,1,2.019-.293,2.319,2.319,0,0,0,1.4-.147,3.651,3.651,0,0,0,1.032-.626c.15-.13.3-.265.468-.42l-.448-.589a.868.868,0,0,0,.448-.7.453.453,0,0,0-.174-.458,4.253,4.253,0,0,0-.474-.325c-.334-.188-.68-.356-1.016-.542a2.13,2.13,0,0,0-1.953-.11c-.447.188-.894.379-1.336.578a1.7,1.7,0,0,0-.443.257c-.338.3-.658.628-.983.946-.017.017-.017.052-.025.079.159.12.318.229.463.353a.615.615,0,0,1,.243.53A2.542,2.542,0,0,0,39.179,21.448ZM21.525,67.855c.04-.03.063-.038.068-.051.109-.368.222-.734.319-1.1a1.4,1.4,0,0,0,.039-.418,4.738,4.738,0,0,0-.073-.511c-.069-.43-.171-.857-.2-1.289a5.411,5.411,0,0,1,.821-3.209c.163-.275.33-.548.471-.783-.39-.359-.77-.677-1.112-1.032a6.594,6.594,0,0,1-1.485-2.41,7.681,7.681,0,0,1-.342-1.876,8.508,8.508,0,0,0-.237-1.65,1.451,1.451,0,0,1-.115-.528,3.412,3.412,0,0,0-.212-1.033,2.268,2.268,0,0,1-.307.672.707.707,0,0,0-.137.8c.021.067.027.139.043.208a12.149,12.149,0,0,1,.142,2.267,11.532,11.532,0,0,0,.413,2.753,7.592,7.592,0,0,1,.19,3.717,1.132,1.132,0,0,0,.093.757A21.379,21.379,0,0,1,21.3,66.978C21.37,67.266,21.447,67.555,21.525,67.855ZM34.432,23.32l.288.042a4.354,4.354,0,0,0,3.1-.7,2.382,2.382,0,0,0,.957-1.073c.2-.505.063-.693-.47-.6a4.271,4.271,0,0,0-.784.231,1.761,1.761,0,0,1-1.749-.245,1.894,1.894,0,0,0-1.129-.38,1.659,1.659,0,0,1-1.4-.658,8.75,8.75,0,0,1-.509-.787c-.251-.416-.48-.845-.741-1.253a1.563,1.563,0,0,0-.787-.684,3.622,3.622,0,0,0-1.342-.2,2.118,2.118,0,0,0-.31.059,2.9,2.9,0,0,0,.123.317,8.265,8.265,0,0,1,.67,1.818,6.237,6.237,0,0,0,1.006,2.087c.169.231.381.429.616.689-.012-.4-.043-.73.257-.968a2.3,2.3,0,0,0,.178,1.125.044.044,0,0,1,.005.029c-.055.174.056.275.179.343.352.2.708.389,1.073.561a.5.5,0,0,0,.322-.009c.347-.1.689-.225,1.034-.337a.818.818,0,0,1,.147-.019C35.117,22.916,35.117,22.916,34.432,23.32Zm-15.92,33.7-.054-.027c-.087.108-.183.209-.259.324q-.662,1-1.315,2a7.459,7.459,0,0,0-.891,1.916,9.322,9.322,0,0,0-.343,3.423c.039.535.08,1.069.13,1.6.02.212.065.42.1.63a29.628,29.628,0,0,1,1.2-3.9c-.341,1.38-.356,2.821-.842,4.2a.565.565,0,0,0,.113-.064c.569-.618,1.145-1.23,1.7-1.859a5.255,5.255,0,0,0,1.018-1.745,7.832,7.832,0,0,0,.461-2.645,6.489,6.489,0,0,0-.2-1.709,8.837,8.837,0,0,1-.349-1.75,1.038,1.038,0,0,0-.076-.213c-.082.333-.136.609-.22.876q-.5,1.577-1.01,3.147a3.26,3.26,0,0,1-.181.381c-.034-.045-.056-.06-.055-.075a1.541,1.541,0,0,1,.016-.18,15.726,15.726,0,0,1,.5-2.339c.137-.455.276-.91.409-1.366C18.413,57.443,18.459,57.231,18.512,57.021Zm5.347-12.379a5.248,5.248,0,0,1,.059.713,2.177,2.177,0,0,0,.235.993,5.655,5.655,0,0,1,.269.709,2.289,2.289,0,0,1,.084.6,1.092,1.092,0,0,1-.352.72.86.86,0,0,0-.248.57.649.649,0,0,1-.512.662c-.212.068-.421.143-.633.21a3.528,3.528,0,0,1-.554.159,5.4,5.4,0,0,1-2.723-.24,1.306,1.306,0,0,0-.177-.041,22.784,22.784,0,0,0,2.365,2.146.934.934,0,0,0,.3.129,3.7,3.7,0,0,0,2.183-.032,4.121,4.121,0,0,1,1.71-.3,11.5,11.5,0,0,1,1.753-3.75c-.114-.057-.2-.1-.29-.144a2.606,2.606,0,0,1-1.112-.913c-.351-.506-.706-1.011-1.026-1.537A1.334,1.334,0,0,0,23.859,44.641ZM5.215,62.424l-.037.013c.445.928.874,1.865,1.343,2.781a6.264,6.264,0,0,0,.89,1.333,11.749,11.749,0,0,0,1.832,1.763,10.728,10.728,0,0,0,1.381.875,27.213,27.213,0,0,1,2.434,1.295c.032.021.076.023.054.017-.215-.235-.452-.511-.708-.768-.492-.494-1-.975-1.492-1.466a2.185,2.185,0,0,1-.208-.283l.041-.027,2.693,2.072a.38.38,0,0,0-.024-.1,11.161,11.161,0,0,1-.956-2.162,6.987,6.987,0,0,0-1.8-2.74,8.607,8.607,0,0,0-2.21-1.477c-.842-.416-1.721-.758-2.585-1.131a.693.693,0,0,0-.153-.013,23.727,23.727,0,0,1,3.14,3.473c-.62-.56-1.213-1.145-1.813-1.723S5.822,63,5.215,62.424Zm30.758-45.6c.14.128.268.2.314.3a1,1,0,0,1,.01.373c.419-.116.623.024.48.525l.518.023c.164-.151.336-.323.522-.478a.908.908,0,0,1,.633-.293,10.013,10.013,0,0,0-1.131,1.209c.5.1.52.263.291.574a1.765,1.765,0,0,1,.322.336c.1.189-.086.3-.225.431l.457.175.62-.733a2.772,2.772,0,0,1,1.076-.817,9.351,9.351,0,0,0,.883-.4,2.662,2.662,0,0,1,1.309-.329.266.266,0,0,0,.191-.054,1.14,1.14,0,0,0,.311-1.215,4.587,4.587,0,0,1-.254-1.09,1.286,1.286,0,0,0-.245-.607c-.133-.178-.28-.346-.427-.513a1.22,1.22,0,0,0-.9-.439,1.961,1.961,0,0,1-1.21-.414,1.013,1.013,0,0,0-1.091-.092,2.2,2.2,0,0,0-1.021.962C36.9,15.107,36.44,15.983,35.973,16.826ZM22.614,36.659a1.3,1.3,0,0,0-.269.024.554.554,0,0,1-.467-.048.692.692,0,0,0-.171-.054,1.793,1.793,0,0,0-1.441.283,2.8,2.8,0,0,1-1,.413c-.3.051-.595.129-.9.16A2.6,2.6,0,0,0,16.1,39.77a4.86,4.86,0,0,1-.06.512c-.087.4-.187.8-.288,1.23a.489.489,0,0,0,.438.191.473.473,0,0,1,.256.132,1.185,1.185,0,0,1,.166.222,4.524,4.524,0,0,1,.9-1.15,3.223,3.223,0,0,1,1.256-.717.89.89,0,0,1-.219.315,8.959,8.959,0,0,0-1.43,1.47.478.478,0,0,0,.006.666.565.565,0,0,1,.1.673c-.012.023,0,.058,0,.087.194.212.194.211.435.183.171-.02.343-.03.513-.055a2.7,2.7,0,0,0,1.047-.285c.26-.157.518-.317.777-.474a2.317,2.317,0,0,0,.919-1.174,3.669,3.669,0,0,0,.173-2.114,1.52,1.52,0,0,1,.62-1.631c.165-.117.325-.241.488-.361A.982.982,0,0,0,22.614,36.659Zm.957,12.427a1.256,1.256,0,0,1,.41-1.122.552.552,0,0,0,.139-.418,2.615,2.615,0,0,0-.287-1.076,2.086,2.086,0,0,1-.249-1.136A1.472,1.472,0,0,0,23,43.939a2.979,2.979,0,0,0-2.77-.549,16.5,16.5,0,0,1-1.805.4,8.765,8.765,0,0,1-1.014.065l-.105.2.458.313a5.074,5.074,0,0,1,1.1.99.389.389,0,0,1,.128.389l-1.943-1.182-.515.187-.252.423a2.424,2.424,0,0,1,.755,1.209,1.9,1.9,0,0,0,.449.745c.119.124.234.253.353.377a2.267,2.267,0,0,0,1.447.759,5.564,5.564,0,0,0,.847.014c.383-.025.762-.094,1.145-.122a1.422,1.422,0,0,1,1.067.346c.2.171.394.345.591.517A.5.5,0,0,0,23.571,49.086Zm-8.943-8.66a1.378,1.378,0,0,1,.164.269c.068.242.124.488.176.734.034.162.073.187.218.125a.389.389,0,0,0,.265-.336c.059-.634.119-1.268.174-1.9a.535.535,0,0,0-.038-.177c-.141-.507-.26-1.021-.431-1.517a2,2,0,0,0-.816-1.1,2.15,2.15,0,0,0-.9-.232,1.48,1.48,0,0,1-.885-.425,4.225,4.225,0,0,0-.325-.317.38.38,0,0,0-.526,0c-.1.073-.186.156-.277.236a1.508,1.508,0,0,1-.691.361,6.736,6.736,0,0,1-.864.158.705.705,0,0,0-.679.716,2.5,2.5,0,0,0,.159,1.072,5.031,5.031,0,0,1,.336,1.5,3.465,3.465,0,0,0,.17.919,3.261,3.261,0,0,0,1.069,1.333,1.147,1.147,0,0,0,.781.257c.464,0,.928.056,1.392.084.144.009.289,0,.434,0a.758.758,0,0,0-.254-.231,2.915,2.915,0,0,1-.852-.809c-.057-.081-.125-.162-.029-.28a1.054,1.054,0,0,1,.128.076c.4.322.808.642,1.207.969a.357.357,0,0,0,.468.066c-.162-.3-.322-.6-.474-.891s-.326-.608-.455-.925a2.869,2.869,0,0,1-.38-.881,9.452,9.452,0,0,1,1.553,2.3l.255-.069C14.681,41.163,14.481,40.846,14.629,40.426Zm20.946-23.46c.07-.192.125-.333.173-.476a6.9,6.9,0,0,1,.965-1.882,1.5,1.5,0,0,0,.282-.722,4.362,4.362,0,0,0,.036-.454,1.874,1.874,0,0,0-.881-1.754,3.177,3.177,0,0,1-.932-.808,3.012,3.012,0,0,0-.188-.238.953.953,0,0,0-1.161-.223c-.082.04-.161.085-.243.126a1.689,1.689,0,0,1-1.085.167,1.305,1.305,0,0,0-1.313.52,2.3,2.3,0,0,0-.355,1.323,1.476,1.476,0,0,0,.1.649,6.759,6.759,0,0,1,.481,2.12c.02.293.022.588.061.878.057.422.121.847.6,1.032a1.557,1.557,0,0,1,.328.218c.1.074.2.154.267.209a2.027,2.027,0,0,1,.2-.372c.129-.15.277.016.435.014.038-.3.274-.217.47-.217.17-.576-.058-1.152.068-1.781a1.393,1.393,0,0,1,.105.232,7.869,7.869,0,0,1,.161.9.638.638,0,0,0,.335.544c.158-.086.324-.207.522-.069a.093.093,0,0,0,.084-.017C35.263,16.724,35.408,16.8,35.575,16.965ZM13.7,42.522c-.342-.043-.661-.09-.981-.12a6.542,6.542,0,0,0-.937-.054c-.494.025-.986.092-1.479.142a3.15,3.15,0,0,0-2.074,1.082c-.292.322-.6.631-.917.928-.206.193-.446.348-.663.53a1.149,1.149,0,0,0-.371,1.312.854.854,0,0,1-.087.78.565.565,0,0,0,.02.678,2.258,2.258,0,0,0,.866.911c.253.127.5.26.763.368a1.543,1.543,0,0,1,.659.416,1.013,1.013,0,0,0,.566.326,1.7,1.7,0,0,0,1.042-.087c.692-.257,1.372-.546,2.045-.848a1.664,1.664,0,0,0,.55-.417,5.84,5.84,0,0,0,.574-.815,20.726,20.726,0,0,0,1.206-2.307c.052-.118.108-.234.169-.366l-.281-.185c-.7.563-1.263,1.245-2,1.73a6.688,6.688,0,0,1,.738-1c.275-.329.536-.669.775-.969l-.292-.364c-.66.39-1.321.762-1.962,1.164a8.238,8.238,0,0,1-1.348.688,2.207,2.207,0,0,1-.281.071.415.415,0,0,1,.162-.191c.34-.238.7-.452,1.018-.714a9.442,9.442,0,0,1,2.3-1.454c.1-.041.19-.1.283-.142l-.179-.36c-.386.067-.755.124-1.121.2s-.735.164-1.1.247a.221.221,0,0,1,.091-.172,3.577,3.577,0,0,1,2.1-.6c.153,0,.22-.036.273-.152ZM15.123,44.9l-.095-.033a.938.938,0,0,0-.166.194c-.343.741-.675,1.486-1.018,2.226a5.766,5.766,0,0,1-.963,1.427,1.987,1.987,0,0,0-.365.585c-.042.1-.072.211-.117.312a4.661,4.661,0,0,0-.409,2.244,1.777,1.777,0,0,0,.747,1.458,5.356,5.356,0,0,1,1.065.94,1.031,1.031,0,0,0,.837.355,1.657,1.657,0,0,0,.641-.162,3.536,3.536,0,0,1,.454-.161,1.619,1.619,0,0,1,.869.051.821.821,0,0,0,.641-.1,1.269,1.269,0,0,0,.545-.633,1.692,1.692,0,0,1,.687-.786,1.213,1.213,0,0,0,.572-.982,4.387,4.387,0,0,0-.727-2.738,1.083,1.083,0,0,0-.211-.216,4.485,4.485,0,0,1-1.195-1.733c-.172-.454-.343-.909-.491-1.371a1.212,1.212,0,0,0-.775-.808c-.01.126-.026.24-.028.355-.008.444,0,.889-.021,1.332-.034.707-.094,1.412-.13,2.119-.018.363,0,.727-.013,1.091a2.237,2.237,0,0,1-.06.339H15.32a3.923,3.923,0,0,1-.2-1.275c-.052-.452-.061-.909-.074-1.365s.006-.89-.013-1.334S15.151,45.347,15.123,44.9Zm4.233,5.548-.053.021a1.458,1.458,0,0,0,.042.235c.046.133.109.259.158.391.172.464.354.925.508,1.394a1.831,1.831,0,0,0,.584.791,18.312,18.312,0,0,0,1.974,1.413,5.384,5.384,0,0,1,1.8,1.944,9.025,9.025,0,0,1,.879,2.733,10.922,10.922,0,0,0,.525,2.425,1.265,1.265,0,0,1,.048.276c-.526-.342-1.045-.63-1.6-.984l.038.217a5.341,5.341,0,0,1,.116,1.418,5.41,5.41,0,0,1-.98,2.453c-.232.355-.466.708-.693,1.065a3.472,3.472,0,0,0-.266.473,5.268,5.268,0,0,0-.455,1.968c-.017.657-.017,1.315.014,1.971.04.839.123,1.675.179,2.513.016.248,0,.5,0,.81.173-.149.316-.269.455-.394.9-.812,1.8-1.627,2.709-2.436a.485.485,0,0,0,.176-.444,8.145,8.145,0,0,1,.233-2.768c.237-.869.49-1.733.717-2.605a13.848,13.848,0,0,0,.348-1.6,11.626,11.626,0,0,0-.114-3.506c-.122-.727-.3-1.444-.468-2.163-.12-.522-.265-1.038-.385-1.56-.082-.353-.14-.712-.21-1.071a5.021,5.021,0,0,1-.629-.211,5.66,5.66,0,0,1-1.758-1.325,7.784,7.784,0,0,0-1.577-1.459A10.56,10.56,0,0,1,19.679,50.8C19.568,50.686,19.463,50.566,19.356,50.448Zm2.494-7.759a1.057,1.057,0,0,0,.178-.012c.5-.132,1-.255,1.494-.4A3.616,3.616,0,0,0,24.65,41.7c.4-.3.805-.614,1.23-.886a3.731,3.731,0,0,1,2.292-.554,8.361,8.361,0,0,0,1.785-.049.967.967,0,0,1,.6-.014c-.067.1-.113.179-.171.25-.116.14-.251.265-.355.413-.2.28-.379.574-.57.859a3.71,3.71,0,0,1-3.007,1.632,7.686,7.686,0,0,1-1.9-.158,8.859,8.859,0,0,0-2.2-.178c-.085.006-.17.024-.3.044a1.448,1.448,0,0,0,.13.068,3.058,3.058,0,0,1,1.278.791.639.639,0,0,0,.317.158,18.955,18.955,0,0,0,2.386.445,3.652,3.652,0,0,1,2.522,1.244c.117.136.238.267.364.407.059-.054.107-.092.147-.136.559-.614,1.129-1.219,1.672-1.847.417-.482.8-.991,1.2-1.493.09-.115.2-.228.159-.406-.07-.3-.109-.6-.2-.889a6.638,6.638,0,0,0-1.853-2.877,10.535,10.535,0,0,0-2.425-1.6,13.675,13.675,0,0,1-1.615-.962,7.255,7.255,0,0,1-2.578-3.632c-.2-.583-.335-1.184-.5-1.777-.065-.228-.137-.454-.209-.69.21.01.206.013.288.1a5.867,5.867,0,0,0,2.514,1.588,13.141,13.141,0,0,1,2.915,1.34,7.1,7.1,0,0,1,2.095,1.957,16.658,16.658,0,0,1,1.181,2.015,5.305,5.305,0,0,1,.646,3.1,3.016,3.016,0,0,0,.2,1.431,1.06,1.06,0,0,0,.093.159c.035-.017.048-.019.052-.026.054-.1.108-.192.161-.289a5.811,5.811,0,0,0,.751-2.934c-.007-.514-.079-1.028-.135-1.54A7.751,7.751,0,0,0,31.573,32.5a23.527,23.527,0,0,0-2.509-2.462,2.779,2.779,0,0,0-.82-.557,16.191,16.191,0,0,0-3.933-.851,11.1,11.1,0,0,1-2.634-.568,1.508,1.508,0,0,0-.213-.044c-.039.2-.081.371-.108.548a5.277,5.277,0,0,1-.56,1.908,8.43,8.43,0,0,1-.639.989,5.244,5.244,0,0,1-1.432,1.2,5.542,5.542,0,0,0-1.38,1.031,4.228,4.228,0,0,0-.93,1.37c-.083.249-.171.5-.257.745a9.3,9.3,0,0,0-.435,2.683,1.969,1.969,0,0,0,.056.341c.1-.158.165-.246.213-.344a2.444,2.444,0,0,1,.791-.9,3.143,3.143,0,0,1,1.611-.568,3.931,3.931,0,0,0,1.841-.531,1.769,1.769,0,0,1,1.686-.126.528.528,0,0,0,.431,0,.523.523,0,0,1,.741.361,2.326,2.326,0,0,1,.1.717,5.284,5.284,0,0,0,.19,1.469,3.475,3.475,0,0,1,.1.9,3.141,3.141,0,0,1-.786,1.964C22.441,42.084,22.152,42.365,21.85,42.689Zm4.26-9.226a2.354,2.354,0,0,1,.284.133c.392.249.77.522,1.172.753a14.066,14.066,0,0,1,2.384,1.617,5.922,5.922,0,0,1,1.028,1.23,8.194,8.194,0,0,1,.87,1.865c.05.149.109.295.184.5a1.235,1.235,0,0,0,.025-.146c0-.071,0-.142-.008-.213a4.89,4.89,0,0,0-.6-1.991c-.294-.553-.6-1.1-.94-1.628a5.336,5.336,0,0,0-1.538-1.659c-.424-.276-.836-.573-1.277-.818-.69-.382-1.4-.727-2.1-1.088-.386-.2-.773-.395-1.156-.6-.12-.064-.23-.149-.344-.224.207.355.517.622.694.992a4.975,4.975,0,0,1-1.136-1,.4.4,0,0,0,.027.143,12.918,12.918,0,0,0,.872,1.936,6.573,6.573,0,0,0,2.12,2.38c.635.43,1.326.778,2,1.144a7.044,7.044,0,0,1,1.813,1.308l.788.833a1.441,1.441,0,0,0-.064-.244c-.118-.235-.234-.472-.368-.7a5.92,5.92,0,0,0-1.158-1.514c-.527-.458-1.075-.892-1.624-1.322a12.569,12.569,0,0,1-1.767-1.427,2.032,2.032,0,0,1-.175-.27ZM.508,44.015a1.115,1.115,0,0,1,.451-.65c.445-.346.851-.744,1.3-1.087a5.242,5.242,0,0,1,2.373-1.093,6.74,6.74,0,0,1,2,.065c.591.083,1.186.135,1.779.2.015,0,.032-.014.069-.031-.169-.108-.332-.2-.484-.311a7.167,7.167,0,0,1-.866-.66,4.524,4.524,0,0,0-1.3-.827,5.171,5.171,0,0,1-1.39-.914,4.97,4.97,0,0,1-1.4-2.172c-.175-.59-.332-1.185-.5-1.776-.076-.269-.159-.537-.257-.863.138.03.231.044.32.07.3.088.6.192.9.27a5.94,5.94,0,0,1,1.57.636A3.421,3.421,0,0,1,6.4,36.415a6.3,6.3,0,0,1,.514,2.05,3.788,3.788,0,0,0,.84,1.921A2.024,2.024,0,0,0,8.529,41c.57.261,1.14.525,1.71.786a1.953,1.953,0,0,0,.229.065c-.193-.232-.334-.424-.5-.594a2.189,2.189,0,0,1-.546-1.258c-.057-.38-.106-.761-.176-1.138a2.45,2.45,0,0,0-.16-.457,2.87,2.87,0,0,1-.143-1.728,1.5,1.5,0,0,1,.622-.865c.239-.185.487-.362.706-.569a2.308,2.308,0,0,0,.339-.464,1.35,1.35,0,0,1,1.857-.474c.326.16.636.354.955.529a1.735,1.735,0,0,0,.279.121,2.2,2.2,0,0,1,1.1.867c.1.149.205.3.315.462.1-.073.073-.162.034-.241-.076-.154-.155-.307-.245-.453a8.136,8.136,0,0,0-1.737-2.014,2.582,2.582,0,0,0-1.264-.479,9.865,9.865,0,0,0-1.328-.1c-.415-.013-.831.023-1.245.007a4.313,4.313,0,0,1-2.24-.672A3.993,3.993,0,0,1,5.63,30.436c-.176-.427-.3-.877-.445-1.316-.028-.083-.07-.161-.116-.268.064,0,.117-.023.151-.005a5.973,5.973,0,0,0,1.981.521,6.741,6.741,0,0,1,1.565.36,4.154,4.154,0,0,1,1.456.9c.453.462.919.912,1.375,1.37a5.647,5.647,0,0,0,1.161.82,6.322,6.322,0,0,1,2.163,2.129.571.571,0,0,0,.224.206c-.038-.35-.055-.7-.117-1.048a13.106,13.106,0,0,0-.337-1.539,6.008,6.008,0,0,0-.84-1.741,5.576,5.576,0,0,0-.92-.873c-.473-.411-1-.768-1.43-1.218a5.326,5.326,0,0,1-1.492-3.086,4.876,4.876,0,0,1,.138-1.839c.235-.885.528-1.755.811-2.676.116.151.209.288.318.411.293.334.573.683.894.988a6.5,6.5,0,0,1,1.63,2.7,6.473,6.473,0,0,1,.432,2.255,11.953,11.953,0,0,1-.1,1.331,3.938,3.938,0,0,0,.405,2.294,10.565,10.565,0,0,1,.7,2.031,20.207,20.207,0,0,1,.36,2.739l.519-1.368a.783.783,0,0,1,.082-.2,1.763,1.763,0,0,0,.216-1.4,4.98,4.98,0,0,1,.267-2.389,5.048,5.048,0,0,1,1.66-2.38c.381-.3.775-.582,1.162-.873.072-.054.137-.116.238-.2a14.631,14.631,0,0,1-2.143-1.8c-.62-.674-1.245-1.344-1.913-2.064.128.026.192.041.257.053.379.065.756.137,1.136.193.89.131,1.786.228,2.671.388a7.09,7.09,0,0,1,2.414.955,22.282,22.282,0,0,1,2.753,2.042c.325.273.624.581.967.83.537.389,1.1.741,1.655,1.109l.059-.066c-.086-.084-.171-.17-.259-.252-.548-.508-1.116-1-1.642-1.529a12.322,12.322,0,0,1-1.437-1.713c-.6-.874-1.211-1.734-1.893-2.547a6.164,6.164,0,0,1-.7-1.133,10.2,10.2,0,0,1-1.045-2.9c-.107-.6-.185-1.2-.232-1.8-.088-1.128-.117-2.259-.279-3.381a4.007,4.007,0,0,1-.023-.912c.041-.008.056-.015.059-.011.548.68,1.285,1.17,1.854,1.825a13.176,13.176,0,0,1,1.07,1.395,5.955,5.955,0,0,1,.911,3.288c.007.707-.007,1.413-.014,2.12,0,.312-.009.625-.023.937a4.957,4.957,0,0,0,.614,2.417,9.318,9.318,0,0,0,2.064,2.755c.519.481,1.036.963,1.571,1.426.44.382.9.736,1.39,1.082-.142-.292-.286-.582-.425-.876-.308-.648-.6-1.3-.922-1.945-.248-.5-.511-.989-.794-1.467a8.976,8.976,0,0,1-1.082-2.776,9.205,9.205,0,0,1-.043-3.023q.121-.978.25-1.954a.686.686,0,0,1,.048-.136c.178-.009.213.125.262.227.158.328.316.656.458.991a12.272,12.272,0,0,0,1.18,2.049,9.679,9.679,0,0,1,1.308,2.594,6.758,6.758,0,0,1,.293,1.945c0,.839-.063,1.677-.094,2.516a10.02,10.02,0,0,0,.2,2.294.562.562,0,0,0,.123.266c.53.571,1.068,1.134,1.6,1.7a1.518,1.518,0,0,0,.143.108c-.078-.249-.13-.442-.2-.629a8.592,8.592,0,0,1-.463-2.438,13.852,13.852,0,0,1,.27-3.412,8,8,0,0,1,.519-1.487,5.449,5.449,0,0,0,.194-.7.313.313,0,0,0-.022-.147c-.057-.2-.126-.4-.173-.608a.478.478,0,0,0-.181-.3,5.668,5.668,0,0,1-1.89-2.695.835.835,0,0,0-.411-.488,4.173,4.173,0,0,1-1.763-1.709,5.237,5.237,0,0,1-.564-1.847c-.055-.574-.086-1.15-.143-1.724-.039-.391-.117-.779-.157-1.17a1.8,1.8,0,0,1,.2-1.024,6.627,6.627,0,0,0,.346-.774.614.614,0,0,1,.872-.445,2.665,2.665,0,0,1,1.041.715c.306.31.6.632.9.948a.241.241,0,0,0,.065.037c.067-.287.125-.57.2-.849a1.557,1.557,0,0,1,1.386-1.128,3.564,3.564,0,0,1,.6.008,1.3,1.3,0,0,0,.672-.15c.172-.086.344-.175.523-.243a1.187,1.187,0,0,1,1.244.243,2.867,2.867,0,0,1,.416.441,2.391,2.391,0,0,0,.635.558,2.566,2.566,0,0,1,.77.678,2.133,2.133,0,0,1,.45,1.564c0,.027.007.057.077.143a1,1,0,0,1,.1-.179,2.213,2.213,0,0,1,.97-.658,1.224,1.224,0,0,1,1.179.217,1.888,1.888,0,0,0,1.066.373,1.472,1.472,0,0,1,1.084.533,3.047,3.047,0,0,1,.721,1.038,4.08,4.08,0,0,1,.1.413,8.388,8.388,0,0,0,.194.98,1.242,1.242,0,0,1-.258,1.271.6.6,0,0,0-.051.075.279.279,0,0,0-.012.057,1.366,1.366,0,0,1,.18.054c.238.107.483.2.709.333.419.242.828.5,1.236.759a.851.851,0,0,1,.124,1.462.235.235,0,0,0-.038.047c0,.018,0,.043.012.053a1.133,1.133,0,0,1,.129,1.5,4.823,4.823,0,0,1-.59.728,5.436,5.436,0,0,1-1.613,1.27,3.145,3.145,0,0,1-2.239.269,4.046,4.046,0,0,0-1.384-.13,4.38,4.38,0,0,1-1.475-.146,3.108,3.108,0,0,0-.9-.108c-.615,0-1.232-.011-1.846-.044a3.648,3.648,0,0,1-.74-.15.641.641,0,0,0-.5.025c-.115.06-.252.078-.367.139a.867.867,0,0,0-.25.2,4.656,4.656,0,0,0-.86,1.856,8.691,8.691,0,0,0-.193,2.534,8.894,8.894,0,0,0,.747,3.421c.288.647.581,1.292.846,1.948a10.969,10.969,0,0,1,.864,3.8,5.5,5.5,0,0,0,.081.586c.116-.042.125-.147.152-.235.14-.465.284-.93.416-1.4a14,14,0,0,1,1.495-3.508,7.038,7.038,0,0,1,1.155-1.363,22.758,22.758,0,0,1,2.783-2.2c.223-.157.436-.329.657-.489a1.809,1.809,0,0,1,.223-.12l.05.045a2.791,2.791,0,0,1-.167.362,7.69,7.69,0,0,0-.914,2.4,34.169,34.169,0,0,0-.53,3.543,6.427,6.427,0,0,1-.8,2.528,4.706,4.706,0,0,1-1.7,1.7c-.438.249-.9.461-1.352.682a11.091,11.091,0,0,0-1.586.892,4.293,4.293,0,0,0-1.208,1.346,19.04,19.04,0,0,1-2.284,2.909c-.457.513-.932,1.01-1.415,1.532a3.869,3.869,0,0,0,1.242,1.53l-.026.053a1.414,1.414,0,0,1-.182.011c-.383-.023-.768-.04-1.15-.077a6.474,6.474,0,0,1-.838-.131.235.235,0,0,0-.3.115,11.168,11.168,0,0,0-1.575,3.333.906.906,0,0,0-.025.118.935.935,0,0,0,0,.108c.14.04.285.075.427.122a4.789,4.789,0,0,1,1.99,1.347c.25.265.476.552.729.814.181.188.39.349.585.524a.72.72,0,0,1,.078.1c-.041.029-.071.067-.1.07a6.536,6.536,0,0,0-1.474.453,5.21,5.21,0,0,1-2.146.326c-.079-.006-.159,0-.262,0a1.551,1.551,0,0,0,.017.221q.325,1.389.656,2.777a16.519,16.519,0,0,1,.449,4.4,10.444,10.444,0,0,1-.2,1.565c-.219,1.172-.481,2.337-.689,3.511-.1.576-.122,1.167-.178,1.751a.624.624,0,0,0,.034.137c.24-.241.472-.446.672-.677.649-.749,1.3-1.5,1.922-2.269.372-.464.684-.976,1.023-1.466.092-.133.176-.272.279-.4a.439.439,0,0,0,.053-.451,16.359,16.359,0,0,1-.587-2.6,13.308,13.308,0,0,1-.046-3.089,10.986,10.986,0,0,1,.784-3.14,11.412,11.412,0,0,1,2.651-3.737,14.971,14.971,0,0,1,2.611-2.026c.871-.532,1.755-1.045,2.636-1.562a18.266,18.266,0,0,0,2.626-1.851,6.211,6.211,0,0,0,2.307-4.211c.086-.764.177-1.528.224-2.3.039-.632.017-1.267.02-1.9,0-.89-.027-1.781.02-2.669a10.253,10.253,0,0,1,.507-2.83,6.63,6.63,0,0,1,2.854-3.654A9.281,9.281,0,0,1,50.2,28c1.151-.224,2.311-.406,3.459-.647A9.416,9.416,0,0,0,57.938,25.3a9.628,9.628,0,0,0,3.385-6.6q.16-1.723.241-3.452a22.412,22.412,0,0,1,.812-5.115,13.831,13.831,0,0,1,1.406-3.285,6.6,6.6,0,0,1,1.857-2.062A3.774,3.774,0,0,1,67.6,4.129a1.48,1.48,0,0,1,.949.266,1,1,0,0,1,.254.292c.027.042-.008.124-.016.2-.283-.068-.534-.144-.79-.184a1.926,1.926,0,0,0-.539,0,3.908,3.908,0,0,0-2.622,1.762c-.23.307-.406.653-.618.974A9.773,9.773,0,0,0,63.3,9.508a17.294,17.294,0,0,0-.565,2.014,18.27,18.27,0,0,0-.392,4.465,13.846,13.846,0,0,1-.111,2.3,14.78,14.78,0,0,1-.917,3.7,10.647,10.647,0,0,1-1.762,2.816,10.122,10.122,0,0,1-3.425,2.567,11.186,11.186,0,0,1-3.02.9,33.443,33.443,0,0,0-3.458.664,7.425,7.425,0,0,0-2.553,1.17,5.18,5.18,0,0,0-1.273,1.375A8.026,8.026,0,0,0,44.7,34.632a20.021,20.021,0,0,0-.138,3.665c.019.868-.026,1.739-.086,2.606a19.956,19.956,0,0,1-.249,1.984c-.071.415-.216.817-.338,1.258.276.228.558.49.868.712.642.459,1.3.9,1.949,1.343a33.509,33.509,0,0,0,3.763,2.1q.46.234.919.47a14.851,14.851,0,0,0,2.739.977c.564.164,1.126.342,1.7.472a18.067,18.067,0,0,0,3.6.475,8.234,8.234,0,0,0,2.225-.235,3.691,3.691,0,0,0,1.815-.925,7.341,7.341,0,0,0,1.316-1.846c.226-.452.473-.895.738-1.324.329-.532.676-1.052,1.035-1.564.266-.381.573-.733.844-1.11.5-.69.983-1.387,1.467-2.086a28.206,28.206,0,0,0,2.047-3.579,25.949,25.949,0,0,0,1.891-4.889,10.129,10.129,0,0,0,.354-2.122c.013-.282.024-.566.011-.848-.043-.94-.11-1.88-.141-2.82a9.417,9.417,0,0,1,.032-1.839,1.24,1.24,0,0,0,0-.169c-.1.012-.192.016-.278.034a6.389,6.389,0,0,1-2.831-.036,4.8,4.8,0,0,1-1.726-.858c-.283-.21-.591-.386-.889-.576-.057-.037-.117-.068-.188-.109a.273.273,0,0,1,.343-.062c.343.118.68.254,1.023.372a7.087,7.087,0,0,0,2.445.543,4.023,4.023,0,0,0,2.226-.587.567.567,0,0,0,.216-.271,3.492,3.492,0,0,0,.178-1.256c-.03-.586-.056-1.172-.086-1.758a2.219,2.219,0,0,1,.089-.779c.136-.444.246-.9.366-1.346a1.381,1.381,0,0,0,.022-.159.98.98,0,0,0-.738-.045,5.287,5.287,0,0,0-1.263.512,3.214,3.214,0,0,1-1.625.428,1.875,1.875,0,0,0-.858.1c-.3.127-.677-.13-.731-.6a.938.938,0,0,1,.047-.387,3.73,3.73,0,0,1,.717-1.325,1.48,1.48,0,0,1,.429-.329c.336-.171.642-.067.93.3.094-.042.194-.086.292-.131a2.383,2.383,0,0,1,2.274.017c.192.107.394.2.625.311a2.138,2.138,0,0,0,.034-.262,17.432,17.432,0,0,0-.3-3.2c-.151-.775-.3-1.55-.5-2.314a17.873,17.873,0,0,0-1.036-2.913c-.216-.479-.444-.953-.664-1.43-.036-.078-.059-.162-.109-.3a2.633,2.633,0,0,1,.738.8A11.962,11.962,0,0,1,73.825,11a15.476,15.476,0,0,1,.654,2.712c.112.822.171,1.65.251,2.476a6.888,6.888,0,0,1-.091,1.9A10.028,10.028,0,0,1,74.28,19.4a4.227,4.227,0,0,0-.2,1.972c.042.28.088.559.117.841a2.927,2.927,0,0,1-.165,1.464,2.426,2.426,0,0,0,1.232.34c-.042.078-.056.142-.1.171-.326.238-.646.488-.991.695a.471.471,0,0,0-.289.44c0,.537-.032,1.073-.036,1.61-.006.739.019,1.478,0,2.216-.018.627-.059,1.254-.132,1.877a18.109,18.109,0,0,1-.321,2.006,16.564,16.564,0,0,1-1.052,3.195c-.305.661-.58,1.336-.9,1.992-.3.627-.648,1.233-.963,1.854A28.146,28.146,0,0,1,68.5,43.3c-.511.739-1.056,1.453-1.585,2.18-.68.934-1.243,1.941-1.849,2.922A5.344,5.344,0,0,1,63.8,49.938a6.374,6.374,0,0,1-1.653.881,8.286,8.286,0,0,1-2.894.432,15.135,15.135,0,0,1-3.487-.441c-.2-.046-.395-.09-.614-.139a5.184,5.184,0,0,0-.132,1.627,7.764,7.764,0,0,0,.362,1.811,4.7,4.7,0,0,0,1.069,1.781,8.985,8.985,0,0,0,3.008,2.06,18.265,18.265,0,0,0,2.675.888c.793.215,1.594.381,2.4.538.654.128,1.319.207,1.978.313,1.372.22,2.756.318,4.14.412.19.013.38.029.633.049-.143-.132-.237-.232-.343-.317A5.251,5.251,0,0,1,69.5,57.9c-.49-1.044-.925-2.113-1.418-3.154-.216-.454-.521-.865-.778-1.3-.139-.234-.265-.475-.388-.718a.9.9,0,0,1-.035-.242c.27.113.5.216.728.3q.769.278,1.545.54A6.113,6.113,0,0,1,71.941,55.2a6.641,6.641,0,0,1,1.172,2.113c.222.64.4,1.294.608,1.938a3.205,3.205,0,0,0,.578,1.061.288.288,0,0,0,.161.113c.534.044,1.07.077,1.605.112a.417.417,0,0,0,.11-.032c.015-.132.034-.27.046-.41q.06-.7.116-1.392a6.487,6.487,0,0,0-.141-1.6c-.067-.4-.161-.793-.221-1.192a1.235,1.235,0,0,0-.3-.646c-.323-.375-.623-.77-.955-1.137A10.4,10.4,0,0,0,72.1,52.119a6.029,6.029,0,0,1-2.671-2.97,14.67,14.67,0,0,1-.7-2.227c-.09-.373-.215-.737-.318-1.106a1,1,0,0,1,0-.227c.211.1.394.176.568.268q.777.412,1.548.834a6.549,6.549,0,0,1,2.017,1.583,7.308,7.308,0,0,1,1.24,2.213c.241.7.486,1.394.727,2.092a4.335,4.335,0,0,0,.454,1.018,6.732,6.732,0,0,1,.342.643,2.128,2.128,0,0,0,.5.585c0-.271.018-.49,0-.7-.075-.733-.131-1.47-.255-2.2-.216-1.267-.476-2.526-.717-3.789-.069-.357-.142-.714-.205-1.072a6.878,6.878,0,0,0-.437-1.26,7.134,7.134,0,0,1-.559-2.473,8.662,8.662,0,0,1,1.938-5.652c.221-.262.4-.56.6-.839.05-.069.113-.128.215-.242a3.52,3.52,0,0,1,.078.344,10.725,10.725,0,0,0,.439,2.041,6.76,6.76,0,0,1,.322,2.516,12.529,12.529,0,0,1-.3,2.01,8.548,8.548,0,0,1-.709,1.739c-.195.4-.393.8-.607,1.19a3.5,3.5,0,0,0-.3,1.073,4.475,4.475,0,0,0,.17,1.615q.21,1.257.417,2.514c.081.489.159.978.25,1.541.087-.219.146-.383.216-.544.241-.556.48-1.113.729-1.666a3.273,3.273,0,0,0,.294-1.173c.032-.6.031-1.194.031-1.791,0-.577-.059-1.158-.011-1.731a8.993,8.993,0,0,1,.308-1.48,6.377,6.377,0,0,1,.774-1.7c.215-.353.466-.684.706-1.021.031-.044.095-.065.169-.113.223.83.483,1.628.643,2.445a7.423,7.423,0,0,1,.205,2.076,5.074,5.074,0,0,1-.285,1.45,6.9,6.9,0,0,1-.861,1.761c-.3.382-.626.743-.947,1.107a8.872,8.872,0,0,0-1.51,2.408,1.344,1.344,0,0,1-.172.353,1.331,1.331,0,0,0-.24.962,13.242,13.242,0,0,0,.322,2.189,9.043,9.043,0,0,1,.2,2.08c-.011.211-.033.421-.051.656.042-.02.071-.025.082-.041.593-.88,1.183-1.762,1.777-2.641a10.36,10.36,0,0,0,.932-1.937A5.63,5.63,0,0,1,83.1,51.444a5.03,5.03,0,0,1,1.372-.236c.7-.022,1.4-.058,2.095-.087a1.2,1.2,0,0,1,.156.021,3.634,3.634,0,0,0-.238.3c-.333.529-.677,1.053-.988,1.595a6.184,6.184,0,0,1-1.351,1.706,10.51,10.51,0,0,1-1.183.8,9.281,9.281,0,0,1-2.339.9,3.784,3.784,0,0,0-1.782.99,9.955,9.955,0,0,0-1.737,2.363c-.113.234-.185.487-.275.729a11.46,11.46,0,0,0,2.536.339c.187-.4.35-.789.551-1.159a4.747,4.747,0,0,1,1.822-1.74c.535-.325,1.1-.608,1.638-.92.219-.126.42-.282.631-.422.047-.032.1-.055.163-.089a.6.6,0,0,1-.106.5,4.4,4.4,0,0,0-.318,1.284,6.284,6.284,0,0,1-.575,2.212,6.9,6.9,0,0,1-.47.667c-.047.064-.1.121-.16.188.089.122.222.116.331.144A14.5,14.5,0,0,1,86.4,62.915a8.6,8.6,0,0,1,2.088,1.649,15.185,15.185,0,0,1,2.173,2.874c.35.626.632,1.29.94,1.94a1.566,1.566,0,0,1,.072.263c.025.091,0,.176-.089.2a.255.255,0,0,1-.211-.043,2.67,2.67,0,0,1-.311-.447,22.063,22.063,0,0,0-2.176-3.29,10.079,10.079,0,0,0-2.486-2.3,10.787,10.787,0,0,0-1.934-.936,13.037,13.037,0,0,0-2.267-.682c-.747-.134-1.49-.3-2.241-.4-1.2-.165-2.41-.3-3.618-.429-.855-.088-1.716-.127-2.573-.2-1.029-.087-2.058-.177-3.086-.285-.886-.093-1.769-.209-2.653-.322-.722-.093-1.444-.186-2.163-.3s-1.42-.234-2.12-.392c-1.046-.237-2.092-.48-3.122-.776a11.08,11.08,0,0,1-2.4-1,8.035,8.035,0,0,1-1.352-.867,6.511,6.511,0,0,1-2.51-4.777c-.061-.614-.108-1.23-.149-1.846-.012-.172-.12-.216-.249-.257-.434-.138-.868-.275-1.3-.416a29.033,29.033,0,0,1-4.021-1.616A33.4,33.4,0,0,1,45.1,46.3c-.464-.307-.916-.635-1.373-.952L43.4,45.12a12.064,12.064,0,0,1-1.637,1.939c-.329.327-.7.615-1.057.911a20.592,20.592,0,0,1-2.2,1.465c-.608.383-1.208.779-1.815,1.163a.563.563,0,0,0-.263.415c-.2,1.093-.381,2.193-.637,3.275a37.821,37.821,0,0,1-1.467,4.725c-.341.9-.671,1.8-1.06,2.677-.361.813-.769,1.608-1.2,2.385-.413.741-.873,1.456-1.334,2.168a22.728,22.728,0,0,1-2.021,2.613,47.036,47.036,0,0,1-3.827,3.725q-2.181,1.983-4.358,3.97c-.651.593-1.306,1.181-1.948,1.784-.692.651-1.387,1.3-2.05,1.981a13.233,13.233,0,0,0-1.481,1.961,20.685,20.685,0,0,0-1.613,2.949,10.746,10.746,0,0,0-.363,1.028,16.245,16.245,0,0,0-.689,2.953,19.357,19.357,0,0,0-.1,2.761,17.208,17.208,0,0,0,.272,2.43,4.8,4.8,0,0,1,.025.495l-.065.015a.677.677,0,0,1-.121-.19q-.2-.885-.384-1.773c-.053-.256-.09-.515-.13-.774a12.18,12.18,0,0,1,0-4.138,17.3,17.3,0,0,1,.894-3.119,15.081,15.081,0,0,1,1.224-2.338,21.359,21.359,0,0,1,2.706-3.5c.318-.339.661-.656,1-.973a.308.308,0,0,0,.094-.374c-.07-.2-.1-.413-.168-.614a.448.448,0,0,0-.165-.238c-.475-.27-.956-.529-1.439-.784a2.35,2.35,0,0,0-1.3-.2,11.738,11.738,0,0,0-1.5.2,7.253,7.253,0,0,1-4.644-.573,8.616,8.616,0,0,1-2.336-1.565c-.227-.216-.443-.442-.675-.652-.164-.149-.346-.278-.517-.42-.088-.073-.17-.156-.254-.234l.023-.073a2.248,2.248,0,0,1,.4-.005,6.521,6.521,0,0,0,2.262-.088,6.571,6.571,0,0,1,3.762.308,7.69,7.69,0,0,1,1.987,1.158,9.453,9.453,0,0,0,2.1,1.325c.193.086.4.147.6.218q.57.2,1.141.406a.451.451,0,0,0,.114,0c-.05-.128-.086-.24-.137-.345a12.081,12.081,0,0,0-.9-1.514,25.208,25.208,0,0,0-1.569-2.085c-.124-.146-.238-.3-.366-.442a.934.934,0,0,0-.254-.21c-.342-.174-.7-.317-1.034-.5a7.856,7.856,0,0,0-1.535-.645,8.042,8.042,0,0,1-3.277-2.017,9.875,9.875,0,0,1-1.449-1.669,13.772,13.772,0,0,1-1.48-3.017,13.846,13.846,0,0,0-.848-2.011c-.117-.219-.2-.453-.3-.681l.055-.051A2.517,2.517,0,0,1,4.5,61a4.978,4.978,0,0,0,2,1.169c.712.26,1.441.479,2.132.786A7.815,7.815,0,0,1,11.792,65.3a7.423,7.423,0,0,1,1.16,2.186c.184.557.374,1.112.562,1.667A6.888,6.888,0,0,0,15,71.636a18.18,18.18,0,0,1,1.625,2.074A15.409,15.409,0,0,1,18.4,77.154a1.068,1.068,0,0,0,.086.154c.225-.115.253-.155.183-.369-.113-.346-.237-.689-.364-1.03-.193-.521-.394-1.039-.59-1.56a8.455,8.455,0,0,1-.458-2.56,8.918,8.918,0,0,1,.492-3.275c.169-.517.283-1.051.424-1.577.033-.121.028-.265.187-.34a.745.745,0,0,1,.07.17,2.415,2.415,0,0,0,.3.823,11.957,11.957,0,0,0,.89,1.375,7.048,7.048,0,0,1,.783,1.261,6.863,6.863,0,0,1,.657,3.594,4.353,4.353,0,0,1-.355,1.188c-.045.107-.082.218-.123.327l.057.035c.168-.156.343-.306.5-.472a.383.383,0,0,0,.068-.226c.051-.859.136-1.717.138-2.576a24.483,24.483,0,0,0-.628-4.96,15.348,15.348,0,0,0-.97-2.871c-.078-.186-.154-.373-.25-.6a6.237,6.237,0,0,0-.294.551,5.234,5.234,0,0,1-1.089,1.557c-.656.7-1.327,1.392-1.987,2.09-.125.132-.229.283-.348.421-.061.071-.133.134-.249.249a1.179,1.179,0,0,1-.025-.268,4.836,4.836,0,0,0-.069-1.747c-.11-.731-.276-1.453-.375-2.185a6.423,6.423,0,0,1,.137-2.293c.065-.286.147-.568.221-.852.012-.046.018-.093.028-.143-.407,0-.8-.022-1.188,0a4.806,4.806,0,0,1-2.149-.435,6.5,6.5,0,0,1-1.826-1.167c-.257-.225-.481-.488-.734-.719-.516-.47-1.042-.928-1.561-1.395-.091-.082-.241-.14-.16-.328.225-.019.454-.044.684-.058.624-.04,1.248-.071,1.872-.116a7.015,7.015,0,0,1,2.529.226,5.511,5.511,0,0,1,2.311,1.406c.329.325.664.644,1.015.984.151-.245.3-.461.419-.691.027-.051-.011-.154-.047-.219-.13-.24-.278-.47-.408-.711a8.268,8.268,0,0,1-.809-2.6c-.018-.11-.044-.218-.068-.326,0-.009-.012-.016-.021-.029-.184.039-.369.08-.556.117a1.3,1.3,0,0,1-1.279-.464,6.212,6.212,0,0,0-.972-.865,2,2,0,0,1-.817-1.306c-.026-.145-.063-.288-.1-.468-.136.26-.234.489-.367.7a3.821,3.821,0,0,1-1.118,1.137c-.634.416-1.28.813-1.914,1.227-.254.166-.491.356-.738.533a1.88,1.88,0,0,1-.192.107l-.047-.042c.058-.124.108-.252.176-.37a5.977,5.977,0,0,0,.668-2.037c.074-.437.187-.869.3-1.3a2.681,2.681,0,0,1,1-1.484.993.993,0,0,0,.1-.11L9.192,50.2a1.836,1.836,0,0,1-.921-.482,3.469,3.469,0,0,0-.855-.5,3.478,3.478,0,0,1-1.506-1.364.717.717,0,0,1,.015-.878.679.679,0,0,0,.093-.549,4.539,4.539,0,0,1-.043-.72,1.443,1.443,0,0,1,.506-1.035c.593-.55,1.181-1.107,1.786-1.643a3.382,3.382,0,0,1,1.781-.783c.127-.02.254-.044.454-.078-.114-.048-.162-.073-.212-.088-.327-.1-.654-.209-.984-.3a1.339,1.339,0,0,0-.413-.064,3.914,3.914,0,0,0-2.228.871c-.37.282-.721.589-1.079.887A4.98,4.98,0,0,1,2.542,44.6a5.451,5.451,0,0,1-1.684-.176c-.194-.052-.389-.1-.582-.154A2.939,2.939,0,0,1,0,44.162c.222-.267.3-.289.508-.148a5.241,5.241,0,0,0,1.3-.39c.3-.141.609-.273.915-.4a1.373,1.373,0,0,1,.2-.054,4.225,4.225,0,0,1-.572.409,5.792,5.792,0,0,1-.646.334c-.2.087-.421.143-.632.212l.008.077c.123.011.247.02.37.034a5.541,5.541,0,0,0,2.3-.239,4.883,4.883,0,0,0,1.568-.839c.538-.422,1.1-.819,1.684-1.255-.916.17-1.747.5-2.62.676a8.762,8.762,0,0,1,2.37-.924,3.35,3.35,0,0,0-.506-.093A5.2,5.2,0,0,0,2.2,42.8c-.23.181-.46.363-.685.55C1.2,43.612.787,43.71.508,44.015Z" transform="translate(0 -4.126)" fill="#707070"/>
    </g>
  </g>
  <g id="Groupe_184" data-name="Groupe 184" transform="translate(72.376 1.011)">
    <g id="Groupe_183" data-name="Groupe 183" transform="translate(0 0)">
      <path id="Tracé_133" data-name="Tracé 133" d="M6856.422,99.9a3.057,3.057,0,0,1,1.246.671c.838.732,1.694,1.447,2.488,2.224a10.8,10.8,0,0,1,1.958,2.615,11.515,11.515,0,0,1,1.23,3.569,13.838,13.838,0,0,1,.164,2.055c.022,1.316-.011,2.633,0,3.949a9.129,9.129,0,0,0,.243,2.258,4.942,4.942,0,0,0,.977,1.866c.467.571.954,1.125,1.4,1.714a8.273,8.273,0,0,1,.778,1.257,11.792,11.792,0,0,1,1.175,3.811,7.407,7.407,0,0,1-.014,2.119c-.125.769-.238,1.54-.378,2.306-.107.587-.259,1.165-.373,1.75a7.316,7.316,0,0,0-.094,2.476,5.4,5.4,0,0,0,.729,2.17c.266.416.491.864.789,1.255a14.284,14.284,0,0,0,1.125,1.27,17.738,17.738,0,0,0,2.313,1.964,14.812,14.812,0,0,0,1.585.956,13.817,13.817,0,0,1,2.467,1.538,6.264,6.264,0,0,1,2.248,3.683,5.041,5.041,0,0,1-.287,2.686,21.142,21.142,0,0,1-1.2,2.382,5.377,5.377,0,0,0-.68,1.833,4.113,4.113,0,0,0,.317,2.251,3.743,3.743,0,0,0,1.054,1.393,6.214,6.214,0,0,0,1.038.674,5.714,5.714,0,0,1,1.29.946,5.942,5.942,0,0,1,1.447,2.457,5.639,5.639,0,0,1-.376,4.417,9.994,9.994,0,0,1-1.29,2.017,1.66,1.66,0,0,1-.772.534c.068-.128.125-.26.2-.382a16.473,16.473,0,0,0,1.455-2.8,4.863,4.863,0,0,0,.27-3.036,5.315,5.315,0,0,0-1.959-3.126,6.733,6.733,0,0,0-.675-.4,5.427,5.427,0,0,1-2.223-2.05,5.217,5.217,0,0,1-.6-1.705,4.491,4.491,0,0,1,.28-2.38c.184-.468.426-.914.649-1.367a13.911,13.911,0,0,0,1.015-2.167,4.511,4.511,0,0,0-.114-3.062,6,6,0,0,0-1.441-2.005,8.911,8.911,0,0,0-1.885-1.266c-.708-.413-1.441-.784-2.129-1.227-.463-.3-.864-.7-1.3-1.04a16.08,16.08,0,0,1-2.013-1.929,9.075,9.075,0,0,1-.927-1.275,10.486,10.486,0,0,1-.729-1.364,6.839,6.839,0,0,1-.562-2.8,16.96,16.96,0,0,1,.531-3.683,14.7,14.7,0,0,0,.411-3.1,10.565,10.565,0,0,0-1.876-5.59c-.322-.415-.671-.81-1.016-1.208a6.846,6.846,0,0,1-1.44-2.51,9.137,9.137,0,0,1-.25-1.549,10.451,10.451,0,0,1-.069-1.211c0-.931.033-1.863.032-2.794a17.976,17.976,0,0,0-.146-2.788,10.528,10.528,0,0,0-1.489-4.015,21.154,21.154,0,0,0-1.777-2.384,30.1,30.1,0,0,0-2.136-2.152C6856.863,100.381,6856.647,100.134,6856.422,99.9Z" transform="translate(-6856.422 -99.896)" fill="#707070"/>
    </g>
  </g>
  <g id="Groupe_186" data-name="Groupe 186" transform="translate(54.813 32.237)">
    <g id="Groupe_185" data-name="Groupe 185" transform="translate(0 0)">
      <path id="Tracé_134" data-name="Tracé 134" d="M5205,3061.918a1.45,1.45,0,0,0-.17-.257,1.916,1.916,0,0,1-.456-.809c-.1-.306-.224-.606-.336-.909a1.689,1.689,0,0,0-1.7-1.135,5.927,5.927,0,0,1-1.8-.221,2.855,2.855,0,0,0-2.151.213,7.566,7.566,0,0,0-1.606,1.184,8.814,8.814,0,0,1-1.573,1.226c-.249.145-.5.293-.743.44,0,.019.006.04.007.059.126,0,.253,0,.379,0a6.794,6.794,0,0,0,1.694-.065c.556-.149,1.114-.3,1.659-.484.7-.24,1.376-.535,2.073-.776a9.625,9.625,0,0,1,1.145-.283.483.483,0,0,1,.495.167,6.351,6.351,0,0,0-1.257.5,4.7,4.7,0,0,1,1.577.508,12.141,12.141,0,0,0,1.23.517A2.253,2.253,0,0,0,5205,3061.918Zm-12.416.148c.151-.078.3-.169.455-.234.365-.149.74-.274,1.1-.431a4.759,4.759,0,0,0,1.2-.753c.644-.554,1.282-1.115,1.933-1.66a4.776,4.776,0,0,1,1.41-.821,2.657,2.657,0,0,1,1.375-.12c.4.064.787.176,1.185.237s.822.092,1.234.134a2.312,2.312,0,0,1,2.1,1.74c.078.24.136.488.225.724s.21.481.327.715a.375.375,0,0,0,.434.248.113.113,0,0,1,.058.014c.007,0,.011.015.024.037a.4.4,0,0,1-.282.23,3.081,3.081,0,0,1-2.335.024c-.577-.245-1.149-.5-1.73-.736a2.538,2.538,0,0,0-1.451-.2,3.048,3.048,0,0,0-.49.148c-.455.169-.9.379-1.361.513a7.3,7.3,0,0,1-3.271.242,4.924,4.924,0,0,0-1.719.007,3.16,3.16,0,0,1-.411.022Z" transform="translate(-5192.587 -3058.008)" fill="#707070"/>
    </g>
  </g>
  <g id="Groupe_188" data-name="Groupe 188" transform="translate(29.417 66.422)">
    <g id="Groupe_187" data-name="Groupe 187" transform="translate(0 0)">
      <path id="Tracé_135" data-name="Tracé 135" d="M2786.71,6301.875c.321-.057.6-.107.887-.16.605-.115,1.215-.214,1.815-.352a36.643,36.643,0,0,0,5.764-1.883c1.066-.438,2.114-.922,3.169-1.39a26.343,26.343,0,0,1,3.082-1.2,8.853,8.853,0,0,1,4.14-.292,10.3,10.3,0,0,1,1.5.48.987.987,0,0,1,.251.165c.093.073.169.188.106.287a.424.424,0,0,1-.286.182,1.362,1.362,0,0,1-.47-.1c-.257-.088-.5-.217-.764-.292a6.936,6.936,0,0,0-3.187-.1,15.572,15.572,0,0,0-3.5,1.167c-1.593.7-3.188,1.394-4.8,2.056a23.26,23.26,0,0,1-3.644,1.153,13.952,13.952,0,0,1-3.638.422A.542.542,0,0,1,2786.71,6301.875Z" transform="translate(-2786.71 -6296.476)" fill="#707070"/>
    </g>
  </g>
  <g id="Groupe_190" data-name="Groupe 190" transform="translate(52.944 60.072)">
    <g id="Groupe_189" data-name="Groupe 189" transform="translate(0 0)">
      <path id="Tracé_136" data-name="Tracé 136" d="M5029.391,5694.879a1.078,1.078,0,0,1-.628.489,18.831,18.831,0,0,1-3.073.936c-.988.221-1.979.42-2.979.582-.828.134-1.658.265-2.483.419a7.4,7.4,0,0,0-2.521,1,3.379,3.379,0,0,0-.98.9c-.257.351-.495.713-.741,1.072-.011.016-.021.034-.032.051-.071.108-.132.244-.292.224-.1-.011-.168-.21-.137-.4a3.115,3.115,0,0,1,.835-1.655,6.359,6.359,0,0,1,2.823-1.658,21.975,21.975,0,0,1,3.474-.715c.822-.117,1.64-.254,2.457-.4q1.091-.187,2.178-.4c.445-.09.884-.213,1.329-.31C5028.875,5694.958,5029.134,5694.923,5029.391,5694.879Z" transform="translate(-5015.518 -5694.879)" fill="#707070"/>
    </g>
  </g>
  <g id="Groupe_192" data-name="Groupe 192" transform="translate(39.914 52.81)">
    <g id="Groupe_191" data-name="Groupe 191" transform="translate(0 0)">
      <path id="Tracé_137" data-name="Tracé 137" d="M3781.284,5006.921c.054.089.1.181.164.267.868,1.269,1.721,2.547,2.611,3.8.674.945,1.365,1.881,2.1,2.775a18.12,18.12,0,0,0,2.786,2.74,6.426,6.426,0,0,0,1.613.947c.26.1.545.145.815.225.068.02.17.068.177.116a.238.238,0,0,1-.107.19.826.826,0,0,1-.34.1,2.984,2.984,0,0,1-1.379-.312,8.112,8.112,0,0,1-1.99-1.376,24.216,24.216,0,0,1-3.042-3.375,32.409,32.409,0,0,1-2.531-3.815,9.711,9.711,0,0,1-.886-1.894,2.987,2.987,0,0,1-.068-.36Z" transform="translate(-3781.211 -5006.921)" fill="#707070"/>
    </g>
  </g>
  <g id="Groupe_194" data-name="Groupe 194" transform="translate(57.292 36.891)">
    <g id="Groupe_193" data-name="Groupe 193" transform="translate(0 0)">
      <path id="Tracé_138" data-name="Tracé 138" d="M5436.353,3498.919c.188.073.153.227.133.361a1.4,1.4,0,0,1-.424.786,3.74,3.74,0,0,1-1.807.93,9.076,9.076,0,0,1-2.893.113,6.289,6.289,0,0,1-1.771-.386,6.715,6.715,0,0,1-1.726-1.054c-.143-.11-.287-.219-.447-.34.106-.09.179-.044.256,0,.348.2.7.4,1.048.606a5.433,5.433,0,0,0,2.146.7,11.64,11.64,0,0,0,1.845.086,5.732,5.732,0,0,0,2.186-.456,2.5,2.5,0,0,0,1.323-1.189,1.324,1.324,0,0,1,.078-.128C5436.307,3498.941,5436.318,3498.938,5436.353,3498.919Z" transform="translate(-5427.419 -3498.919)" fill="#707070"/>
    </g>
  </g>
  <g id="Groupe_196" data-name="Groupe 196" transform="translate(66.222 15.544)">
    <g id="Groupe_195" data-name="Groupe 195" transform="translate(0 0)">
      <path id="Tracé_139" data-name="Tracé 139" d="M6275.781,1476.66a1.758,1.758,0,0,1-.243.829c-.4.807-.816,1.6-1.2,2.415a6.86,6.86,0,0,0-.705,2.834c-.006.353-.04.706-.065,1.058a.314.314,0,0,1-.067.155,7.718,7.718,0,0,1,.555-4.7A9.707,9.707,0,0,1,6275.781,1476.66Z" transform="translate(-6273.36 -1476.66)" fill="#707070"/>
    </g>
  </g>
  <g id="Groupe_198" data-name="Groupe 198" transform="translate(59.817 28.28)">
    <g id="Groupe_197" data-name="Groupe 197" transform="translate(0 0)">
      <path id="Tracé_140" data-name="Tracé 140" d="M5669.539,2683.947a1.024,1.024,0,0,1-.211.012,2.587,2.587,0,0,0-1.482.191,1.561,1.561,0,0,1-.827.138c-.353-.052-.427-.249-.248-.548a1.255,1.255,0,0,1,1.27-.593,2.11,2.11,0,0,1,1.119.33A.867.867,0,0,1,5669.539,2683.947Z" transform="translate(-5666.677 -2683.142)" fill="#707070"/>
    </g>
  </g>
  <g id="Groupe_200" data-name="Groupe 200" transform="translate(64.495 25.984)">
    <g id="Groupe_199" data-name="Groupe 199" transform="translate(0 0)">
      <path id="Tracé_141" data-name="Tracé 141" d="M6111.734,2468.193a1.709,1.709,0,0,1,.326-.172.352.352,0,0,1,.25.034c.1.062.046.164,0,.245a.746.746,0,0,1-.67.41,5.45,5.45,0,0,0-1.7.282c-.039.012-.09-.014-.147-.072.239-.111.485-.211.718-.334a3.866,3.866,0,0,0,1.261-1.072,2.189,2.189,0,0,0,.394-1.316c.006-.159,0-.318,0-.5a.308.308,0,0,1,.244.25,1.751,1.751,0,0,1-.132,1.435C6112.127,2467.655,6111.935,2467.9,6111.734,2468.193Z" transform="translate(-6109.797 -2465.702)" fill="#707070"/>
    </g>
  </g>
  <g id="Groupe_202" data-name="Groupe 202" transform="translate(70.069 16.207)">
    <g id="Groupe_201" data-name="Groupe 201" transform="translate(0 0)">
      <path id="Tracé_142" data-name="Tracé 142" d="M6640.865,1539.951a.4.4,0,0,1-.441.1,5.051,5.051,0,0,0-2.252.051c-.1.021-.192.026-.333.045a.814.814,0,0,1,.467-.36,3.537,3.537,0,0,1,1.9-.249,2.189,2.189,0,0,1,.463.134A.255.255,0,0,1,6640.865,1539.951Z" transform="translate(-6637.838 -1539.506)" fill="#707070"/>
    </g>
  </g>
  <g id="Groupe_204" data-name="Groupe 204" transform="translate(62.842 30.033)">
    <g id="Groupe_203" data-name="Groupe 203" transform="translate(0 0)">
      <path id="Tracé_143" data-name="Tracé 143" d="M5954.254,2851.285a.668.668,0,0,1-.905-.2.969.969,0,0,1-.151-.725,2.35,2.35,0,0,1,.4-.938.924.924,0,0,1,.188-.147,1.465,1.465,0,0,1,0,.2c-.052.3-.121.593-.159.893a.644.644,0,0,0,.421.752A1.107,1.107,0,0,1,5954.254,2851.285Z" transform="translate(-5953.183 -2849.277)" fill="#707070"/>
    </g>
  </g>
  <g id="Groupe_206" data-name="Groupe 206" transform="translate(50.838 61.667)">
    <g id="Groupe_205" data-name="Groupe 205" transform="translate(0 0)">
      <path id="Tracé_144" data-name="Tracé 144" d="M4816.811,5846.005a.309.309,0,0,1,.136.334,1.947,1.947,0,0,1-.52,1.106.38.38,0,0,1-.122.087.191.191,0,0,1-.285-.213.66.66,0,0,1,.075-.228c.183-.326.371-.65.564-.968C4816.69,5846.071,4816.762,5846.042,4816.811,5846.005Z" transform="translate(-4816.017 -5846.005)" fill="#707070"/>
    </g>
  </g>
  <g id="Groupe_208" data-name="Groupe 208" transform="translate(68.064 13.574)">
    <g id="Groupe_207" data-name="Groupe 207" transform="translate(0 0)">
      <path id="Tracé_145" data-name="Tracé 145" d="M6448.481,1290.395c-.007.245-.012.557-.027.868a.306.306,0,0,1-.283.3.317.317,0,0,1-.288-.267,1.4,1.4,0,0,1,.332-1.157.225.225,0,0,1,.092-.077.27.27,0,0,1,.161-.014c.028.01.042.081.045.126A1.287,1.287,0,0,1,6448.481,1290.395Z" transform="translate(-6447.866 -1290.045)" fill="#707070"/>
    </g>
  </g>
  <g id="Groupe_210" data-name="Groupe 210" transform="translate(71.742 17.043)">
    <g id="Groupe_209" data-name="Groupe 209" transform="translate(0 0)">
      <path id="Tracé_146" data-name="Tracé 146" d="M6796.34,1618.832a.892.892,0,0,1,.746-.08.222.222,0,0,1,.128.172c0,.049-.089.125-.15.141A.909.909,0,0,1,6796.34,1618.832Z" transform="translate(-6796.34 -1618.701)" fill="#707070"/>
    </g>
  </g>
  <g id="Groupe_212" data-name="Groupe 212" transform="translate(50.324 67.554)">
    <g id="Groupe_211" data-name="Groupe 211" transform="translate(0 0)">
      <path id="Tracé_147" data-name="Tracé 147" d="M4767.334,6403.823c.3-.193.408-.167.575.148a.359.359,0,0,1-.361.2C4767.37,6404.136,4767.322,6403.988,4767.334,6403.823Z" transform="translate(-4767.332 -6403.701)" fill="#707070"/>
    </g>
  </g>
  <g id="Groupe_214" data-name="Groupe 214" transform="translate(52.714 66.082)">
    <g id="Groupe_213" data-name="Groupe 213" transform="translate(0 0)">
      <path id="Tracé_148" data-name="Tracé 148" d="M4993.866,6264.647c-.16-.191-.165-.235-.048-.319.08-.058.166-.083.237,0S4994.073,6264.525,4993.866,6264.647Z" transform="translate(-4993.737 -6264.276)" fill="#707070"/>
    </g>
  </g>
  <g id="Groupe_216" data-name="Groupe 216" transform="translate(56.639 36.702)">
    <g id="Groupe_215" data-name="Groupe 215" transform="translate(0 0)">
      <path id="Tracé_149" data-name="Tracé 149" d="M5365.919,3481.211c-.138.106-.234.1-.293-.021-.021-.048,0-.166.025-.175C5365.81,3480.963,5365.837,3481.107,5365.919,3481.211Z" transform="translate(-5365.617 -3481.005)" fill="#707070"/>
    </g>
  </g>
  <g id="Groupe_218" data-name="Groupe 218" transform="translate(66.331 22.98)">
    <g id="Groupe_217" data-name="Groupe 217" transform="translate(0 0)">
      <path id="Tracé_150" data-name="Tracé 150" d="M6283.8,2181.11v.21l-.058.006c-.009-.07-.019-.139-.028-.21Z" transform="translate(-6283.714 -2181.11)" fill="#707070"/>
    </g>
  </g>
  <g id="Groupe_220" data-name="Groupe 220" transform="translate(25.572 28.782)">
    <g id="Groupe_219" data-name="Groupe 219" transform="translate(0 0)">
      <path id="Tracé_151" data-name="Tracé 151" d="M2423.066,2731.279c-.008.006-.019.02-.024.017-.263-.106-.378-.347-.524-.561.142.22.467.268.538.555Z" transform="translate(-2422.519 -2730.735)" fill="#707070"/>
    </g>
  </g>
  <g id="Groupe_222" data-name="Groupe 222" transform="translate(15.978 43.269)">
    <g id="Groupe_221" data-name="Groupe 221" transform="translate(0 0)">
      <path id="Tracé_152" data-name="Tracé 152" d="M1513.959,4104.873a3.033,3.033,0,0,1-.292-1.27.712.712,0,0,1,.066-.493c.2.071.194.24.223.377A2.654,2.654,0,0,1,1513.959,4104.873Z" transform="translate(-1513.653 -4103.111)" fill="#707070"/>
    </g>
  </g>
  <g id="Groupe_224" data-name="Groupe 224" transform="translate(14.433 43.055)">
    <g id="Groupe_223" data-name="Groupe 223" transform="translate(0 0)">
      <path id="Tracé_153" data-name="Tracé 153" d="M1367.521,4082.877a1.222,1.222,0,0,1-.163.845,1.179,1.179,0,0,1-.008-.719C1367.368,4082.963,1367.43,4082.942,1367.521,4082.877Z" transform="translate(-1367.298 -4082.877)" fill="#707070"/>
    </g>
  </g>
  <g id="Groupe_226" data-name="Groupe 226" transform="translate(16.256 45.693)">
    <g id="Groupe_225" data-name="Groupe 225" transform="translate(0 0)">
      <path id="Tracé_154" data-name="Tracé 154" d="M1540.1,4332.753a.454.454,0,0,1,.049.625A.472.472,0,0,1,1540.1,4332.753Z" transform="translate(-1540.008 -4332.753)" fill="#707070"/>
    </g>
  </g>
  <g id="Groupe_228" data-name="Groupe 228" transform="translate(14.287 44.922)">
    <g id="Groupe_227" data-name="Groupe 227" transform="translate(0 0)">
      <path id="Tracé_155" data-name="Tracé 155" d="M1353.536,4260.222a.5.5,0,0,1,.055-.552c.209.085.088.265.124.39C1353.737,4260.143,1353.681,4260.235,1353.536,4260.222Z" transform="translate(-1353.477 -4259.67)" fill="#707070"/>
    </g>
  </g>
  <g id="Groupe_230" data-name="Groupe 230" transform="translate(11.286 41.972)">
    <g id="Groupe_229" data-name="Groupe 229" transform="translate(0 0)">
      <path id="Tracé_156" data-name="Tracé 156" d="M1069.109,3980.651a.389.389,0,0,1,.279-.349.189.189,0,0,1,.171.06.178.178,0,0,1-.041.168C1069.406,3980.617,1069.289,3980.727,1069.109,3980.651Z" transform="translate(-1069.109 -3980.298)" fill="#707070"/>
    </g>
  </g>
  <g id="Groupe_232" data-name="Groupe 232" transform="translate(11.053 42.756)">
    <g id="Groupe_231" data-name="Groupe 231" transform="translate(0 0)">
      <path id="Tracé_157" data-name="Tracé 157" d="M1047.422,4054.529c-.04.235-.1.275-.351.232C1047.119,4054.524,1047.165,4054.494,1047.422,4054.529Z" transform="translate(-1047.071 -4054.517)" fill="#707070"/>
    </g>
  </g>
  <g id="Groupe_234" data-name="Groupe 234" transform="translate(9.842 39.987)">
    <g id="Groupe_233" data-name="Groupe 233" transform="translate(0 0)">
      <path id="Tracé_158" data-name="Tracé 158" d="M932.768,3792.247l-.375.24c.02-.251.08-.3.344-.3Z" transform="translate(-932.392 -3792.187)" fill="#707070"/>
    </g>
  </g>
  <g id="Groupe_236" data-name="Groupe 236" transform="translate(8.486 40.826)">
    <g id="Groupe_235" data-name="Groupe 235" transform="translate(0 0)">
      <path id="Tracé_159" data-name="Tracé 159" d="M804.043,3871.716l-.082.091-.053-.058.1-.071Z" transform="translate(-803.909 -3871.678)" fill="#707070"/>
    </g>
  </g>
  <g id="Groupe_238" data-name="Groupe 238" transform="translate(33.576 10.095)">
    <g id="Groupe_237" data-name="Groupe 237" transform="translate(0 0)">
      <path id="Tracé_160" data-name="Tracé 160" d="M3180.915,960.779l-.133-.282a.262.262,0,0,1,.215.25Z" transform="translate(-3180.782 -960.496)" fill="#707070"/>
    </g>
  </g>
  <g id="Groupe_240" data-name="Groupe 240" transform="translate(11.977 33.714)">
    <g id="Groupe_239" data-name="Groupe 239" transform="translate(0 0)">
      <path id="Tracé_161" data-name="Tracé 161" d="M1134.595,3197.961a1.1,1.1,0,0,1,.415.676c-.065,0-.143.031-.167.006A.818.818,0,0,1,1134.595,3197.961Z" transform="translate(-1134.59 -3197.961)" fill="#707070"/>
    </g>
  </g>
  <g id="Groupe_242" data-name="Groupe 242" transform="translate(14.052 34.989)">
    <g id="Groupe_241" data-name="Groupe 241" transform="translate(0 0)">
      <path id="Tracé_162" data-name="Tracé 162" d="M1331.4,3319.455c-.094-.275-.271-.471-.116-.741A.493.493,0,0,1,1331.4,3319.455Z" transform="translate(-1331.219 -3318.715)" fill="#707070"/>
    </g>
  </g>
  <g id="Groupe_244" data-name="Groupe 244" transform="translate(11.511 35.939)">
    <g id="Groupe_243" data-name="Groupe 243" transform="translate(0 0)">
      <path id="Tracé_163" data-name="Tracé 163" d="M1090.434,3408.715c.274.113.344.218.282.393C1090.533,3409,1090.533,3409,1090.434,3408.715Z" transform="translate(-1090.434 -3408.715)" fill="#707070"/>
    </g>
  </g>
  <g id="Groupe_246" data-name="Groupe 246" transform="translate(13.768 33.92)">
    <g id="Groupe_245" data-name="Groupe 245" transform="translate(0 0)">
      <path id="Tracé_164" data-name="Tracé 164" d="M1304.5,3217.858c-.214-.2-.217-.208-.119-.414C1304.513,3217.556,1304.508,3217.688,1304.5,3217.858Z" transform="translate(-1304.323 -3217.444)" fill="#707070"/>
    </g>
  </g>
  <g id="Groupe_248" data-name="Groupe 248" transform="translate(19.234 40.284)">
    <g id="Groupe_247" data-name="Groupe 247" transform="translate(0 0)">
      <path id="Tracé_165" data-name="Tracé 165" d="M1822.057,3820.307c.268-.04.432.08.558.4-.122.117-.233.054-.344-.021C1822.133,3820.6,1822.017,3820.5,1822.057,3820.307Z" transform="translate(-1822.049 -3820.3)" fill="#707070"/>
    </g>
  </g>
  <g id="Groupe_250" data-name="Groupe 250" transform="translate(17.034 41.007)">
    <g id="Groupe_249" data-name="Groupe 249" transform="translate(0 0)">
      <path id="Tracé_166" data-name="Tracé 166" d="M1614.144,3889.331c-.04.015-.126.065-.141.048a3.422,3.422,0,0,1-.361-.438c-.043-.064.066-.152.148-.125A.815.815,0,0,1,1614.144,3889.331Z" transform="translate(-1613.632 -3888.811)" fill="#707070"/>
    </g>
  </g>
  <g id="Groupe_252" data-name="Groupe 252" transform="translate(17.986 42.111)">
    <g id="Groupe_251" data-name="Groupe 251" transform="translate(0 0)">
      <path id="Tracé_167" data-name="Tracé 167" d="M1704.354,3993.678c-.088.029-.163.081-.226.067a.642.642,0,0,1-.261-.134.141.141,0,0,1,.133-.224A.454.454,0,0,1,1704.354,3993.678Z" transform="translate(-1703.844 -3993.386)" fill="#707070"/>
    </g>
  </g>
  <g id="Groupe_254" data-name="Groupe 254" transform="translate(16.895 36.084)">
    <g id="Groupe_253" data-name="Groupe 253" transform="translate(0 0)">
      <path id="Tracé_168" data-name="Tracé 168" d="M1600.518,3423.129a.735.735,0,0,1,.671-.706A2.1,2.1,0,0,1,1600.518,3423.129Z" transform="translate(-1600.518 -3422.423)" fill="#707070"/>
    </g>
  </g>
  <g id="Groupe_256" data-name="Groupe 256" transform="translate(18.062 37.737)">
    <g id="Groupe_255" data-name="Groupe 255" transform="translate(0 0)">
      <path id="Tracé_169" data-name="Tracé 169" d="M1711.875,3579.065a.817.817,0,0,1-.77.505A1.136,1.136,0,0,1,1711.875,3579.065Z" transform="translate(-1711.105 -3579.065)" fill="#707070"/>
    </g>
  </g>
  <g id="Groupe_258" data-name="Groupe 258" transform="translate(16.287 36.899)">
    <g id="Groupe_257" data-name="Groupe 257" transform="translate(0 0)">
      <path id="Tracé_170" data-name="Tracé 170" d="M1543.284,3499.707c.079.25.015.431-.161.5a.158.158,0,0,1-.135-.014.165.165,0,0,1-.039-.134C1542.985,3499.886,1543.116,3499.8,1543.284,3499.707Z" transform="translate(-1542.947 -3499.707)" fill="#707070"/>
    </g>
  </g>
  <g id="Groupe_260" data-name="Groupe 260" transform="translate(38.741 12.608)">
    <g id="Groupe_259" data-name="Groupe 259" transform="translate(0 0)">
      <path id="Tracé_171" data-name="Tracé 171" d="M3670.035,1198.774c.085-.254.109-.264.411-.178C3670.336,1198.812,3670.283,1198.835,3670.035,1198.774Z" transform="translate(-3670.035 -1198.548)" fill="#707070"/>
    </g>
  </g>
  <g id="Groupe_262" data-name="Groupe 262" transform="translate(9.501 62.572)">
    <g id="Groupe_261" data-name="Groupe 261" transform="translate(0 0)">
      <path id="Tracé_172" data-name="Tracé 172" d="M900.628,5932.363a1,1,0,0,1-.6-.649A1.011,1.011,0,0,1,900.628,5932.363Z" transform="translate(-900.026 -5931.714)" fill="#707070"/>
    </g>
  </g>
  <g id="Groupe_264" data-name="Groupe 264" transform="translate(35.663 17.891)">
    <g id="Groupe_263" data-name="Groupe 263" transform="translate(0 0)">
      <path id="Tracé_173" data-name="Tracé 173" d="M3378.473,1699.193l.135-.245c.08.138.005.207-.057.28Z" transform="translate(-3378.473 -1698.947)" fill="#707070"/>
    </g>
  </g>
  <g id="Groupe_266" data-name="Groupe 266" transform="translate(41.483 16.661)">
    <g id="Groupe_265" data-name="Groupe 265" transform="translate(0 0)">
      <path id="Tracé_174" data-name="Tracé 174" d="M3930.226,1582.5c-.148.2-.284.11-.464.057A.334.334,0,0,1,3930.226,1582.5Z" transform="translate(-3929.762 -1582.433)" fill="#707070"/>
    </g>
  </g>
  <g id="Groupe_268" data-name="Groupe 268" transform="translate(29.242 10.743)">
    <g id="Groupe_267" data-name="Groupe 267" transform="translate(0 0)">
      <path id="Tracé_175" data-name="Tracé 175" d="M2770.169,1021.89c.283-.011.292,0,.281.234C2770.295,1022.136,2770.282,1022,2770.169,1021.89Z" transform="translate(-2770.169 -1021.887)" fill="#707070"/>
    </g>
  </g>
  <g id="Groupe_270" data-name="Groupe 270" transform="translate(13.223 55)">
    <g id="Groupe_269" data-name="Groupe 269" transform="translate(0 0)">
      <path id="Tracé_176" data-name="Tracé 176" d="M1252.761,5214.555l-.122-.05.021-.043.109.058Z" transform="translate(-1252.638 -5214.462)" fill="#707070"/>
    </g>
  </g>
</svg>
